NotoSans-BoldItalic.ufo
<glyph name="quotesingle" format="2">
  <advance width="238"/>
  <unicode hex="0027"/>
  <outline>
    <contour>
      <point x="89" y="456" type="line"/>
      <point x="214" y="456" type="line"/>
      <point x="291" y="714" type="line"/>
      <point x="124" y="714" type="line"/>
    </contour>
  </outline>
</glyph>
<glyph name="comma" format="2">
  <advance width="306"/>
  <unicode hex="002C"/>
  <outline>
    <contour>
      <point x="-51" y="-129" type="curve"/>
      <point x="90" y="-129" type="line"/>
      <point x="137" y="-56"/>
      <point x="184" y="34"/>
      <point x="215" y="105" type="curve"/>
      <point x="211" y="116" type="line"/>
      <point x="41" y="116" type="line"/>
      <point x="16" y="47"/>
      <point x="-16" y="-50"/>
    </contour>
  </outline>
</glyph>
<glyph name="hyphen" format="2">
  <advance width="329"/>
  <unicode hex="002D"/>
  <outline>
    <contour>
      <point x="11" y="192" type="line"/>
      <point x="281" y="192" type="line"/>
      <point x="312" y="344" type="line"/>
      <point x="42" y="344" type="line"/>
    </contour>
  </outline>
</glyph>
<glyph name="period" format="2">
  <advance width="306"/>
  <unicode hex="002E"/>
  <outline>
    <contour>
      <point x="85" y="-12" type="curve" smooth="yes"/>
      <point x="159" y="-12"/>
      <point x="207" y="14"/>
      <point x="207" y="100" type="curve" smooth="yes"/>
      <point x="207" y="152"/>
      <point x="171" y="176"/>
      <point x="119" y="176" type="curve" smooth="yes"/>
      <point x="55" y="176"/>
      <point x="0" y="141"/>
      <point x="0" y="62" type="curve" smooth="yes"/>
      <point x="0" y="11"/>
      <point x="34" y="-12"/>
    </contour>
  </outline>
</glyph>
<glyph name="less" format="2">
  <advance width="586"/>
  <unicode hex="003C"/>
  <outline>
    <contour>
      <point x="539" y="87" type="line"/>
      <point x="539" y="231" type="line"/>
      <point x="236" y="354" type="line"/>
      <point x="539" y="492" type="line"/>
      <point x="539" y="637" type="line"/>
      <point x="45" y="390" type="line"/>
      <point x="45" y="306" type="line"/>
    </contour>
  </outline>
</glyph>
<glyph name="greater" format="2">
  <advance width="586"/>
  <unicode hex="003E"/>
  <outline>
    <contour>
      <point x="45" y="231" type="line"/>
      <point x="45" y="87" type="line"/>
      <point x="539" y="306" type="line"/>
      <point x="539" y="390" type="line"/>
      <point x="45" y="637" type="line"/>
      <point x="45" y="492" type="line"/>
      <point x="348" y="354" type="line"/>
    </contour>
  </outline>
</glyph>
<glyph name="I" format="2">
  <advance width="426"/>
  <unicode hex="0049"/>
  <anchor x="154" y="0" name="bottom"/>
  <anchor x="297" y="714" name="top"/>
  <anchor x="499" y="714" name="topright"/>
  <outline>
    <contour>
      <point x="-36" y="0" type="line"/>
      <point x="328" y="0" type="line"/>
      <point x="351" y="109" type="line"/>
      <point x="272" y="148" type="line"/>
      <point x="360" y="562" type="line"/>
      <point x="458" y="604" type="line"/>
      <point x="481" y="714" type="line"/>
      <point x="114" y="714" type="line"/>
      <point x="91" y="604" type="line"/>
      <point x="169" y="562" type="line"/>
      <point x="81" y="148" type="line"/>
      <point x="-13" y="109" type="line"/>
    </contour>
  </outline>
</glyph>
<glyph name="L" format="2">
  <advance width="527"/>
  <unicode hex="004C"/>
  <anchor x="234" y="0" name="bottom"/>
  <anchor x="306" y="357" name="center"/>
  <anchor x="288" y="714" name="top"/>
  <anchor x="510" y="714" name="topright"/>
  <outline>
    <contour>
      <point x="16" y="0" type="line"/>
      <point x="440" y="0" type="line"/>
      <point x="473" y="156" type="line"/>
      <point x="240" y="156" type="line"/>
      <point x="358" y="714" type="line"/>
      <point x="167" y="714" type="line"/>
    </contour>
  </outline>
</glyph>
<glyph name="bracketleft" format="2">
  <advance width="360"/>
  <unicode hex="005B"/>
  <outline>
    <contour>
      <point x="-26" y="-168" type="line"/>
      <point x="233" y="-168" type="line"/>
      <point x="259" y="-44" type="line"/>
      <point x="154" y="-44" type="line"/>
      <point x="293" y="610" type="line"/>
      <point x="398" y="610" type="line"/>
      <point x="425" y="734" type="line"/>
      <point x="166" y="734" type="line"/>
    </contour>
  </outline>
</glyph>
<glyph name="backslash" format="2">
  <advance width="467"/>
  <unicode hex="005C"/>
  <outline>
    <contour>
      <point x="224" y="-10" type="line"/>
      <point x="380" y="-10" type="line"/>
      <point x="259" y="724" type="line"/>
      <point x="108" y="724" type="line"/>
    </contour>
  </outline>
</glyph>
<glyph name="grave" format="2">
  <advance width="353"/>
  <unicode hex="0060"/>
  <anchor x="282" y="553" name="_top"/>
  <outline>
    <contour>
      <point x="268" y="606" type="curve"/>
      <point x="383" y="606" type="line"/>
      <point x="383" y="618" type="line"/>
      <point x="360" y="669"/>
      <point x="345" y="723"/>
      <point x="337" y="766" type="curve"/>
      <point x="144" y="766" type="line"/>
      <point x="144" y="756" type="line"/>
      <point x="168" y="707"/>
      <point x="224" y="647"/>
    </contour>
  </outline>
</glyph>
<glyph name="z" format="2">
  <advance width="485"/>
  <unicode hex="007A"/>
  <anchor x="191" y="0" name="bottom"/>
  <anchor x="303" y="553" name="top"/>
  <anchor x="524" y="553" name="topright"/>
  <outline>
    <contour>
      <point x="-20" y="0" type="line"/>
      <point x="392" y="0" type="line"/>
      <point x="424" y="146" type="line"/>
      <point x="237" y="146" type="line"/>
      <point x="479" y="435" type="line"/>
      <point x="505" y="553" type="line"/>
      <point x="109" y="553" type="line"/>
      <point x="76" y="407" type="line"/>
      <point x="246" y="407" type="line"/>
      <point x="1" y="108" type="line"/>
    </contour>
  </outline>
</glyph>
<glyph name="bar" format="2">
  <advance width="566"/>
  <unicode hex="007C"/>
  <outline>
    <contour>
      <point x="216" y="-227" type="line"/>
      <point x="348" y="-227" type="line"/>
      <point x="348" y="756" type="line"/>
      <point x="216" y="756" type="line"/>
    </contour>
  </outline>
</glyph>
<glyph name="guillemotleft" format="2">
  <advance width="623"/>
  <unicode hex="00AB"/>
  <outline>
    <contour>
      <point x="119" y="37" type="line"/>
      <point x="282" y="104" type="line"/>
      <point x="228" y="265" type="line"/>
      <point x="358" y="428" type="line"/>
      <point x="229" y="528" type="line"/>
      <point x="30" y="275" type="line"/>
      <point x="30" y="270" type="line"/>
    </contour>
    <contour>
      <point x="392" y="37" type="line"/>
      <point x="555" y="104" type="line"/>
      <point x="495" y="279" type="line"/>
      <point x="631" y="428" type="line"/>
      <point x="504" y="531" type="line"/>
      <point x="297" y="289" type="line"/>
      <point x="297" y="284" type="line"/>
    </contour>
  </outline>
</glyph>
<glyph name="overscore" format="2">
  <advance width="450"/>
  <unicode hex="00AF"/>
  <outline>
    <contour>
      <point x="101" y="759" type="line"/>
      <point x="555" y="759" type="line"/>
      <point x="583" y="879" type="line"/>
      <point x="129" y="879" type="line"/>
    </contour>
  </outline>
</glyph>
<glyph name="uni018E" format="2">
  <advance width="562"/>
  <unicode hex="018E"/>
  <anchor x="222" y="0" name="bottom"/>
  <anchor x="374" y="714" name="top"/>
  <outline>
    <contour>
      <point x="5" y="0" type="line"/>
      <point x="429" y="0" type="line"/>
      <point x="580" y="714" type="line"/>
      <point x="156" y="714" type="line"/>
      <point x="123" y="557" type="line"/>
      <point x="356" y="557" type="line"/>
      <point x="336" y="459" type="line"/>
      <point x="119" y="459" type="line"/>
      <point x="84" y="304" type="line"/>
      <point x="301" y="304" type="line"/>
      <point x="270" y="155" type="line"/>
      <point x="37" y="155" type="line"/>
    </contour>
  </outline>
</glyph>
<glyph name="florin" format="2">
  <advance width="575"/>
  <unicode hex="0192"/>
  <anchor x="174" y="0" name="bottom"/>
  <anchor x="531" y="765" name="top"/>
  <anchor x="699" y="765" name="topright"/>
  <outline>
    <contour>
      <point x="201" y="-9" type="curve" smooth="yes"/>
      <point x="322" y="-9"/>
      <point x="406" y="58"/>
      <point x="436" y="197" type="curve" smooth="yes"/>
      <point x="482" y="411" type="line"/>
      <point x="584" y="411" type="line"/>
      <point x="616" y="553" type="line"/>
      <point x="513" y="553" type="line"/>
      <point x="521" y="588" type="line" smooth="yes"/>
      <point x="526" y="611"/>
      <point x="543" y="623"/>
      <point x="566" y="623" type="curve" smooth="yes"/>
      <point x="587" y="623"/>
      <point x="610" y="617"/>
      <point x="629" y="608" type="curve"/>
      <point x="677" y="737" type="line"/>
      <point x="643" y="754"/>
      <point x="591" y="765"/>
      <point x="539" y="765" type="curve" smooth="yes"/>
      <point x="427" y="765"/>
      <point x="361" y="712"/>
      <point x="333" y="587" type="curve" smooth="yes"/>
      <point x="325" y="551" type="line"/>
      <point x="233" y="504" type="line"/>
      <point x="212" y="411" type="line"/>
      <point x="293" y="411" type="line"/>
      <point x="247" y="200" type="line" smooth="yes"/>
      <point x="236" y="151"/>
      <point x="219" y="126"/>
      <point x="191" y="126" type="curve" smooth="yes"/>
      <point x="158" y="126"/>
      <point x="150" y="156"/>
      <point x="150" y="177" type="curve" smooth="yes"/>
      <point x="150" y="193"/>
      <point x="152" y="211"/>
      <point x="157" y="226" type="curve"/>
      <point x="17" y="276" type="line"/>
      <point x="6" y="253"/>
      <point x="-4" y="215"/>
      <point x="-4" y="180" type="curve" smooth="yes"/>
      <point x="-4" y="58"/>
      <point x="72" y="-9"/>
    </contour>
  </outline>
</glyph>
<glyph name="uni019A" format="2">
  <advance width="325"/>
  <unicode hex="019A"/>
  <anchor x="104" y="0" name="bottom"/>
  <anchor x="266" y="760" name="top"/>
  <outline>
    <contour>
      <point x="11" y="0" type="line"/>
      <point x="200" y="0" type="line"/>
      <point x="260" y="282" type="line"/>
      <point x="345" y="282" type="line"/>
      <point x="375" y="420" type="line"/>
      <point x="289" y="420" type="line"/>
      <point x="361" y="760" type="line"/>
      <point x="172" y="760" type="line"/>
      <point x="100" y="420" type="line"/>
      <point x="16" y="420" type="line"/>
      <point x="-15" y="282" type="line"/>
      <point x="71" y="282" type="line"/>
    </contour>
  </outline>
</glyph>
<glyph name="uni01AC" format="2">
  <advance width="602"/>
  <unicode hex="01AC"/>
  <anchor x="242" y="0" name="bottom"/>
  <anchor x="394" y="714" name="top"/>
  <outline>
    <contour>
      <point x="165" y="0" type="line"/>
      <point x="356" y="0" type="line"/>
      <point x="472" y="556" type="line"/>
      <point x="627" y="556" type="line"/>
      <point x="662" y="714" type="line"/>
      <point x="273" y="714" type="line" smooth="yes"/>
      <point x="103" y="714"/>
      <point x="29" y="629"/>
      <point x="29" y="488" type="curve" smooth="yes"/>
      <point x="29" y="477"/>
      <point x="30" y="467"/>
      <point x="32" y="459" type="curve"/>
      <point x="167" y="459" type="line"/>
      <point x="166" y="465"/>
      <point x="166" y="470"/>
      <point x="166" y="480" type="curve" smooth="yes"/>
      <point x="166" y="529"/>
      <point x="190" y="561"/>
      <point x="246" y="561" type="curve" smooth="yes"/>
      <point x="283" y="561" type="line"/>
    </contour>
  </outline>
</glyph>
<glyph name="uni01B5" format="2">
  <advance width="539"/>
  <unicode hex="01B5"/>
  <anchor x="211" y="0" name="bottom"/>
  <anchor x="363" y="714" name="top"/>
  <outline>
    <contour>
      <point x="-45" y="0" type="line"/>
      <point x="460" y="0" type="line"/>
      <point x="493" y="156" type="line"/>
      <point x="228" y="156" type="line"/>
      <point x="313" y="265" type="line"/>
      <point x="484" y="265" type="line"/>
      <point x="519" y="420" type="line"/>
      <point x="434" y="420" type="line"/>
      <point x="570" y="594" type="line"/>
      <point x="595" y="714" type="line"/>
      <point x="114" y="714" type="line"/>
      <point x="81" y="558" type="line"/>
      <point x="315" y="558" type="line"/>
      <point x="209" y="420" type="line"/>
      <point x="53" y="420" type="line"/>
      <point x="18" y="265" type="line"/>
      <point x="91" y="265" type="line"/>
      <point x="-22" y="118" type="line"/>
    </contour>
  </outline>
</glyph>
<glyph name="uni023A" format="2">
  <advance width="676"/>
  <unicode hex="023A"/>
  <anchor x="279" y="0" name="bottom"/>
  <anchor x="431" y="714" name="top"/>
  <anchor x="749" y="714" name="topright"/>
  <outline>
    <contour>
      <point x="132" y="-75" type="line"/>
      <point x="226" y="-75" type="line"/>
      <point x="616" y="760" type="line"/>
      <point x="523" y="760" type="line"/>
    </contour>
    <component base="A"/>
  </outline>
</glyph>
<glyph name="uni023B" format="2">
  <advance width="630"/>
  <unicode hex="023B"/>
  <anchor x="328" y="0" name="bottom"/>
  <anchor x="430" y="714" name="top"/>
  <anchor x="703" y="714" name="topright"/>
  <outline>
    <contour>
      <point x="149" y="-75" type="line"/>
      <point x="243" y="-75" type="line"/>
      <point x="633" y="760" type="line"/>
      <point x="540" y="760" type="line"/>
    </contour>
    <component base="C"/>
  </outline>
</glyph>
<glyph name="uni023C" format="2">
  <advance width="504"/>
  <unicode hex="023C"/>
  <anchor x="199" y="-145" name="bottom"/>
  <anchor x="351" y="690" name="top"/>
  <anchor x="543" y="553" name="topright"/>
  <outline>
    <contour>
      <point x="79" y="-145" type="line"/>
      <point x="173" y="-145" type="line"/>
      <point x="563" y="690" type="line"/>
      <point x="470" y="690" type="line"/>
    </contour>
    <component base="c"/>
  </outline>
</glyph>
<glyph name="uni023E" format="2">
  <advance width="552"/>
  <unicode hex="023E"/>
  <anchor x="217" y="0" name="bottom"/>
  <anchor x="369" y="714" name="top"/>
  <anchor x="318" y="357" name="center"/>
  <anchor x="625" y="714" name="topright"/>
  <outline>
    <contour>
      <point x="-68" y="-33" type="line"/>
      <point x="50" y="-33" type="line"/>
      <point x="640" y="802" type="line"/>
      <point x="523" y="802" type="line"/>
    </contour>
    <component base="T"/>
  </outline>
</glyph>
<glyph name="uni0246" format="2">
  <advance width="562"/>
  <unicode hex="0246"/>
  <anchor x="262" y="0" name="bottom"/>
  <anchor x="384" y="714" name="top"/>
  <anchor x="635" y="714" name="topright"/>
  <outline>
    <contour>
      <point x="132" y="-75" type="line"/>
      <point x="231" y="-75" type="line"/>
      <point x="593" y="760" type="line"/>
      <point x="496" y="760" type="line"/>
    </contour>
    <component base="E"/>
  </outline>
</glyph>
<glyph name="uni024F" format="2">
  <advance width="544"/>
  <unicode hex="024F"/>
  <anchor x="162" y="-240" name="bottom"/>
  <anchor x="314" y="553" name="top"/>
  <anchor x="583" y="553" name="topright"/>
  <outline>
    <contour>
      <point x="-2" y="288" type="line"/>
      <point x="547" y="288" type="line"/>
      <point x="570" y="400" type="line"/>
      <point x="23" y="400" type="line"/>
    </contour>
    <component base="y"/>
  </outline>
</glyph>
<glyph name="uni0262" format="2">
  <advance width="604"/>
  <unicode hex="0262"/>
  <anchor x="243" y="0" name="bottom"/>
  <anchor x="361" y="553" name="top"/>
  <anchor x="524" y="553" name="topright"/>
  <outline>
    <contour>
      <point x="289" y="-6" type="curve" smooth="yes"/>
      <point x="365" y="-6"/>
      <point x="422" y="6"/>
      <point x="478" y="25" type="curve"/>
      <point x="542" y="326" type="line"/>
      <point x="286" y="326" type="line"/>
      <point x="261" y="217" type="line"/>
      <point x="363" y="217" type="line"/>
      <point x="347" y="131" type="line"/>
      <point x="336" y="128"/>
      <point x="326" y="125"/>
      <point x="311" y="125" type="curve" smooth="yes"/>
      <point x="235" y="125"/>
      <point x="193" y="166"/>
      <point x="193" y="239" type="curve" smooth="yes"/>
      <point x="193" y="316"/>
      <point x="230" y="431"/>
      <point x="353" y="431" type="curve" smooth="yes"/>
      <point x="409" y="431"/>
      <point x="466" y="414"/>
      <point x="501" y="396" type="curve"/>
      <point x="555" y="522" type="line"/>
      <point x="516" y="541"/>
      <point x="433" y="564"/>
      <point x="357" y="564" type="curve" smooth="yes"/>
      <point x="114" y="564"/>
      <point x="36" y="375"/>
      <point x="36" y="231" type="curve" smooth="yes"/>
      <point x="36" y="84"/>
      <point x="139" y="-6"/>
    </contour>
  </outline>
</glyph>
<glyph name="uni0274" format="2">
  <advance width="687"/>
  <unicode hex="0274"/>
  <anchor x="285" y="0" name="bottom"/>
  <anchor x="403" y="553" name="top"/>
  <anchor x="679" y="553" name="topright"/>
  <outline>
    <contour>
      <point x="16" y="0" type="line"/>
      <point x="155" y="0" type="line"/>
      <point x="203" y="225" type="line" smooth="yes"/>
      <point x="214" y="275"/>
      <point x="223" y="355"/>
      <point x="227" y="392" type="curve"/>
      <point x="363" y="0" type="line"/>
      <point x="541" y="0" type="line"/>
      <point x="658" y="553" type="line"/>
      <point x="520" y="553" type="line"/>
      <point x="471" y="329" type="line" smooth="yes"/>
      <point x="462" y="292"/>
      <point x="449" y="210"/>
      <point x="445" y="182" type="curve"/>
      <point x="321" y="553" type="line"/>
      <point x="133" y="553" type="line"/>
    </contour>
  </outline>
</glyph>
<glyph name="uni0279" format="2">
  <advance width="437"/>
  <unicode hex="0279"/>
  <anchor x="160" y="0" name="bottom"/>
  <anchor x="278" y="553" name="top"/>
  <outline>
    <contour>
      <point x="-3" y="-10" type="curve" smooth="yes"/>
      <point x="72" y="-10"/>
      <point x="117" y="14"/>
      <point x="163" y="92" type="curve"/>
      <point x="167" y="92" type="line"/>
      <point x="158" y="0" type="line"/>
      <point x="309" y="0" type="line"/>
      <point x="426" y="553" type="line"/>
      <point x="237" y="553" type="line"/>
      <point x="185" y="310" type="line" smooth="yes"/>
      <point x="162" y="204"/>
      <point x="118" y="170"/>
      <point x="59" y="170" type="curve" smooth="yes"/>
      <point x="35" y="170"/>
      <point x="13" y="175"/>
      <point x="-1" y="181" type="curve"/>
      <point x="-42" y="-6" type="line"/>
      <point x="-36" y="-8"/>
      <point x="-17" y="-10"/>
    </contour>
  </outline>
</glyph>
<glyph name="uni0280" format="2">
  <advance width="575"/>
  <unicode hex="0280"/>
  <anchor x="229" y="0" name="bottom"/>
  <anchor x="347" y="553" name="top"/>
  <outline>
    <contour>
      <point x="20" y="0" type="line"/>
      <point x="177" y="0" type="line"/>
      <point x="219" y="197" type="line"/>
      <point x="272" y="197" type="line"/>
      <point x="348" y="0" type="line"/>
      <point x="517" y="0" type="line"/>
      <point x="413" y="226" type="line"/>
      <point x="494" y="249"/>
      <point x="547" y="302"/>
      <point x="547" y="389" type="curve" smooth="yes"/>
      <point x="547" y="493"/>
      <point x="479" y="553"/>
      <point x="324" y="553" type="curve" smooth="yes"/>
      <point x="137" y="553" type="line"/>
    </contour>
    <contour>
      <point x="246" y="325" type="line"/>
      <point x="268" y="425" type="line"/>
      <point x="328" y="425" type="line" smooth="yes"/>
      <point x="372" y="425"/>
      <point x="390" y="408"/>
      <point x="390" y="380" type="curve" smooth="yes"/>
      <point x="390" y="336"/>
      <point x="352" y="325"/>
      <point x="305" y="325" type="curve" smooth="yes"/>
    </contour>
  </outline>
</glyph>
<glyph name="uni0289" format="2">
  <advance width="622"/>
  <unicode hex="0289"/>
  <anchor x="248" y="0" name="bottom"/>
  <anchor x="363" y="553" name="top"/>
  <anchor x="661" y="553" name="topright"/>
  <outline>
    <contour>
      <point x="-11" y="249" type="line"/>
      <point x="620" y="249" type="line"/>
      <point x="645" y="361" type="line"/>
      <point x="14" y="361" type="line"/>
    </contour>
    <component base="u"/>
  </outline>
</glyph>
<glyph name="uni028F" format="2">
  <advance width="505"/>
  <unicode hex="028F"/>
  <anchor x="194" y="0" name="bottom"/>
  <anchor x="312" y="553" name="top"/>
  <outline>
    <contour>
      <point x="105" y="0" type="line"/>
      <point x="260" y="0" type="line"/>
      <point x="306" y="217" type="line"/>
      <point x="553" y="553" type="line"/>
      <point x="377" y="553" type="line"/>
      <point x="251" y="376" type="line"/>
      <point x="207" y="553" type="line"/>
      <point x="46" y="553" type="line"/>
      <point x="150" y="215" type="line"/>
    </contour>
  </outline>
</glyph>
<glyph name="kturned" format="2">
  <advance width="617"/>
  <unicode hex="029E"/>
  <anchor x="199" y="-240" name="bottom"/>
  <anchor x="368" y="553" name="top"/>
  <outline>
    <contour>
      <point x="251" y="-240" type="line"/>
      <point x="440" y="-240" type="line"/>
      <point x="606" y="553" type="line"/>
      <point x="417" y="553" type="line"/>
      <point x="383" y="388" type="line"/>
      <point x="334" y="362" type="line"/>
      <point x="266" y="553" type="line"/>
      <point x="52" y="553" type="line"/>
      <point x="186" y="250" type="line"/>
      <point x="-54" y="0" type="line"/>
      <point x="162" y="0" type="line"/>
      <point x="358" y="226" type="line"/>
      <point x="362" y="226" type="line"/>
      <point x="354" y="204"/>
      <point x="334" y="153"/>
      <point x="326" y="117" type="curve" smooth="yes"/>
    </contour>
  </outline>
</glyph>
<glyph name="uni02C8" format="2">
  <advance width="194"/>
  <unicode hex="02C8"/>
  <outline>
    <contour>
      <point x="87" y="496" type="line"/>
      <point x="201" y="496" type="line"/>
      <point x="260" y="776" type="line"/>
      <point x="146" y="776" type="line"/>
    </contour>
  </outline>
</glyph>
<glyph name="macron" format="2">
  <advance width="406"/>
  <unicode hex="02C9"/>
  <outline>
    <contour>
      <point x="110" y="606" type="line"/>
      <point x="436" y="606" type="line"/>
      <point x="460" y="721" type="line"/>
      <point x="135" y="721" type="line"/>
    </contour>
  </outline>
</glyph>
<glyph name="uni02EF" format="2">
  <advance width="374"/>
  <unicode hex="02EF"/>
  <outline>
    <contour>
      <point x="56" y="-240" type="line"/>
      <point x="99" y="-240" type="line"/>
      <point x="271" y="-18" type="line"/>
      <point x="198" y="-18" type="line"/>
      <point x="91" y="-152" type="line"/>
      <point x="42" y="-18" type="line"/>
      <point x="-23" y="-18" type="line"/>
    </contour>
  </outline>
</glyph>
<glyph name="uni02F2" format="2">
  <advance width="301"/>
  <unicode hex="02F2"/>
  <outline>
    <contour>
      <point x="-70" y="-240" type="line"/>
      <point x="174" y="-133" type="line"/>
      <point x="184" y="-84" type="line"/>
      <point x="-14" y="23" type="line"/>
      <point x="-29" y="-46" type="line"/>
      <point x="102" y="-109" type="line"/>
      <point x="-55" y="-171" type="line"/>
    </contour>
  </outline>
</glyph>
<glyph name="uni02F9" format="2">
  <advance width="297"/>
  <unicode hex="02F9"/>
  <outline>
    <contour>
      <point x="126" y="435" type="line"/>
      <point x="179" y="435" type="line"/>
      <point x="179" y="628" type="line"/>
      <point x="332" y="628" type="line"/>
      <point x="332" y="681" type="line"/>
      <point x="126" y="681" type="line"/>
    </contour>
  </outline>
</glyph>
<glyph name="uni02FE" format="2">
  <advance width="561"/>
  <unicode hex="02FE"/>
  <outline>
    <contour>
      <point x="-28" y="-208" type="line"/>
      <point x="418" y="-208" type="line"/>
      <point x="418" y="-142" type="line"/>
      <point x="28" y="-142" type="line"/>
      <point x="28" y="-43" type="line"/>
      <point x="-28" y="-43" type="line"/>
    </contour>
  </outline>
</glyph>
<glyph name="dblverticallineabovecomb" format="2">
  <unicode hex="030E"/>
  <anchor x="58" y="553" name="_top"/>
  <anchor x="88" y="776" name="top"/>
  <outline>
    <contour>
      <point x="101" y="596" type="line"/>
      <point x="215" y="596" type="line"/>
      <point x="253" y="776" type="line"/>
      <point x="139" y="776" type="line"/>
    </contour>
    <contour>
      <point x="-81" y="596" type="line"/>
      <point x="33" y="596" type="line"/>
      <point x="71" y="776" type="line"/>
      <point x="-43" y="776" type="line"/>
    </contour>
  </outline>
</glyph>
<glyph name="leftangleabovecomb" format="2">
  <unicode hex="031A"/>
  <anchor x="296" y="650" name="_topright"/>
  <outline>
    <contour>
      <point x="200" y="682" type="line"/>
      <point x="266" y="682" type="line"/>
      <point x="321" y="942" type="line"/>
      <point x="46" y="942" type="line"/>
      <point x="33" y="882" type="line"/>
      <point x="242" y="882" type="line"/>
    </contour>
  </outline>
</glyph>
<glyph name="horncomb" format="2">
  <unicode hex="031B"/>
  <anchor x="85" y="643" name="_topright"/>
  <outline>
    <contour>
      <point x="-76" y="523" type="line"/>
      <point x="121" y="532"/>
      <point x="203" y="632"/>
      <point x="246" y="756" type="curve"/>
      <point x="240" y="769" type="line"/>
      <point x="55" y="769" type="line"/>
      <point x="43" y="685"/>
      <point x="27" y="649"/>
      <point x="-53" y="643" type="curve"/>
    </contour>
  </outline>
</glyph>
<glyph name="uptackbelowcomb" format="2">
  <unicode hex="031D"/>
  <anchor x="-70" y="0" name="_bottom"/>
  <anchor x="-96" y="-208" name="bottom"/>
  <outline>
    <contour>
      <point x="-208" y="-208" type="line"/>
      <point x="1" y="-208" type="line"/>
      <point x="14" y="-148" type="line"/>
      <point x="-57" y="-148" type="line"/>
      <point x="-36" y="-48" type="line"/>
      <point x="-102" y="-48" type="line"/>
      <point x="-123" y="-148" type="line"/>
      <point x="-195" y="-148" type="line"/>
    </contour>
  </outline>
</glyph>
<glyph name="plusbelowcomb" format="2">
  <unicode hex="031F"/>
  <anchor x="-59" y="0" name="_bottom"/>
  <anchor x="-105" y="-228" name="bottom"/>
  <outline>
    <contour>
      <point x="-137" y="-228" type="line"/>
      <point x="-71" y="-228" type="line"/>
      <point x="-56" y="-158" type="line"/>
      <point x="15" y="-158" type="line"/>
      <point x="27" y="-98" type="line"/>
      <point x="-44" y="-98" type="line"/>
      <point x="-29" y="-28" type="line"/>
      <point x="-95" y="-28" type="line"/>
      <point x="-110" y="-98" type="line"/>
      <point x="-182" y="-98" type="line"/>
      <point x="-194" y="-158" type="line"/>
      <point x="-122" y="-158" type="line"/>
    </contour>
  </outline>
</glyph>
<glyph name="dotbelowcomb" format="2">
  <unicode hex="0323"/>
  <anchor x="-342" y="0" name="_bottom"/>
  <anchor x="-372" y="-235" name="bottom"/>
  <outline>
    <contour>
      <point x="-382" y="-235" type="curve" smooth="yes"/>
      <point x="-300" y="-235"/>
      <point x="-272" y="-193"/>
      <point x="-272" y="-133" type="curve" smooth="yes"/>
      <point x="-272" y="-77"/>
      <point x="-320" y="-64"/>
      <point x="-365" y="-64" type="curve" smooth="yes"/>
      <point x="-434" y="-64"/>
      <point x="-476" y="-94"/>
      <point x="-476" y="-165" type="curve" smooth="yes"/>
      <point x="-476" y="-220"/>
      <point x="-435" y="-235"/>
    </contour>
  </outline>
</glyph>
<glyph name="bridgebelowcomb" format="2">
  <unicode hex="032A"/>
  <anchor x="-59" y="0" name="_bottom"/>
  <anchor x="-86" y="-218" name="bottom"/>
  <outline>
    <contour>
      <point x="-283" y="-218" type="line"/>
      <point x="-217" y="-218" type="line"/>
      <point x="-193" y="-108" type="line"/>
      <point x="30" y="-108" type="line"/>
      <point x="6" y="-218" type="line"/>
      <point x="72" y="-218" type="line"/>
      <point x="108" y="-48" type="line"/>
      <point x="-247" y="-48" type="line"/>
    </contour>
  </outline>
</glyph>
<glyph name="lowlinecomb" format="2">
  <unicode hex="0332"/>
  <anchor x="-63" y="0" name="_bottom"/>
  <anchor x="-88" y="-185" name="bottom"/>
  <outline>
    <contour>
      <point x="-331" y="-185" type="line"/>
      <point x="123" y="-185" type="line"/>
      <point x="151" y="-65" type="line"/>
      <point x="-303" y="-65" type="line"/>
    </contour>
  </outline>
</glyph>
<glyph name="strokelongoverlaycomb" format="2">
  <unicode hex="0336"/>
  <anchor x="2" y="284" name="_center"/>
  <outline>
    <contour>
      <point x="-385" y="223" type="line"/>
      <point x="364" y="223" type="line"/>
      <point x="388" y="345" type="line"/>
      <point x="-361" y="345" type="line"/>
    </contour>
  </outline>
</glyph>
<glyph name="slashlongoverlaycomb" format="2">
  <unicode hex="0338"/>
  <anchor x="-1" y="352" name="_center"/>
  <outline>
    <contour>
      <point x="-289" y="-58" type="line"/>
      <point x="-180" y="-58" type="line"/>
      <point x="288" y="761" type="line"/>
      <point x="178" y="761" type="line"/>
    </contour>
  </outline>
</glyph>
<glyph name="squarebelowcomb" format="2">
  <unicode hex="033B"/>
  <anchor x="-55" y="0" name="_bottom"/>
  <anchor x="-80" y="-228" name="bottom"/>
  <outline>
    <contour>
      <point x="-273" y="-228" type="line"/>
      <point x="66" y="-228" type="line"/>
      <point x="109" y="-28" type="line"/>
      <point x="-230" y="-28" type="line"/>
    </contour>
    <contour>
      <point x="-206" y="-175" type="line"/>
      <point x="-186" y="-81" type="line"/>
      <point x="41" y="-81" type="line"/>
      <point x="21" y="-175" type="line"/>
    </contour>
  </outline>
</glyph>
<glyph name="ypogegrammenicomb" format="2">
  <unicode hex="0345"/>
  <anchor x="-58" y="0" name="_bottom"/>
  <anchor x="-54" y="-240" name="bottom"/>
  <outline>
    <contour>
      <point x="-46" y="-240" type="curve" smooth="yes"/>
      <point x="-15" y="-240"/>
      <point x="13" y="-235"/>
      <point x="25" y="-231" type="curve"/>
      <point x="25" y="-153" type="line"/>
      <point x="19" y="-155"/>
      <point x="7" y="-158"/>
      <point x="-4" y="-158" type="curve" smooth="yes"/>
      <point x="-15" y="-158"/>
      <point x="-24" y="-150"/>
      <point x="-24" y="-139" type="curve" smooth="yes"/>
      <point x="-24" y="-134"/>
      <point x="-23" y="-125"/>
      <point x="-21" y="-116" type="curve" smooth="yes"/>
      <point x="-10" y="-62" type="line"/>
      <point x="-119" y="-62" type="line"/>
      <point x="-134" y="-130" type="line" smooth="yes"/>
      <point x="-136" y="-139"/>
      <point x="-137" y="-148"/>
      <point x="-137" y="-160" type="curve" smooth="yes"/>
      <point x="-137" y="-207"/>
      <point x="-107" y="-240"/>
    </contour>
  </outline>
</glyph>
<glyph name="gbridgeabovecomb" format="2">
  <unicode hex="0346"/>
  <anchor x="58" y="553" name="_top"/>
  <anchor x="86" y="762" name="top"/>
  <outline>
    <contour>
      <point x="-137" y="592" type="line"/>
      <point x="-71" y="592" type="line"/>
      <point x="-48" y="702" type="line"/>
      <point x="227" y="702" type="line"/>
      <point x="203" y="592" type="line"/>
      <point x="269" y="592" type="line"/>
      <point x="305" y="762" type="line"/>
      <point x="-101" y="762" type="line"/>
    </contour>
  </outline>
</glyph>
<glyph name="arrowheadrightbelowcomb" format="2">
  <unicode hex="0355"/>
  <anchor x="-12" y="0" name="_bottom"/>
  <anchor x="-40" y="-240" name="bottom"/>
  <outline>
    <contour>
      <point x="-124" y="-240" type="line"/>
      <point x="-113" y="-240" type="line"/>
      <point x="-74" y="-219"/>
      <point x="-7" y="-187"/>
      <point x="40" y="-175" type="curve"/>
      <point x="40" y="-107" type="line"/>
      <point x="-7" y="-93"/>
      <point x="-74" y="-60"/>
      <point x="-113" y="-40" type="curve"/>
      <point x="-124" y="-40" type="line"/>
      <point x="-124" y="-90" type="line"/>
      <point x="-97" y="-107"/>
      <point x="-69" y="-122"/>
      <point x="-32" y="-140" type="curve"/>
      <point x="-69" y="-158"/>
      <point x="-100" y="-173"/>
      <point x="-124" y="-189" type="curve"/>
    </contour>
  </outline>
</glyph>
<glyph name="doublemacroncomb" format="2">
  <unicode hex="035E"/>
  <anchor x="251" y="553" name="_top"/>
  <anchor x="276" y="721" name="top"/>
  <outline>
    <contour>
      <point x="-14" y="606" type="line"/>
      <point x="538" y="606" type="line"/>
      <point x="562" y="721" type="line"/>
      <point x="10" y="721" type="line"/>
    </contour>
  </outline>
</glyph>
<glyph name="tildedoublecomb" format="2">
  <unicode hex="0360"/>
  <anchor x="330" y="553" name="_top"/>
  <anchor x="362" y="774" name="top"/>
  <outline>
    <contour>
      <point x="-55" y="607" type="curve"/>
      <point x="34" y="607" type="line"/>
      <point x="55" y="642"/>
      <point x="98" y="658"/>
      <point x="125" y="658" type="curve" smooth="yes"/>
      <point x="272" y="658"/>
      <point x="393" y="608"/>
      <point x="558" y="608" type="curve" smooth="yes"/>
      <point x="648" y="608"/>
      <point x="743" y="663"/>
      <point x="774" y="774" type="curve"/>
      <point x="685" y="774" type="line"/>
      <point x="663" y="740"/>
      <point x="623" y="724"/>
      <point x="595" y="724" type="curve" smooth="yes"/>
      <point x="441" y="724"/>
      <point x="335" y="774"/>
      <point x="158" y="774" type="curve" smooth="yes"/>
      <point x="73" y="774"/>
      <point x="-18" y="721"/>
    </contour>
  </outline>
</glyph>
<glyph name="Heta" format="2">
  <advance width="514"/>
  <unicode hex="0370"/>
  <anchor x="198" y="0" name="bottom"/>
  <anchor x="350" y="714" name="top"/>
  <outline>
    <contour>
      <point x="16" y="0" type="line"/>
      <point x="207" y="0" type="line"/>
      <point x="269" y="291" type="line"/>
      <point x="458" y="291" type="line"/>
      <point x="493" y="449" type="line"/>
      <point x="303" y="449" type="line"/>
      <point x="358" y="714" type="line"/>
      <point x="167" y="714" type="line"/>
    </contour>
  </outline>
</glyph>
<glyph name="heta" format="2">
  <advance width="465"/>
  <unicode hex="0371"/>
  <anchor x="174" y="0" name="bottom"/>
  <anchor x="292" y="553" name="top"/>
  <outline>
    <contour>
      <point x="11" y="0" type="line"/>
      <point x="200" y="0" type="line"/>
      <point x="246" y="215" type="line"/>
      <point x="405" y="215" type="line"/>
      <point x="434" y="353" type="line"/>
      <point x="276" y="353" type="line"/>
      <point x="318" y="553" type="line"/>
      <point x="129" y="553" type="line"/>
    </contour>
  </outline>
</glyph>
<glyph name="Archaicsampi" format="2">
  <advance width="694"/>
  <unicode hex="0372"/>
  <anchor x="288" y="0" name="bottom"/>
  <anchor x="440" y="714" name="top"/>
  <outline>
    <contour>
      <point x="192" y="0" type="line"/>
      <point x="383" y="0" type="line"/>
      <point x="497" y="561" type="line"/>
      <point x="658" y="561" type="line"/>
      <point x="692" y="714" type="line"/>
      <point x="182" y="714" type="line"/>
      <point x="147" y="561" type="line"/>
      <point x="308" y="561" type="line"/>
    </contour>
    <contour>
      <point x="75" y="412" type="line"/>
      <point x="235" y="412" type="line"/>
      <point x="299" y="714" type="line"/>
      <point x="139" y="714" type="line"/>
    </contour>
    <contour>
      <point x="508" y="412" type="line"/>
      <point x="668" y="412" type="line"/>
      <point x="732" y="714" type="line"/>
      <point x="572" y="714" type="line"/>
    </contour>
  </outline>
</glyph>
<glyph name="archaicsampi" format="2">
  <advance width="689"/>
  <unicode hex="0373"/>
  <anchor x="286" y="0" name="bottom"/>
  <anchor x="448" y="758" name="top"/>
  <outline>
    <contour>
      <point x="187" y="0" type="line"/>
      <point x="374" y="0" type="line"/>
      <point x="502" y="611" type="line"/>
      <point x="594" y="611" type="line"/>
      <point x="627" y="758" type="line"/>
      <point x="252" y="758" type="line"/>
      <point x="219" y="611" type="line"/>
      <point x="316" y="611" type="line"/>
    </contour>
    <contour>
      <point x="69" y="461" type="line"/>
      <point x="229" y="461" type="line"/>
      <point x="296" y="758" type="line"/>
      <point x="136" y="758" type="line"/>
    </contour>
    <contour>
      <point x="533" y="461" type="line"/>
      <point x="694" y="461" type="line"/>
      <point x="761" y="758" type="line"/>
      <point x="600" y="758" type="line"/>
    </contour>
  </outline>
</glyph>
<glyph name="uni0375" format="2">
  <advance width="284"/>
  <unicode hex="0375"/>
  <outline>
    <contour>
      <point x="-75" y="-221" type="line"/>
      <point x="102" y="-221" type="line"/>
      <point x="115" y="-178"/>
      <point x="138" y="-117"/>
      <point x="155" y="-74" type="curve"/>
      <point x="155" y="-61" type="line"/>
      <point x="39" y="-61" type="line"/>
      <point x="-5" y="-109"/>
      <point x="-43" y="-158"/>
      <point x="-75" y="-211" type="curve"/>
    </contour>
  </outline>
</glyph>
<glyph name="pamphyliandigamma" format="2">
  <advance width="724"/>
  <unicode hex="0377"/>
  <anchor x="303" y="0" name="bottom"/>
  <anchor x="421" y="553" name="top"/>
  <outline>
    <contour>
      <point x="23" y="0" type="line"/>
      <point x="239" y="0" type="line"/>
      <point x="500" y="341" type="line"/>
      <point x="481" y="298"/>
      <point x="466" y="247"/>
      <point x="454" y="193" type="curve" smooth="yes"/>
      <point x="416" y="0" type="line"/>
      <point x="595" y="0" type="line"/>
      <point x="713" y="552" type="line"/>
      <point x="495" y="552" type="line"/>
      <point x="234" y="211" type="line"/>
      <point x="256" y="258"/>
      <point x="272" y="320"/>
      <point x="286" y="385" type="curve" smooth="yes"/>
      <point x="319" y="552" type="line"/>
      <point x="140" y="552" type="line"/>
    </contour>
  </outline>
</glyph>
<glyph name="tonos" format="2">
  <advance width="548"/>
  <unicode hex="0384"/>
  <anchor x="326" y="553" name="_top"/>
  <outline>
    <contour>
      <point x="257" y="618" type="curve"/>
      <point x="257" y="606" type="line"/>
      <point x="370" y="606" type="line"/>
      <point x="423" y="672"/>
      <point x="457" y="725"/>
      <point x="494" y="784" type="curve"/>
      <point x="494" y="796" type="line"/>
      <point x="324" y="796" type="line"/>
      <point x="309" y="744"/>
      <point x="279" y="664"/>
    </contour>
  </outline>
</glyph>
<glyph name="dieresistonos" format="2">
  <advance width="548"/>
  <unicode hex="0385"/>
  <anchor x="347" y="553" name="_top"/>
  <outline>
    <contour>
      <point x="305" y="688" type="curve"/>
      <point x="305" y="678" type="line"/>
      <point x="397" y="678" type="line"/>
      <point x="442" y="734"/>
      <point x="470" y="778"/>
      <point x="499" y="828" type="curve"/>
      <point x="499" y="838" type="line"/>
      <point x="353" y="838" type="line"/>
      <point x="344" y="796"/>
      <point x="323" y="728"/>
    </contour>
    <contour>
      <point x="201" y="614" type="curve" smooth="yes"/>
      <point x="265" y="614"/>
      <point x="287" y="651"/>
      <point x="287" y="706" type="curve" smooth="yes"/>
      <point x="287" y="757"/>
      <point x="249" y="767"/>
      <point x="215" y="767" type="curve" smooth="yes"/>
      <point x="160" y="767"/>
      <point x="129" y="740"/>
      <point x="129" y="676" type="curve" smooth="yes"/>
      <point x="129" y="627"/>
      <point x="160" y="614"/>
    </contour>
    <contour>
      <point x="526" y="614" type="curve" smooth="yes"/>
      <point x="590" y="614"/>
      <point x="612" y="651"/>
      <point x="612" y="706" type="curve" smooth="yes"/>
      <point x="612" y="757"/>
      <point x="574" y="767"/>
      <point x="540" y="767" type="curve" smooth="yes"/>
      <point x="485" y="767"/>
      <point x="454" y="740"/>
      <point x="454" y="676" type="curve" smooth="yes"/>
      <point x="454" y="627"/>
      <point x="485" y="614"/>
    </contour>
  </outline>
</glyph>
<glyph name="Delta" format="2">
  <advance width="662"/>
  <unicode hex="0394"/>
  <anchor x="272" y="0" name="bottom"/>
  <anchor x="424" y="714" name="top"/>
  <outline>
    <contour>
      <point x="-35" y="0" type="line"/>
      <point x="568" y="0" type="line"/>
      <point x="592" y="110" type="line"/>
      <point x="541" y="714" type="line"/>
      <point x="305" y="714" type="line"/>
      <point x="-13" y="110" type="line"/>
    </contour>
    <contour>
      <point x="199" y="152" type="line"/>
      <point x="370" y="506" type="line" smooth="yes"/>
      <point x="377" y="520"/>
      <point x="395" y="569"/>
      <point x="400" y="587" type="curve"/>
      <point x="397" y="546"/>
      <point x="399" y="590"/>
      <point x="399" y="481" type="curve" smooth="yes"/>
      <point x="409" y="152" type="line"/>
    </contour>
  </outline>
</glyph>
<glyph name="Theta" format="2">
  <advance width="767"/>
  <unicode hex="0398"/>
  <anchor x="325" y="0" name="bottom"/>
  <anchor x="477" y="714" name="top"/>
  <outline>
    <contour>
      <point x="347" y="-10" type="curve" smooth="yes"/>
      <point x="608" y="-9"/>
      <point x="736" y="228"/>
      <point x="736" y="441" type="curve" smooth="yes"/>
      <point x="736" y="616"/>
      <point x="640" y="725"/>
      <point x="446" y="725" type="curve" smooth="yes"/>
      <point x="179" y="725"/>
      <point x="51" y="487"/>
      <point x="51" y="281" type="curve" smooth="yes"/>
      <point x="51" y="99"/>
      <point x="147" y="-10"/>
    </contour>
    <contour>
      <point x="353" y="148" type="curve" smooth="yes"/>
      <point x="281" y="148"/>
      <point x="244" y="189"/>
      <point x="244" y="276" type="curve" smooth="yes"/>
      <point x="244" y="427"/>
      <point x="323" y="567"/>
      <point x="435" y="567" type="curve" smooth="yes"/>
      <point x="507" y="567"/>
      <point x="543" y="511"/>
      <point x="543" y="437" type="curve" smooth="yes"/>
      <point x="543" y="273"/>
      <point x="465" y="148"/>
    </contour>
    <contour>
      <point x="285" y="286" type="line"/>
      <point x="474" y="286" type="line"/>
      <point x="508" y="436" type="line"/>
      <point x="319" y="436" type="line"/>
    </contour>
  </outline>
</glyph>
<glyph name="Lambda" format="2">
  <advance width="617"/>
  <unicode hex="039B"/>
  <anchor x="250" y="0" name="bottom"/>
  <anchor x="402" y="714" name="top"/>
  <outline>
    <contour>
      <point x="-57" y="0" type="line"/>
      <point x="145" y="0" type="line"/>
      <point x="315" y="393" type="line" smooth="yes"/>
      <point x="335" y="438"/>
      <point x="353" y="490"/>
      <point x="365" y="531" type="curve"/>
      <point x="361" y="485"/>
      <point x="360" y="408"/>
      <point x="362" y="347" type="curve" smooth="yes"/>
      <point x="374" y="0" type="line"/>
      <point x="561" y="0" type="line"/>
      <point x="509" y="714" type="line"/>
      <point x="296" y="714" type="line"/>
    </contour>
  </outline>
</glyph>
<glyph name="Xi" format="2">
  <advance width="556"/>
  <unicode hex="039E"/>
  <anchor x="219" y="0" name="bottom"/>
  <anchor x="371" y="714" name="top"/>
  <outline>
    <contour>
      <point x="-20" y="0" type="line"/>
      <point x="453" y="0" type="line"/>
      <point x="485" y="157" type="line"/>
      <point x="11" y="157" type="line"/>
    </contour>
    <contour>
      <point x="79" y="292" type="line"/>
      <point x="464" y="292" type="line"/>
      <point x="499" y="447" type="line"/>
      <point x="115" y="447" type="line"/>
    </contour>
    <contour>
      <point x="107" y="559" type="line"/>
      <point x="552" y="559" type="line"/>
      <point x="585" y="714" type="line"/>
      <point x="140" y="714" type="line"/>
    </contour>
  </outline>
</glyph>
<glyph name="Sigma" format="2">
  <advance width="552"/>
  <unicode hex="03A3"/>
  <anchor x="217" y="0" name="bottom"/>
  <anchor x="369" y="714" name="top"/>
  <outline>
    <contour>
      <point x="-30" y="0" type="line"/>
      <point x="464" y="0" type="line"/>
      <point x="496" y="156" type="line"/>
      <point x="244" y="156" type="line"/>
      <point x="458" y="360" type="line"/>
      <point x="316" y="558" type="line"/>
      <point x="554" y="558" type="line"/>
      <point x="587" y="714" type="line"/>
      <point x="126" y="714" type="line"/>
      <point x="97" y="579" type="line"/>
      <point x="247" y="372" type="line"/>
      <point x="-2" y="137" type="line"/>
    </contour>
  </outline>
</glyph>
<glyph name="Phi" format="2">
  <advance width="846"/>
  <unicode hex="03A6"/>
  <anchor x="364" y="0" name="bottom"/>
  <anchor x="516" y="714" name="top"/>
  <outline>
    <contour>
      <point x="261" y="-10" type="line"/>
      <point x="441" y="-10" type="line"/>
      <point x="465" y="100" type="line"/>
      <point x="710" y="110"/>
      <point x="820" y="222"/>
      <point x="820" y="405" type="curve" smooth="yes"/>
      <point x="820" y="519"/>
      <point x="746" y="619"/>
      <point x="579" y="636" type="curve"/>
      <point x="597" y="724" type="line"/>
      <point x="417" y="724" type="line"/>
      <point x="399" y="636" type="line"/>
      <point x="151" y="626"/>
      <point x="45" y="500"/>
      <point x="45" y="331" type="curve" smooth="yes"/>
      <point x="45" y="221"/>
      <point x="113" y="117"/>
      <point x="285" y="100" type="curve"/>
    </contour>
    <contour>
      <point x="317" y="245" type="line"/>
      <point x="245" y="251"/>
      <point x="233" y="295"/>
      <point x="233" y="341" type="curve" smooth="yes"/>
      <point x="233" y="439"/>
      <point x="286" y="486"/>
      <point x="368" y="490" type="curve"/>
    </contour>
    <contour>
      <point x="497" y="246" type="curve"/>
      <point x="548" y="490" type="line"/>
      <point x="609" y="483"/>
      <point x="632" y="445"/>
      <point x="632" y="394" type="curve" smooth="yes"/>
      <point x="632" y="308"/>
      <point x="592" y="248"/>
    </contour>
  </outline>
</glyph>
<glyph name="Psi" format="2">
  <advance width="882"/>
  <unicode hex="03A8"/>
  <anchor x="382" y="0" name="bottom"/>
  <anchor x="534" y="714" name="top"/>
  <outline>
    <contour>
      <point x="285" y="0" type="line"/>
      <point x="465" y="0" type="line"/>
      <point x="507" y="194" type="line"/>
      <point x="511" y="194" type="line"/>
      <point x="755" y="201"/>
      <point x="820" y="290"/>
      <point x="853" y="439" type="curve" smooth="yes"/>
      <point x="913" y="714" type="line"/>
      <point x="728" y="714" type="line"/>
      <point x="675" y="463" type="line" smooth="yes"/>
      <point x="655" y="367"/>
      <point x="618" y="350"/>
      <point x="552" y="350" type="curve" smooth="yes"/>
      <point x="540" y="350" type="line"/>
      <point x="616" y="714" type="line"/>
      <point x="436" y="714" type="line"/>
      <point x="359" y="350" type="line"/>
      <point x="353" y="350" type="line" smooth="yes"/>
      <point x="295" y="350"/>
      <point x="264" y="358"/>
      <point x="264" y="410" type="curve" smooth="yes"/>
      <point x="264" y="428"/>
      <point x="268" y="447"/>
      <point x="272" y="465" type="curve" smooth="yes"/>
      <point x="324" y="714" type="line"/>
      <point x="139" y="714" type="line"/>
      <point x="86" y="467" type="line" smooth="yes"/>
      <point x="82" y="448"/>
      <point x="78" y="416"/>
      <point x="78" y="393" type="curve" smooth="yes"/>
      <point x="78" y="261"/>
      <point x="176" y="198"/>
      <point x="322" y="194" type="curve"/>
      <point x="326" y="194" type="line"/>
    </contour>
  </outline>
</glyph>
<glyph name="alpha" format="2">
  <advance width="630"/>
  <unicode hex="03B1"/>
  <anchor x="288" y="0" name="bottom"/>
  <anchor x="374" y="553" name="top"/>
  <outline>
    <contour>
      <point x="205" y="-10" type="curve" smooth="yes"/>
      <point x="274" y="-10"/>
      <point x="309" y="32"/>
      <point x="334" y="67" type="curve"/>
      <point x="341" y="67" type="line"/>
      <point x="364" y="12"/>
      <point x="411" y="-10"/>
      <point x="477" y="-10" type="curve" smooth="yes"/>
      <point x="519" y="-10"/>
      <point x="555" y="-2"/>
      <point x="574" y="6" type="curve"/>
      <point x="574" y="147" type="line"/>
      <point x="568" y="145"/>
      <point x="553" y="141"/>
      <point x="542" y="141" type="curve" smooth="yes"/>
      <point x="523" y="141"/>
      <point x="511" y="150"/>
      <point x="511" y="171" type="curve" smooth="yes"/>
      <point x="511" y="184"/>
      <point x="514" y="202"/>
      <point x="518" y="218" type="curve" smooth="yes"/>
      <point x="544" y="334" type="line" smooth="yes"/>
      <point x="559" y="403"/>
      <point x="593" y="495"/>
      <point x="630" y="553" type="curve"/>
      <point x="466" y="553" type="line"/>
      <point x="446" y="534"/>
      <point x="428" y="504"/>
      <point x="419" y="482" type="curve"/>
      <point x="415" y="482" type="line"/>
      <point x="395" y="523"/>
      <point x="364" y="563"/>
      <point x="289" y="563" type="curve" smooth="yes"/>
      <point x="109" y="563"/>
      <point x="41" y="331"/>
      <point x="41" y="201" type="curve" smooth="yes"/>
      <point x="41" y="67"/>
      <point x="98" y="-10"/>
    </contour>
    <contour>
      <point x="275" y="142" type="curve" smooth="yes"/>
      <point x="250" y="142"/>
      <point x="234" y="166"/>
      <point x="234" y="212" type="curve" smooth="yes"/>
      <point x="234" y="293"/>
      <point x="266" y="411"/>
      <point x="331" y="411" type="curve" smooth="yes"/>
      <point x="353" y="411"/>
      <point x="367" y="392"/>
      <point x="367" y="348" type="curve" smooth="yes"/>
      <point x="367" y="316"/>
      <point x="362" y="278"/>
      <point x="353" y="244" type="curve" smooth="yes"/>
      <point x="338" y="189"/>
      <point x="311" y="142"/>
    </contour>
  </outline>
</glyph>
<glyph name="gamma" format="2">
  <advance width="547"/>
  <unicode hex="03B3"/>
  <anchor x="164" y="-240" name="bottom"/>
  <anchor x="333" y="553" name="top"/>
  <anchor x="586" y="553" name="topright"/>
  <outline>
    <contour>
      <point x="22" y="-240" type="curve"/>
      <point x="219" y="-240" type="line"/>
      <point x="238" y="-152"/>
      <point x="269" y="-64"/>
      <point x="347" y="79" type="curve" smooth="yes"/>
      <point x="605" y="553" type="line"/>
      <point x="403" y="553" type="line"/>
      <point x="308" y="353" type="line" smooth="yes"/>
      <point x="282" y="298"/>
      <point x="258" y="246"/>
      <point x="245" y="207" type="curve"/>
      <point x="241" y="207" type="line"/>
      <point x="241" y="296"/>
      <point x="244" y="262"/>
      <point x="240" y="347" type="curve" smooth="yes"/>
      <point x="230" y="553" type="line"/>
      <point x="46" y="553" type="line"/>
      <point x="110" y="8" type="line"/>
      <point x="65" y="-77"/>
      <point x="39" y="-158"/>
    </contour>
  </outline>
</glyph>
<glyph name="delta" format="2">
  <advance width="598"/>
  <unicode hex="03B4"/>
  <anchor x="240" y="0" name="bottom"/>
  <anchor x="403" y="765" name="top"/>
  <outline>
    <contour>
      <point x="255" y="-10" type="curve" smooth="yes"/>
      <point x="447" y="-10"/>
      <point x="548" y="111"/>
      <point x="548" y="278" type="curve" smooth="yes"/>
      <point x="548" y="359"/>
      <point x="516" y="425"/>
      <point x="442" y="489" type="curve" smooth="yes"/>
      <point x="379" y="544"/>
      <point x="364" y="562"/>
      <point x="364" y="588" type="curve" smooth="yes"/>
      <point x="364" y="607"/>
      <point x="376" y="627"/>
      <point x="417" y="627" type="curve" smooth="yes"/>
      <point x="453" y="627"/>
      <point x="508" y="612"/>
      <point x="563" y="576" type="curve"/>
      <point x="638" y="711" type="line"/>
      <point x="573" y="748"/>
      <point x="511" y="765"/>
      <point x="419" y="765" type="curve" smooth="yes"/>
      <point x="288" y="765"/>
      <point x="177" y="712"/>
      <point x="177" y="591" type="curve" smooth="yes"/>
      <point x="177" y="529"/>
      <point x="208" y="481"/>
      <point x="240" y="450" type="curve"/>
      <point x="111" y="405"/>
      <point x="28" y="319"/>
      <point x="28" y="186" type="curve" smooth="yes"/>
      <point x="28" y="72"/>
      <point x="95" y="-10"/>
    </contour>
    <contour>
      <point x="267" y="132" type="curve" smooth="yes"/>
      <point x="235" y="132"/>
      <point x="218" y="158"/>
      <point x="218" y="202" type="curve" smooth="yes"/>
      <point x="218" y="275"/>
      <point x="258" y="334"/>
      <point x="317" y="363" type="curve"/>
      <point x="338" y="346"/>
      <point x="358" y="313"/>
      <point x="358" y="270" type="curve" smooth="yes"/>
      <point x="358" y="189"/>
      <point x="314" y="132"/>
    </contour>
  </outline>
</glyph>
<glyph name="epsilon" format="2">
  <advance width="557"/>
  <unicode hex="03B5"/>
  <anchor x="220" y="0" name="bottom"/>
  <anchor x="361" y="553" name="top"/>
  <outline>
    <contour>
      <point x="260" y="-10" type="curve" smooth="yes"/>
      <point x="357" y="-10"/>
      <point x="424" y="4"/>
      <point x="473" y="28" type="curve"/>
      <point x="473" y="173" type="line"/>
      <point x="433" y="154"/>
      <point x="386" y="132"/>
      <point x="309" y="132" type="curve" smooth="yes"/>
      <point x="239" y="132"/>
      <point x="216" y="156"/>
      <point x="216" y="179" type="curve" smooth="yes"/>
      <point x="216" y="209"/>
      <point x="257" y="225"/>
      <point x="329" y="225" type="curve" smooth="yes"/>
      <point x="413" y="225" type="line"/>
      <point x="439" y="349" type="line"/>
      <point x="369" y="349" type="line" smooth="yes"/>
      <point x="299" y="349"/>
      <point x="278" y="364"/>
      <point x="278" y="386" type="curve" smooth="yes"/>
      <point x="278" y="414"/>
      <point x="308" y="425"/>
      <point x="364" y="425" type="curve" smooth="yes"/>
      <point x="407" y="425"/>
      <point x="469" y="409"/>
      <point x="515" y="384" type="curve"/>
      <point x="571" y="518" type="line"/>
      <point x="510" y="546"/>
      <point x="443" y="563"/>
      <point x="351" y="563" type="curve" smooth="yes"/>
      <point x="187" y="563"/>
      <point x="98" y="502"/>
      <point x="98" y="408" type="curve" smooth="yes"/>
      <point x="98" y="351"/>
      <point x="133" y="316"/>
      <point x="186" y="297" type="curve"/>
      <point x="186" y="293" type="line"/>
      <point x="72" y="276"/>
      <point x="20" y="231"/>
      <point x="20" y="150" type="curve" smooth="yes"/>
      <point x="20" y="49"/>
      <point x="117" y="-10"/>
    </contour>
  </outline>
</glyph>
<glyph name="zeta" format="2">
  <advance width="478"/>
  <unicode hex="03B6"/>
  <anchor x="141" y="-185" name="bottom"/>
  <anchor x="342" y="760" name="top"/>
  <outline>
    <contour>
      <point x="146" y="-185" type="curve"/>
      <point x="347" y="-185" type="line"/>
      <point x="403" y="-129"/>
      <point x="441" y="-76"/>
      <point x="441" y="-5" type="curve" smooth="yes"/>
      <point x="441" y="67"/>
      <point x="394" y="118"/>
      <point x="312" y="160" type="curve" smooth="yes"/>
      <point x="246" y="194"/>
      <point x="224" y="220"/>
      <point x="224" y="258" type="curve" smooth="yes"/>
      <point x="224" y="343"/>
      <point x="254" y="436"/>
      <point x="553" y="656" type="curve"/>
      <point x="576" y="760" type="line"/>
      <point x="156" y="760" type="line"/>
      <point x="125" y="622" type="line"/>
      <point x="230" y="622" type="line" smooth="yes"/>
      <point x="254" y="622"/>
      <point x="291" y="623"/>
      <point x="312" y="628" type="curve"/>
      <point x="125" y="498"/>
      <point x="32" y="358"/>
      <point x="32" y="229" type="curve" smooth="yes"/>
      <point x="32" y="148"/>
      <point x="61" y="85"/>
      <point x="151" y="35" type="curve" smooth="yes"/>
      <point x="217" y="-2"/>
      <point x="243" y="-13"/>
      <point x="243" y="-51" type="curve" smooth="yes"/>
      <point x="243" y="-86"/>
      <point x="202" y="-134"/>
    </contour>
  </outline>
</glyph>
<glyph name="theta" format="2">
  <advance width="612"/>
  <unicode hex="03B8"/>
  <anchor x="247" y="0" name="bottom"/>
  <anchor x="411" y="771" name="top"/>
  <anchor x="697" y="771" name="topright"/>
  <outline>
    <contour>
      <point x="259" y="-10" type="curve" smooth="yes"/>
      <point x="386" y="-10"/>
      <point x="465" y="62"/>
      <point x="516" y="170" type="curve" smooth="yes"/>
      <point x="566" y="275"/>
      <point x="594" y="426"/>
      <point x="594" y="539" type="curve" smooth="yes"/>
      <point x="594" y="675"/>
      <point x="531" y="771"/>
      <point x="394" y="771" type="curve" smooth="yes"/>
      <point x="262" y="771"/>
      <point x="173" y="699"/>
      <point x="117" y="571" type="curve" smooth="yes"/>
      <point x="75" y="477"/>
      <point x="47" y="318"/>
      <point x="47" y="217" type="curve" smooth="yes"/>
      <point x="47" y="80"/>
      <point x="113" y="-10"/>
    </contour>
    <contour>
      <point x="269" y="128" type="curve" smooth="yes"/>
      <point x="240" y="128"/>
      <point x="226" y="153"/>
      <point x="226" y="192" type="curve" smooth="yes"/>
      <point x="226" y="218"/>
      <point x="230" y="264"/>
      <point x="238" y="315" type="curve"/>
      <point x="377" y="315" type="line"/>
      <point x="356" y="229"/>
      <point x="317" y="128"/>
    </contour>
    <contour>
      <point x="406" y="453" type="curve"/>
      <point x="267" y="453" type="line"/>
      <point x="303" y="582"/>
      <point x="338" y="633"/>
      <point x="374" y="633" type="curve" smooth="yes"/>
      <point x="401" y="633"/>
      <point x="415" y="611"/>
      <point x="415" y="567" type="curve" smooth="yes"/>
      <point x="415" y="531"/>
      <point x="411" y="492"/>
    </contour>
  </outline>
</glyph>
<glyph name="iota" format="2">
  <advance width="399"/>
  <unicode hex="03B9"/>
  <anchor x="141" y="0" name="bottom"/>
  <anchor x="228" y="553" name="top"/>
  <anchor x="79" y="553" name="topleft"/>
  <outline>
    <contour>
      <point x="197" y="-10" type="curve" smooth="yes"/>
      <point x="258" y="-10"/>
      <point x="307" y="-1"/>
      <point x="349" y="19" type="curve"/>
      <point x="349" y="158" type="line"/>
      <point x="319" y="146"/>
      <point x="289" y="142"/>
      <point x="266" y="142" type="curve" smooth="yes"/>
      <point x="250" y="142"/>
      <point x="240" y="152"/>
      <point x="240" y="167" type="curve" smooth="yes"/>
      <point x="240" y="177"/>
      <point x="242" y="189"/>
      <point x="246" y="208" type="curve" smooth="yes"/>
      <point x="321" y="553" type="line"/>
      <point x="132" y="553" type="line"/>
      <point x="52" y="189" type="line" smooth="yes"/>
      <point x="47" y="166"/>
      <point x="42" y="135"/>
      <point x="42" y="118" type="curve" smooth="yes"/>
      <point x="42" y="17"/>
      <point x="99" y="-10"/>
    </contour>
  </outline>
</glyph>
<glyph name="lambda" format="2">
  <advance width="604"/>
  <unicode hex="03BB"/>
  <anchor x="243" y="0" name="bottom"/>
  <anchor x="406" y="766" name="top"/>
  <outline>
    <contour>
      <point x="450" y="-10" type="curve" smooth="yes"/>
      <point x="506" y="-10"/>
      <point x="538" y="-2"/>
      <point x="564" y="8" type="curve"/>
      <point x="564" y="147" type="line"/>
      <point x="548" y="143"/>
      <point x="541" y="142"/>
      <point x="531" y="142" type="curve" smooth="yes"/>
      <point x="495" y="142"/>
      <point x="478" y="165"/>
      <point x="462" y="274" type="curve" smooth="yes"/>
      <point x="417" y="573" type="line" smooth="yes"/>
      <point x="398" y="701"/>
      <point x="338" y="766"/>
      <point x="219" y="766" type="curve" smooth="yes"/>
      <point x="177" y="766"/>
      <point x="139" y="762"/>
      <point x="104" y="753" type="curve"/>
      <point x="127" y="617" type="line"/>
      <point x="141" y="620"/>
      <point x="160" y="624"/>
      <point x="176" y="624" type="curve" smooth="yes"/>
      <point x="205" y="624"/>
      <point x="230" y="601"/>
      <point x="235" y="539" type="curve" smooth="yes"/>
      <point x="237" y="513" type="line"/>
      <point x="-54" y="0" type="line"/>
      <point x="150" y="0" type="line"/>
      <point x="243" y="182" type="line" smooth="yes"/>
      <point x="240" y="177"/>
      <point x="280" y="273"/>
      <point x="283" y="279" type="curve"/>
      <point x="283" y="260"/>
      <point x="286" y="217"/>
      <point x="290" y="192" type="curve" smooth="yes"/>
      <point x="298" y="146" type="line" smooth="yes"/>
      <point x="315" y="49"/>
      <point x="352" y="-10"/>
    </contour>
  </outline>
</glyph>
<glyph name="nu" format="2">
  <advance width="578"/>
  <unicode hex="03BD"/>
  <anchor x="230" y="0" name="bottom"/>
  <anchor x="348" y="553" name="top"/>
  <outline>
    <contour>
      <point x="116" y="0" type="line"/>
      <point x="300" y="0" type="line"/>
      <point x="480" y="166"/>
      <point x="563" y="354"/>
      <point x="594" y="553" type="curve"/>
      <point x="399" y="553" type="line"/>
      <point x="372" y="383"/>
      <point x="334" y="270"/>
      <point x="256" y="157" type="curve"/>
      <point x="257" y="189"/>
      <point x="256" y="218"/>
      <point x="254" y="251" type="curve" smooth="yes"/>
      <point x="232" y="553" type="line"/>
      <point x="47" y="553" type="line"/>
    </contour>
  </outline>
</glyph>
<glyph name="xi" format="2">
  <advance width="491"/>
  <unicode hex="03BE"/>
  <anchor x="148" y="-185" name="bottom"/>
  <anchor x="349" y="760" name="top"/>
  <outline>
    <contour>
      <point x="147" y="-185" type="curve"/>
      <point x="348" y="-185" type="line"/>
      <point x="413" y="-121"/>
      <point x="441" y="-68"/>
      <point x="441" y="-7" type="curve" smooth="yes"/>
      <point x="441" y="71"/>
      <point x="394" y="115"/>
      <point x="311" y="160" type="curve" smooth="yes"/>
      <point x="246" y="196"/>
      <point x="223" y="211"/>
      <point x="223" y="249" type="curve" smooth="yes"/>
      <point x="223" y="294"/>
      <point x="258" y="323"/>
      <point x="379" y="323" type="curve" smooth="yes"/>
      <point x="406" y="323" type="line"/>
      <point x="437" y="465" type="line"/>
      <point x="385" y="465" type="line" smooth="yes"/>
      <point x="332" y="465"/>
      <point x="290" y="474"/>
      <point x="290" y="526" type="curve" smooth="yes"/>
      <point x="290" y="594"/>
      <point x="370" y="628"/>
      <point x="489" y="628" type="curve" smooth="yes"/>
      <point x="511" y="628" type="line"/>
      <point x="539" y="760" type="line"/>
      <point x="124" y="760" type="line"/>
      <point x="93" y="622" type="line"/>
      <point x="129" y="622" type="line" smooth="yes"/>
      <point x="157" y="622"/>
      <point x="189" y="624"/>
      <point x="221" y="628" type="curve"/>
      <point x="136" y="608"/>
      <point x="102" y="557"/>
      <point x="102" y="506" type="curve" smooth="yes"/>
      <point x="102" y="452"/>
      <point x="134" y="423"/>
      <point x="172" y="402" type="curve"/>
      <point x="172" y="398" type="line"/>
      <point x="91" y="371"/>
      <point x="32" y="313"/>
      <point x="32" y="211" type="curve" smooth="yes"/>
      <point x="32" y="134"/>
      <point x="63" y="82"/>
      <point x="140" y="40" type="curve" smooth="yes"/>
      <point x="218" y="-2"/>
      <point x="243" y="-21"/>
      <point x="243" y="-49" type="curve" smooth="yes"/>
      <point x="243" y="-86"/>
      <point x="207" y="-132"/>
    </contour>
  </outline>
</glyph>
<glyph name="pi" format="2">
  <advance width="791"/>
  <unicode hex="03C0"/>
  <anchor x="337" y="0" name="bottom"/>
  <anchor x="455" y="553" name="top"/>
  <outline>
    <contour>
      <point x="544" y="-10" type="curve" smooth="yes"/>
      <point x="607" y="-10"/>
      <point x="665" y="2"/>
      <point x="706" y="22" type="curve"/>
      <point x="706" y="162" type="line"/>
      <point x="674" y="149"/>
      <point x="645" y="142"/>
      <point x="621" y="142" type="curve" smooth="yes"/>
      <point x="604" y="142"/>
      <point x="590" y="150"/>
      <point x="590" y="172" type="curve" smooth="yes"/>
      <point x="590" y="185"/>
      <point x="593" y="204"/>
      <point x="596" y="219" type="curve" smooth="yes"/>
      <point x="638" y="411" type="line"/>
      <point x="765" y="411" type="line"/>
      <point x="793" y="553" type="line"/>
      <point x="153" y="553" type="line"/>
      <point x="57" y="513" type="line"/>
      <point x="38" y="411" type="line"/>
      <point x="160" y="411" type="line"/>
      <point x="72" y="0" type="line"/>
      <point x="261" y="0" type="line"/>
      <point x="349" y="411" type="line"/>
      <point x="449" y="411" type="line"/>
      <point x="407" y="208" type="line" smooth="yes"/>
      <point x="401" y="181"/>
      <point x="397" y="145"/>
      <point x="397" y="123" type="curve" smooth="yes"/>
      <point x="397" y="22"/>
      <point x="453" y="-10"/>
    </contour>
  </outline>
</glyph>
<glyph name="rho" format="2">
  <advance width="612"/>
  <unicode hex="03C1"/>
  <anchor x="196" y="-240" name="bottom"/>
  <anchor x="360" y="553" name="top"/>
  <outline>
    <contour>
      <point x="-37" y="-240" type="line"/>
      <point x="152" y="-240" type="line"/>
      <point x="180" y="-107" type="line" smooth="yes"/>
      <point x="192" y="-48"/>
      <point x="203" y="7"/>
      <point x="208" y="50" type="curve"/>
      <point x="224" y="15"/>
      <point x="262" y="-10"/>
      <point x="318" y="-10" type="curve" smooth="yes"/>
      <point x="477" y="-10"/>
      <point x="571" y="139"/>
      <point x="571" y="343" type="curve" smooth="yes"/>
      <point x="571" y="468"/>
      <point x="496" y="563"/>
      <point x="360" y="563" type="curve" smooth="yes"/>
      <point x="171" y="563"/>
      <point x="107" y="457"/>
      <point x="72" y="288" type="curve" smooth="yes"/>
    </contour>
    <contour>
      <point x="286" y="142" type="curve" smooth="yes"/>
      <point x="266" y="142"/>
      <point x="248" y="152"/>
      <point x="239" y="177" type="curve"/>
      <point x="260" y="279" type="line" smooth="yes"/>
      <point x="284" y="393"/>
      <point x="310" y="411"/>
      <point x="343" y="411" type="curve" smooth="yes"/>
      <point x="369" y="411"/>
      <point x="380" y="385"/>
      <point x="380" y="345" type="curve" smooth="yes"/>
      <point x="380" y="326"/>
      <point x="366" y="142"/>
    </contour>
  </outline>
</glyph>
<glyph name="sigma1" format="2">
  <advance width="498"/>
  <unicode hex="03C2"/>
  <anchor x="151" y="-185" name="bottom"/>
  <anchor x="308" y="553" name="top"/>
  <outline>
    <contour>
      <point x="138" y="-185" type="curve"/>
      <point x="339" y="-185" type="line"/>
      <point x="404" y="-121"/>
      <point x="432" y="-68"/>
      <point x="432" y="-7" type="curve" smooth="yes"/>
      <point x="432" y="71"/>
      <point x="403" y="115"/>
      <point x="320" y="160" type="curve" smooth="yes"/>
      <point x="264" y="191"/>
      <point x="232" y="200"/>
      <point x="232" y="246" type="curve" smooth="yes"/>
      <point x="232" y="302"/>
      <point x="268" y="413"/>
      <point x="346" y="413" type="curve" smooth="yes"/>
      <point x="389" y="413"/>
      <point x="423" y="399"/>
      <point x="456" y="384" type="curve"/>
      <point x="516" y="522" type="line"/>
      <point x="466" y="548"/>
      <point x="414" y="563"/>
      <point x="337" y="563" type="curve" smooth="yes"/>
      <point x="157" y="563"/>
      <point x="41" y="416"/>
      <point x="41" y="211" type="curve" smooth="yes"/>
      <point x="41" y="134"/>
      <point x="72" y="82"/>
      <point x="149" y="40" type="curve" smooth="yes"/>
      <point x="227" y="-2"/>
      <point x="234" y="-19"/>
      <point x="234" y="-43" type="curve" smooth="yes"/>
      <point x="234" y="-80"/>
      <point x="198" y="-132"/>
    </contour>
  </outline>
</glyph>
<glyph name="sigma" format="2">
  <advance width="637"/>
  <unicode hex="03C3"/>
  <anchor x="260" y="0" name="bottom"/>
  <anchor x="378" y="553" name="top"/>
  <outline>
    <contour>
      <point x="267" y="-10" type="curve" smooth="yes"/>
      <point x="480" y="-10"/>
      <point x="563" y="149"/>
      <point x="563" y="284" type="curve" smooth="yes"/>
      <point x="563" y="337"/>
      <point x="545" y="380"/>
      <point x="520" y="411" type="curve"/>
      <point x="648" y="411" type="line"/>
      <point x="680" y="553" type="line"/>
      <point x="401" y="553" type="line" smooth="yes"/>
      <point x="169" y="553"/>
      <point x="41" y="422"/>
      <point x="41" y="203" type="curve" smooth="yes"/>
      <point x="41" y="64"/>
      <point x="129" y="-10"/>
    </contour>
    <contour>
      <point x="286" y="132" type="curve" smooth="yes"/>
      <point x="261" y="132"/>
      <point x="234" y="152"/>
      <point x="234" y="210" type="curve" smooth="yes"/>
      <point x="234" y="332"/>
      <point x="287" y="411"/>
      <point x="354" y="411" type="curve" smooth="yes"/>
      <point x="363" y="411" type="line"/>
      <point x="370" y="393"/>
      <point x="374" y="368"/>
      <point x="374" y="332" type="curve" smooth="yes"/>
      <point x="374" y="218"/>
      <point x="346" y="132"/>
    </contour>
  </outline>
</glyph>
<glyph name="tau" format="2">
  <advance width="522"/>
  <unicode hex="03C4"/>
  <anchor x="202" y="0" name="bottom"/>
  <anchor x="320" y="553" name="top"/>
  <outline>
    <contour>
      <point x="265" y="-10" type="curve" smooth="yes"/>
      <point x="328" y="-10"/>
      <point x="386" y="2"/>
      <point x="427" y="22" type="curve"/>
      <point x="427" y="162" type="line"/>
      <point x="395" y="149"/>
      <point x="366" y="142"/>
      <point x="342" y="142" type="curve" smooth="yes"/>
      <point x="325" y="142"/>
      <point x="311" y="150"/>
      <point x="311" y="172" type="curve" smooth="yes"/>
      <point x="311" y="185"/>
      <point x="315" y="204"/>
      <point x="318" y="219" type="curve" smooth="yes"/>
      <point x="359" y="411" type="line"/>
      <point x="501" y="411" type="line"/>
      <point x="532" y="553" type="line"/>
      <point x="143" y="553" type="line"/>
      <point x="52" y="513" type="line"/>
      <point x="32" y="411" type="line"/>
      <point x="173" y="411" type="line"/>
      <point x="128" y="208" type="line" smooth="yes"/>
      <point x="122" y="181"/>
      <point x="118" y="145"/>
      <point x="118" y="123" type="curve" smooth="yes"/>
      <point x="118" y="22"/>
      <point x="174" y="-10"/>
    </contour>
  </outline>
</glyph>
<glyph name="upsilon" format="2">
  <advance width="624"/>
  <unicode hex="03C5"/>
  <anchor x="253" y="0" name="bottom"/>
  <anchor x="361" y="553" name="top"/>
  <outline>
    <contour>
      <point x="261" y="-10" type="curve" smooth="yes"/>
      <point x="536" y="-10"/>
      <point x="594" y="211"/>
      <point x="594" y="553" type="curve"/>
      <point x="408" y="553" type="line"/>
      <point x="408" y="282"/>
      <point x="369" y="142"/>
      <point x="281" y="142" type="curve" smooth="yes"/>
      <point x="252" y="142"/>
      <point x="236" y="156"/>
      <point x="236" y="193" type="curve" smooth="yes"/>
      <point x="236" y="206"/>
      <point x="237" y="220"/>
      <point x="241" y="240" type="curve" smooth="yes"/>
      <point x="307" y="553" type="line"/>
      <point x="119" y="553" type="line"/>
      <point x="54" y="249" type="line" smooth="yes"/>
      <point x="51" y="227"/>
      <point x="47" y="203"/>
      <point x="47" y="181" type="curve" smooth="yes"/>
      <point x="47" y="66"/>
      <point x="110" y="-10"/>
    </contour>
  </outline>
</glyph>
<glyph name="phi" format="2">
  <advance width="842"/>
  <unicode hex="03C6"/>
  <anchor x="311" y="-240" name="bottom"/>
  <anchor x="480" y="553" name="top"/>
  <outline>
    <contour>
      <point x="261" y="-8" type="curve"/>
      <point x="214" y="-240" type="line"/>
      <point x="396" y="-240" type="line"/>
      <point x="443" y="-8" type="line"/>
      <point x="660" y="0"/>
      <point x="801" y="133"/>
      <point x="801" y="337" type="curve" smooth="yes"/>
      <point x="801" y="481"/>
      <point x="717" y="563"/>
      <point x="576" y="563" type="curve" smooth="yes"/>
      <point x="432" y="563"/>
      <point x="364" y="488"/>
      <point x="336" y="355" type="curve" smooth="yes"/>
      <point x="290" y="134" type="line"/>
      <point x="252" y="146"/>
      <point x="232" y="188"/>
      <point x="232" y="244" type="curve" smooth="yes"/>
      <point x="232" y="320"/>
      <point x="259" y="392"/>
      <point x="322" y="451" type="curve"/>
      <point x="204" y="562" type="line"/>
      <point x="96" y="475"/>
      <point x="41" y="365"/>
      <point x="41" y="240" type="curve" smooth="yes"/>
      <point x="41" y="107"/>
      <point x="115" y="14"/>
    </contour>
    <contour>
      <point x="472" y="134" type="curve"/>
      <point x="517" y="353" type="line" smooth="yes"/>
      <point x="527" y="400"/>
      <point x="544" y="421"/>
      <point x="568" y="421" type="curve" smooth="yes"/>
      <point x="598" y="421"/>
      <point x="610" y="388"/>
      <point x="610" y="350" type="curve" smooth="yes"/>
      <point x="610" y="255"/>
      <point x="567" y="154"/>
    </contour>
  </outline>
</glyph>
<glyph name="chi" format="2">
  <advance width="579"/>
  <unicode hex="03C7"/>
  <anchor x="180" y="-240" name="bottom"/>
  <anchor x="349" y="553" name="top"/>
  <anchor x="618" y="553" name="topright"/>
  <outline>
    <contour>
      <point x="-148" y="-240" type="line"/>
      <point x="66" y="-240" type="line"/>
      <point x="222" y="12" type="line"/>
      <point x="236" y="-85" type="line" smooth="yes"/>
      <point x="254" y="-205"/>
      <point x="302" y="-240"/>
      <point x="386" y="-240" type="curve" smooth="yes"/>
      <point x="436" y="-240"/>
      <point x="472" y="-233"/>
      <point x="507" y="-222" type="curve"/>
      <point x="507" y="-80" type="line"/>
      <point x="477" y="-87"/>
      <point x="460" y="-88"/>
      <point x="450" y="-88" type="curve" smooth="yes"/>
      <point x="429" y="-88"/>
      <point x="412" y="-81"/>
      <point x="406" y="-44" type="curve" smooth="yes"/>
      <point x="370" y="172" type="line"/>
      <point x="647" y="553" type="line"/>
      <point x="433" y="553" type="line"/>
      <point x="324" y="373" type="line"/>
      <point x="316" y="416" type="line" smooth="yes"/>
      <point x="296" y="524"/>
      <point x="250" y="563"/>
      <point x="159" y="563" type="curve" smooth="yes"/>
      <point x="115" y="563"/>
      <point x="64" y="554"/>
      <point x="32" y="540" type="curve"/>
      <point x="62" y="404" type="line"/>
      <point x="78" y="409"/>
      <point x="85" y="411"/>
      <point x="99" y="411" type="curve" smooth="yes"/>
      <point x="124" y="411"/>
      <point x="141" y="401"/>
      <point x="150" y="351" type="curve" smooth="yes"/>
      <point x="176" y="213" type="line"/>
    </contour>
  </outline>
</glyph>
<glyph name="psi" format="2">
  <advance width="866"/>
  <unicode hex="03C8"/>
  <anchor x="323" y="-240" name="bottom"/>
  <anchor x="536" y="760" name="top"/>
  <outline>
    <contour>
      <point x="234" y="-240" type="line"/>
      <point x="416" y="-240" type="line"/>
      <point x="463" y="-10" type="line"/>
      <point x="765" y="8"/>
      <point x="837" y="213"/>
      <point x="837" y="553" type="curve"/>
      <point x="655" y="553" type="line"/>
      <point x="655" y="370"/>
      <point x="641" y="167"/>
      <point x="494" y="142" type="curve"/>
      <point x="624" y="760" type="line"/>
      <point x="442" y="760" type="line"/>
      <point x="312" y="142" type="line"/>
      <point x="278" y="144"/>
      <point x="238" y="156"/>
      <point x="238" y="192" type="curve" smooth="yes"/>
      <point x="238" y="206"/>
      <point x="239" y="220"/>
      <point x="243" y="240" type="curve" smooth="yes"/>
      <point x="309" y="553" type="line"/>
      <point x="121" y="553" type="line"/>
      <point x="56" y="243" type="line" smooth="yes"/>
      <point x="51" y="221"/>
      <point x="47" y="190"/>
      <point x="47" y="168" type="curve" smooth="yes"/>
      <point x="47" y="67"/>
      <point x="129" y="3"/>
      <point x="281" y="-10" type="curve"/>
    </contour>
  </outline>
</glyph>
<glyph name="omega" format="2">
  <advance width="861"/>
  <unicode hex="03C9"/>
  <anchor x="381" y="0" name="bottom"/>
  <anchor x="484" y="553" name="top"/>
  <outline>
    <contour>
      <point x="212" y="-10" type="curve" smooth="yes"/>
      <point x="315" y="-10"/>
      <point x="362" y="32"/>
      <point x="396" y="87" type="curve"/>
      <point x="410" y="24"/>
      <point x="456" y="-10"/>
      <point x="545" y="-10" type="curve" smooth="yes"/>
      <point x="730" y="-10"/>
      <point x="829" y="141"/>
      <point x="829" y="428" type="curve" smooth="yes"/>
      <point x="829" y="482"/>
      <point x="825" y="514"/>
      <point x="820" y="553" type="curve"/>
      <point x="626" y="553" type="line"/>
      <point x="636" y="513"/>
      <point x="641" y="474"/>
      <point x="641" y="423" type="curve" smooth="yes"/>
      <point x="641" y="289"/>
      <point x="610" y="137"/>
      <point x="538" y="137" type="curve" smooth="yes"/>
      <point x="508" y="137"/>
      <point x="503" y="153"/>
      <point x="503" y="176" type="curve" smooth="yes"/>
      <point x="503" y="196"/>
      <point x="508" y="223"/>
      <point x="514" y="252" type="curve" smooth="yes"/>
      <point x="545" y="393" type="line"/>
      <point x="361" y="393" type="line"/>
      <point x="331" y="252" type="line" smooth="yes"/>
      <point x="313" y="171"/>
      <point x="298" y="137"/>
      <point x="263" y="137" type="curve" smooth="yes"/>
      <point x="226" y="137"/>
      <point x="220" y="166"/>
      <point x="220" y="205" type="curve" smooth="yes"/>
      <point x="220" y="308"/>
      <point x="272" y="448"/>
      <point x="346" y="553" type="curve"/>
      <point x="152" y="553" type="line"/>
      <point x="71" y="419"/>
      <point x="32" y="302"/>
      <point x="32" y="197" type="curve" smooth="yes"/>
      <point x="32" y="62"/>
      <point x="97" y="-10"/>
    </contour>
  </outline>
</glyph>
<glyph name="uni03D0" format="2">
  <advance width="600"/>
  <unicode hex="03D0"/>
  <anchor x="239" y="-10" name="bottom"/>
  <anchor x="404" y="765" name="top"/>
  <outline>
    <contour>
      <point x="276" y="-10" type="curve" smooth="yes"/>
      <point x="443" y="-10"/>
      <point x="560" y="104"/>
      <point x="560" y="274" type="curve" smooth="yes"/>
      <point x="560" y="388"/>
      <point x="498" y="465"/>
      <point x="385" y="465" type="curve" smooth="yes"/>
      <point x="313" y="465"/>
      <point x="269" y="438"/>
      <point x="237" y="397" type="curve"/>
      <point x="248" y="445"/>
      <point x="267" y="492"/>
      <point x="288" y="530" type="curve"/>
      <point x="317" y="514"/>
      <point x="364" y="500"/>
      <point x="416" y="500" type="curve" smooth="yes"/>
      <point x="525" y="500"/>
      <point x="597" y="552"/>
      <point x="597" y="640" type="curve" smooth="yes"/>
      <point x="597" y="715"/>
      <point x="542" y="765"/>
      <point x="435" y="765" type="curve" smooth="yes"/>
      <point x="230" y="765"/>
      <point x="107" y="619"/>
      <point x="56" y="365" type="curve" smooth="yes"/>
      <point x="47" y="321"/>
      <point x="43" y="268"/>
      <point x="43" y="231" type="curve" smooth="yes"/>
      <point x="43" y="79"/>
      <point x="124" y="-10"/>
    </contour>
    <contour>
      <point x="285" y="122" type="curve" smooth="yes"/>
      <point x="243" y="122"/>
      <point x="215" y="147"/>
      <point x="215" y="222" type="curve" smooth="yes"/>
      <point x="215" y="245"/>
      <point x="218" y="271"/>
      <point x="221" y="289" type="curve"/>
      <point x="245" y="314"/>
      <point x="273" y="337"/>
      <point x="315" y="337" type="curve" smooth="yes"/>
      <point x="355" y="337"/>
      <point x="380" y="304"/>
      <point x="380" y="257" type="curve" smooth="yes"/>
      <point x="380" y="179"/>
      <point x="339" y="122"/>
    </contour>
    <contour>
      <point x="409" y="598" type="curve" smooth="yes"/>
      <point x="385" y="598"/>
      <point x="357" y="604"/>
      <point x="343" y="614" type="curve"/>
      <point x="362" y="644"/>
      <point x="391" y="660"/>
      <point x="424" y="660" type="curve" smooth="yes"/>
      <point x="448" y="660"/>
      <point x="464" y="650"/>
      <point x="464" y="632" type="curve" smooth="yes"/>
      <point x="464" y="611"/>
      <point x="443" y="598"/>
    </contour>
  </outline>
</glyph>
<glyph name="uni03D2" format="2">
  <advance width="624"/>
  <unicode hex="03D2"/>
  <anchor x="405" y="714" name="top"/>
  <outline>
    <contour>
      <point x="137" y="0" type="line"/>
      <point x="328" y="0" type="line"/>
      <point x="387" y="277" type="line"/>
      <point x="454" y="396"/>
      <point x="514" y="483"/>
      <point x="560" y="539" type="curve" smooth="yes"/>
      <point x="573" y="554"/>
      <point x="593" y="568"/>
      <point x="615" y="568" type="curve" smooth="yes"/>
      <point x="634" y="568"/>
      <point x="650" y="561"/>
      <point x="654" y="558" type="curve"/>
      <point x="688" y="703" type="line"/>
      <point x="655" y="715"/>
      <point x="631" y="720"/>
      <point x="589" y="720" type="curve" smooth="yes"/>
      <point x="529" y="720"/>
      <point x="487" y="696"/>
      <point x="445" y="647" type="curve" smooth="yes"/>
      <point x="397" y="591"/>
      <point x="355" y="520"/>
      <point x="320" y="454" type="curve"/>
      <point x="277" y="714" type="line"/>
      <point x="80" y="714" type="line"/>
      <point x="196" y="277" type="line"/>
    </contour>
  </outline>
</glyph>
<glyph name="uni03D6" format="2">
  <advance width="1015"/>
  <unicode hex="03D6"/>
  <outline>
    <contour>
      <point x="266" y="-10" type="curve" smooth="yes"/>
      <point x="369" y="-10"/>
      <point x="416" y="32"/>
      <point x="450" y="87" type="curve"/>
      <point x="461" y="18"/>
      <point x="518" y="-10"/>
      <point x="607" y="-10" type="curve" smooth="yes"/>
      <point x="782" y="-10"/>
      <point x="885" y="141"/>
      <point x="885" y="379" type="curve" smooth="yes"/>
      <point x="885" y="390"/>
      <point x="884" y="400"/>
      <point x="883" y="411" type="curve"/>
      <point x="989" y="411" type="line"/>
      <point x="1017" y="553" type="line"/>
      <point x="153" y="553" type="line"/>
      <point x="57" y="513" type="line"/>
      <point x="38" y="411" type="line"/>
      <point x="139" y="411" type="line"/>
      <point x="103" y="334"/>
      <point x="86" y="267"/>
      <point x="86" y="197" type="curve" smooth="yes"/>
      <point x="86" y="62"/>
      <point x="151" y="-10"/>
    </contour>
    <contour>
      <point x="317" y="137" type="curve" smooth="yes"/>
      <point x="280" y="137"/>
      <point x="274" y="166"/>
      <point x="274" y="205" type="curve" smooth="yes"/>
      <point x="274" y="269"/>
      <point x="294" y="341"/>
      <point x="328" y="411" type="curve"/>
      <point x="695" y="411" type="line"/>
      <point x="696" y="398"/>
      <point x="697" y="384"/>
      <point x="697" y="370" type="curve" smooth="yes"/>
      <point x="697" y="252"/>
      <point x="673" y="138"/>
      <point x="592" y="137" type="curve" smooth="yes"/>
      <point x="562" y="137"/>
      <point x="557" y="153"/>
      <point x="557" y="176" type="curve" smooth="yes"/>
      <point x="557" y="196"/>
      <point x="562" y="223"/>
      <point x="568" y="252" type="curve" smooth="yes"/>
      <point x="580" y="305" type="line"/>
      <point x="396" y="305" type="line"/>
      <point x="385" y="252" type="line" smooth="yes"/>
      <point x="367" y="171"/>
      <point x="352" y="137"/>
    </contour>
  </outline>
</glyph>
<glyph name="uni03D7" format="2">
  <advance width="600"/>
  <unicode hex="03D7"/>
  <outline>
    <contour>
      <point x="326" y="-240" type="curve" smooth="yes"/>
      <point x="458" y="-240"/>
      <point x="518" y="-169"/>
      <point x="545" y="-48" type="curve" smooth="yes"/>
      <point x="584" y="129" type="line"/>
      <point x="574" y="124"/>
      <point x="559" y="119"/>
      <point x="541" y="119" type="curve" smooth="yes"/>
      <point x="517" y="119"/>
      <point x="498" y="135"/>
      <point x="498" y="179" type="curve" smooth="yes"/>
      <point x="498" y="290"/>
      <point x="591" y="437"/>
      <point x="684" y="552" type="curve"/>
      <point x="498" y="552" type="line"/>
      <point x="241" y="278" type="line"/>
      <point x="252" y="306"/>
      <point x="272" y="368"/>
      <point x="272" y="414" type="curve" smooth="yes"/>
      <point x="272" y="521"/>
      <point x="216" y="563"/>
      <point x="132" y="563" type="curve" smooth="yes"/>
      <point x="85" y="563"/>
      <point x="42" y="551"/>
      <point x="21" y="542" type="curve"/>
      <point x="31" y="427" type="line"/>
      <point x="41" y="431"/>
      <point x="52" y="435"/>
      <point x="70" y="435" type="curve" smooth="yes"/>
      <point x="94" y="435"/>
      <point x="110" y="419"/>
      <point x="110" y="380" type="curve" smooth="yes"/>
      <point x="110" y="269"/>
      <point x="26" y="98"/>
      <point x="-49" y="0" type="curve"/>
      <point x="130" y="0" type="line"/>
      <point x="364" y="257" type="line"/>
      <point x="349" y="224"/>
      <point x="335" y="177"/>
      <point x="335" y="125" type="curve" smooth="yes"/>
      <point x="335" y="70"/>
      <point x="354" y="38"/>
      <point x="383" y="19" type="curve"/>
      <point x="376" y="-14" type="line" smooth="yes"/>
      <point x="366" y="-57"/>
      <point x="344" y="-94"/>
      <point x="286" y="-94" type="curve" smooth="yes"/>
      <point x="260" y="-94"/>
      <point x="235" y="-88"/>
      <point x="217" y="-82" type="curve"/>
      <point x="217" y="-226" type="line"/>
      <point x="245" y="-235"/>
      <point x="288" y="-240"/>
    </contour>
  </outline>
</glyph>
<glyph name="uni03D8" format="2">
  <advance width="779"/>
  <unicode hex="03D8"/>
  <anchor x="331" y="0" name="bottom"/>
  <anchor x="483" y="714" name="top"/>
  <outline>
    <contour>
      <point x="232" y="-10" type="line"/>
      <point x="423" y="-10" type="line"/>
      <point x="453" y="129" type="line"/>
      <point x="648" y="150"/>
      <point x="774" y="263"/>
      <point x="774" y="459" type="curve" smooth="yes"/>
      <point x="774" y="598"/>
      <point x="688" y="724"/>
      <point x="448" y="724" type="curve" smooth="yes"/>
      <point x="165" y="724"/>
      <point x="67" y="563"/>
      <point x="67" y="384" type="curve" smooth="yes"/>
      <point x="67" y="254"/>
      <point x="147" y="150"/>
      <point x="262" y="129" type="curve"/>
    </contour>
    <contour>
      <point x="399" y="280" type="curve" smooth="yes"/>
      <point x="306" y="280"/>
      <point x="265" y="330"/>
      <point x="265" y="407" type="curve" smooth="yes"/>
      <point x="265" y="477"/>
      <point x="297" y="569"/>
      <point x="430" y="569" type="curve" smooth="yes"/>
      <point x="520" y="569"/>
      <point x="565" y="522"/>
      <point x="565" y="443" type="curve" smooth="yes"/>
      <point x="565" y="368"/>
      <point x="525" y="280"/>
    </contour>
  </outline>
</glyph>
<glyph name="uni03DA" format="2">
  <advance width="600"/>
  <unicode hex="03DA"/>
  <anchor x="241" y="0" name="bottom"/>
  <anchor x="393" y="714" name="top"/>
  <outline>
    <contour>
      <point x="258" y="0" type="line"/>
      <point x="441" y="0" type="line"/>
      <point x="499" y="269" type="line"/>
      <point x="411" y="269" type="line" smooth="yes"/>
      <point x="307" y="269"/>
      <point x="261" y="313"/>
      <point x="261" y="393" type="curve" smooth="yes"/>
      <point x="261" y="476"/>
      <point x="308" y="566"/>
      <point x="427" y="566" type="curve" smooth="yes"/>
      <point x="484" y="566"/>
      <point x="533" y="548"/>
      <point x="587" y="512" type="curve"/>
      <point x="660" y="666" type="line"/>
      <point x="593" y="706"/>
      <point x="519" y="725"/>
      <point x="427" y="725" type="curve" smooth="yes"/>
      <point x="150" y="725"/>
      <point x="68" y="515"/>
      <point x="68" y="372" type="curve" smooth="yes"/>
      <point x="68" y="195"/>
      <point x="179" y="131"/>
      <point x="284" y="116" type="curve"/>
    </contour>
  </outline>
</glyph>
<glyph name="uni03DC" format="2">
  <advance width="555"/>
  <unicode hex="03DC"/>
  <anchor x="219" y="0" name="bottom"/>
  <anchor x="371" y="714" name="top"/>
  <outline>
    <contour>
      <point x="16" y="0" type="line"/>
      <point x="207" y="0" type="line"/>
      <point x="262" y="267" type="line"/>
      <point x="333" y="267" type="line"/>
      <point x="310" y="159" type="line"/>
      <point x="459" y="159" type="line"/>
      <point x="516" y="423" type="line"/>
      <point x="297" y="423" type="line"/>
      <point x="325" y="559" type="line"/>
      <point x="555" y="559" type="line"/>
      <point x="588" y="714" type="line"/>
      <point x="167" y="714" type="line"/>
    </contour>
  </outline>
</glyph>
<glyph name="uni03DD" format="2">
  <advance width="519"/>
  <unicode hex="03DD"/>
  <anchor x="150" y="-240" name="bottom"/>
  <anchor x="319" y="553" name="top"/>
  <outline>
    <contour>
      <point x="-41" y="-240" type="line"/>
      <point x="147" y="-240" type="line"/>
      <point x="225" y="127" type="line"/>
      <point x="315" y="127" type="line"/>
      <point x="294" y="24" type="line"/>
      <point x="419" y="24" type="line" smooth="yes"/>
      <point x="472" y="269" type="line" smooth="yes"/>
      <point x="255" y="269" type="line"/>
      <point x="284" y="401" type="line"/>
      <point x="495" y="401" type="line"/>
      <point x="528" y="553" type="line"/>
      <point x="128" y="553" type="line"/>
    </contour>
  </outline>
</glyph>
<glyph name="uni03DE" format="2">
  <advance width="518"/>
  <unicode hex="03DE"/>
  <anchor x="200" y="0" name="bottom"/>
  <anchor x="352" y="714" name="top"/>
  <outline>
    <contour>
      <point x="355" y="-10" type="curve" smooth="yes"/>
      <point x="404" y="-10"/>
      <point x="444" y="0"/>
      <point x="463" y="8" type="curve"/>
      <point x="463" y="125" type="line"/>
      <point x="450" y="121"/>
      <point x="435" y="116"/>
      <point x="417" y="116" type="curve" smooth="yes"/>
      <point x="396" y="116"/>
      <point x="386" y="129"/>
      <point x="386" y="143" type="curve" smooth="yes"/>
      <point x="386" y="158"/>
      <point x="393" y="171"/>
      <point x="405" y="193" type="curve" smooth="yes"/>
      <point x="543" y="436" type="line"/>
      <point x="286" y="436" type="line"/>
      <point x="324" y="503" type="line" smooth="yes"/>
      <point x="342" y="535"/>
      <point x="359" y="572"/>
      <point x="359" y="609" type="curve" smooth="yes"/>
      <point x="359" y="678"/>
      <point x="310" y="724"/>
      <point x="209" y="724" type="curve" smooth="yes"/>
      <point x="162" y="724"/>
      <point x="118" y="714"/>
      <point x="88" y="703" type="curve"/>
      <point x="102" y="586" type="line"/>
      <point x="117" y="593"/>
      <point x="134" y="598"/>
      <point x="154" y="598" type="curve" smooth="yes"/>
      <point x="175" y="598"/>
      <point x="184" y="586"/>
      <point x="184" y="570" type="curve" smooth="yes"/>
      <point x="184" y="548"/>
      <point x="173" y="533"/>
      <point x="165" y="518" type="curve" smooth="yes"/>
      <point x="42" y="304" type="line"/>
      <point x="296" y="304" type="line"/>
      <point x="240" y="209" type="line" smooth="yes"/>
      <point x="225" y="184"/>
      <point x="207" y="151"/>
      <point x="207" y="112" type="curve" smooth="yes"/>
      <point x="207" y="28"/>
      <point x="262" y="-10"/>
    </contour>
  </outline>
</glyph>
<glyph name="uni03DF" format="2">
  <advance width="502"/>
  <unicode hex="03DF"/>
  <anchor x="141" y="-239" name="bottom"/>
  <anchor x="356" y="768" name="top"/>
  <outline>
    <contour>
      <point x="252" y="-239" type="curve" smooth="yes"/>
      <point x="313" y="-239"/>
      <point x="349" y="-228"/>
      <point x="364" y="-222" type="curve"/>
      <point x="364" y="-104" type="line"/>
      <point x="353" y="-109"/>
      <point x="333" y="-114"/>
      <point x="313" y="-114" type="curve" smooth="yes"/>
      <point x="289" y="-114"/>
      <point x="275" y="-100"/>
      <point x="275" y="-78" type="curve" smooth="yes"/>
      <point x="275" y="-57"/>
      <point x="288" y="-32"/>
      <point x="300" y="-13" type="curve" smooth="yes"/>
      <point x="480" y="290" type="line"/>
      <point x="480" y="393" type="line"/>
      <point x="224" y="339" type="line"/>
      <point x="333" y="511" type="line" smooth="yes"/>
      <point x="356" y="548"/>
      <point x="381" y="597"/>
      <point x="381" y="645" type="curve" smooth="yes"/>
      <point x="381" y="710"/>
      <point x="340" y="768"/>
      <point x="238" y="768" type="curve" smooth="yes"/>
      <point x="191" y="768"/>
      <point x="154" y="758"/>
      <point x="125" y="747" type="curve"/>
      <point x="144" y="629" type="line"/>
      <point x="154" y="635"/>
      <point x="169" y="641"/>
      <point x="184" y="641" type="curve" smooth="yes"/>
      <point x="201" y="641"/>
      <point x="213" y="631"/>
      <point x="213" y="614" type="curve" smooth="yes"/>
      <point x="213" y="594"/>
      <point x="199" y="570"/>
      <point x="178" y="533" type="curve" smooth="yes"/>
      <point x="29" y="277" type="line"/>
      <point x="29" y="170" type="line"/>
      <point x="278" y="226" type="line"/>
      <point x="151" y="27" type="line" smooth="yes"/>
      <point x="123" y="-16"/>
      <point x="106" y="-56"/>
      <point x="106" y="-103" type="curve" smooth="yes"/>
      <point x="106" y="-181"/>
      <point x="154" y="-239"/>
    </contour>
  </outline>
</glyph>
<glyph name="uni03F0" format="2">
  <advance width="635"/>
  <unicode hex="03F0"/>
  <anchor x="259" y="0" name="bottom"/>
  <anchor x="377" y="553" name="top"/>
  <outline>
    <contour>
      <point x="480" y="-10" type="curve" smooth="yes"/>
      <point x="525" y="-10"/>
      <point x="564" y="-1"/>
      <point x="584" y="8" type="curve"/>
      <point x="584" y="129" type="line"/>
      <point x="574" y="124"/>
      <point x="559" y="119"/>
      <point x="541" y="119" type="curve" smooth="yes"/>
      <point x="517" y="119"/>
      <point x="498" y="135"/>
      <point x="498" y="179" type="curve" smooth="yes"/>
      <point x="498" y="290"/>
      <point x="591" y="437"/>
      <point x="684" y="552" type="curve"/>
      <point x="498" y="552" type="line"/>
      <point x="241" y="278" type="line"/>
      <point x="252" y="306"/>
      <point x="272" y="368"/>
      <point x="272" y="414" type="curve" smooth="yes"/>
      <point x="272" y="521"/>
      <point x="216" y="563"/>
      <point x="132" y="563" type="curve" smooth="yes"/>
      <point x="85" y="563"/>
      <point x="42" y="551"/>
      <point x="21" y="542" type="curve"/>
      <point x="31" y="427" type="line"/>
      <point x="41" y="431"/>
      <point x="52" y="435"/>
      <point x="70" y="435" type="curve" smooth="yes"/>
      <point x="94" y="435"/>
      <point x="110" y="419"/>
      <point x="110" y="380" type="curve" smooth="yes"/>
      <point x="110" y="269"/>
      <point x="26" y="98"/>
      <point x="-49" y="0" type="curve"/>
      <point x="130" y="0" type="line"/>
      <point x="364" y="257" type="line"/>
      <point x="349" y="224"/>
      <point x="335" y="179"/>
      <point x="335" y="127" type="curve" smooth="yes"/>
      <point x="335" y="37"/>
      <point x="382" y="-10"/>
    </contour>
  </outline>
</glyph>
<glyph name="uni03FA" format="2">
  <advance width="881"/>
  <unicode hex="03FA"/>
  <anchor x="382" y="0" name="bottom"/>
  <anchor x="534" y="714" name="top"/>
  <outline>
    <contour>
      <point x="16" y="0" type="line"/>
      <point x="182" y="0" type="line"/>
      <point x="241" y="284" type="line" smooth="yes"/>
      <point x="261" y="381"/>
      <point x="276" y="467"/>
      <point x="281" y="515" type="curve"/>
      <point x="285" y="515" type="line"/>
      <point x="346" y="218" type="line"/>
      <point x="503" y="218" type="line"/>
      <point x="683" y="514" type="line"/>
      <point x="687" y="514" type="line"/>
      <point x="675" y="470"/>
      <point x="652" y="374"/>
      <point x="632" y="277" type="curve" smooth="yes"/>
      <point x="575" y="0" type="line"/>
      <point x="744" y="0" type="line"/>
      <point x="895" y="714" type="line"/>
      <point x="647" y="714" type="line"/>
      <point x="455" y="396" type="line"/>
      <point x="452" y="396" type="line"/>
      <point x="394" y="714" type="line"/>
      <point x="167" y="714" type="line"/>
    </contour>
  </outline>
</glyph>
<glyph name="uni03FC" format="2">
  <advance width="612"/>
  <unicode hex="03FC"/>
  <anchor x="196" y="-240" name="bottom"/>
  <anchor x="360" y="553" name="top"/>
  <outline>
    <contour>
      <point x="-93" y="-183" type="line"/>
      <point x="299" y="-183" type="line"/>
      <point x="323" y="-72" type="line"/>
      <point x="-69" y="-72" type="line"/>
    </contour>
    <component base="rho"/>
  </outline>
</glyph>
<glyph name="afii10042" format="2">
  <advance width="1005"/>
  <unicode hex="0428"/>
  <anchor x="444" y="0" name="bottom"/>
  <anchor x="596" y="714" name="top"/>
  <outline>
    <contour>
      <point x="16" y="0" type="line"/>
      <point x="862" y="0" type="line"/>
      <point x="1010" y="714" type="line"/>
      <point x="819" y="714" type="line"/>
      <point x="704" y="158" type="line"/>
      <point x="566" y="158" type="line"/>
      <point x="681" y="714" type="line"/>
      <point x="493" y="714" type="line"/>
      <point x="378" y="158" type="line"/>
      <point x="240" y="158" type="line"/>
      <point x="355" y="714" type="line"/>
      <point x="164" y="714" type="line"/>
    </contour>
  </outline>
</glyph>
<glyph name="afii10079" format="2">
  <advance width="627"/>
  <unicode hex="043D"/>
  <anchor x="255" y="0" name="bottom"/>
  <anchor x="373" y="553" name="top"/>
  <outline>
    <contour>
      <point x="11" y="0" type="line"/>
      <point x="200" y="0" type="line"/>
      <point x="246" y="215" type="line"/>
      <point x="355" y="215" type="line"/>
      <point x="310" y="0" type="line"/>
      <point x="499" y="0" type="line"/>
      <point x="616" y="553" type="line"/>
      <point x="427" y="553" type="line"/>
      <point x="384" y="353" type="line"/>
      <point x="276" y="353" type="line"/>
      <point x="318" y="553" type="line"/>
      <point x="129" y="553" type="line"/>
    </contour>
  </outline>
</glyph>
<glyph name="uni0460" format="2">
  <advance width="905"/>
  <unicode hex="0460"/>
  <anchor x="394" y="0" name="bottom"/>
  <anchor x="552" y="714" name="top"/>
  <outline>
    <contour>
      <point x="141" y="0" type="curve"/>
      <point x="323" y="0" type="line"/>
      <point x="446" y="291" type="line"/>
      <point x="454" y="201"/>
      <point x="470" y="86"/>
      <point x="498" y="0" type="curve"/>
      <point x="662" y="0" type="line"/>
      <point x="820" y="201"/>
      <point x="928" y="431"/>
      <point x="986" y="713" type="curve"/>
      <point x="801" y="713" type="line"/>
      <point x="750" y="477"/>
      <point x="693" y="339"/>
      <point x="609" y="201" type="curve"/>
      <point x="604" y="201" type="line"/>
      <point x="577" y="345"/>
      <point x="589" y="523"/>
      <point x="626" y="714" type="curve"/>
      <point x="448" y="714" type="line"/>
      <point x="433" y="649"/>
      <point x="427" y="602"/>
      <point x="423" y="541" type="curve"/>
      <point x="332" y="353" type="line" smooth="yes"/>
      <point x="310" y="308"/>
      <point x="285" y="256"/>
      <point x="267" y="208" type="curve"/>
      <point x="263" y="208" type="line"/>
      <point x="243" y="324"/>
      <point x="246" y="493"/>
      <point x="285" y="713" type="curve"/>
      <point x="104" y="713" type="line"/>
      <point x="49" y="462"/>
      <point x="76" y="177"/>
    </contour>
  </outline>
</glyph>
<glyph name="uni0461" format="2">
  <advance width="827"/>
  <unicode hex="0461"/>
  <anchor x="355" y="0" name="bottom"/>
  <anchor x="469" y="553" name="top"/>
  <outline>
    <contour>
      <point x="115" y="0" type="curve"/>
      <point x="274" y="0" type="line"/>
      <point x="386" y="205" type="line"/>
      <point x="394" y="139"/>
      <point x="412" y="63"/>
      <point x="434" y="0" type="curve"/>
      <point x="597" y="0" type="line"/>
      <point x="746" y="199"/>
      <point x="829" y="361"/>
      <point x="878" y="553" type="curve"/>
      <point x="696" y="553" type="line"/>
      <point x="659" y="404"/>
      <point x="610" y="274"/>
      <point x="546" y="179" type="curve"/>
      <point x="542" y="179" type="line"/>
      <point x="521" y="278"/>
      <point x="525" y="409"/>
      <point x="552" y="553" type="curve"/>
      <point x="377" y="553" type="line"/>
      <point x="365" y="487"/>
      <point x="359" y="440"/>
      <point x="359" y="392" type="curve"/>
      <point x="296" y="291" type="line" smooth="yes"/>
      <point x="273" y="254"/>
      <point x="253" y="217"/>
      <point x="236" y="182" type="curve"/>
      <point x="233" y="182" type="line"/>
      <point x="213" y="265"/>
      <point x="206" y="399"/>
      <point x="240" y="553" type="curve"/>
      <point x="66" y="553" type="line"/>
      <point x="27" y="362"/>
      <point x="65" y="136"/>
    </contour>
  </outline>
</glyph>
<glyph name="uni0463" format="2">
  <advance width="634"/>
  <unicode hex="0463"/>
  <anchor x="258" y="0" name="bottom"/>
  <anchor x="395" y="644" name="top"/>
  <outline>
    <contour>
      <point x="309" y="-10" type="curve" smooth="yes"/>
      <point x="495" y="-10"/>
      <point x="586" y="62"/>
      <point x="586" y="197" type="curve" smooth="yes"/>
      <point x="586" y="279"/>
      <point x="522" y="352"/>
      <point x="393" y="352" type="curve" smooth="yes"/>
      <point x="365" y="352"/>
      <point x="336" y="349"/>
      <point x="312" y="342" type="curve"/>
      <point x="328" y="415" type="line"/>
      <point x="468" y="415" type="line"/>
      <point x="496" y="553" type="line"/>
      <point x="358" y="553" type="line"/>
      <point x="379" y="644" type="line"/>
      <point x="190" y="644" type="line"/>
      <point x="170" y="553" type="line"/>
      <point x="53" y="553" type="line"/>
      <point x="24" y="415" type="line"/>
      <point x="140" y="415" type="line"/>
      <point x="103" y="244" type="line" smooth="yes"/>
      <point x="95" y="209"/>
      <point x="90" y="175"/>
      <point x="90" y="146" type="curve" smooth="yes"/>
      <point x="90" y="66"/>
      <point x="142" y="-10"/>
    </contour>
    <contour>
      <point x="333" y="118" type="curve" smooth="yes"/>
      <point x="302" y="118"/>
      <point x="274" y="128"/>
      <point x="274" y="154" type="curve" smooth="yes"/>
      <point x="274" y="167"/>
      <point x="279" y="191"/>
      <point x="285" y="216" type="curve"/>
      <point x="304" y="222"/>
      <point x="326" y="224"/>
      <point x="344" y="224" type="curve" smooth="yes"/>
      <point x="379" y="224"/>
      <point x="395" y="199"/>
      <point x="395" y="172" type="curve" smooth="yes"/>
      <point x="395" y="137"/>
      <point x="369" y="118"/>
    </contour>
  </outline>
</glyph>
<glyph name="uni0467" format="2">
  <advance width="709"/>
  <unicode hex="0467"/>
  <anchor x="296" y="0" name="bottom"/>
  <anchor x="414" y="553" name="top"/>
  <outline>
    <contour>
      <point x="-84" y="0" type="line"/>
      <point x="115" y="0" type="line"/>
      <point x="226" y="182" type="line"/>
      <point x="257" y="182" type="line"/>
      <point x="220" y="0" type="line"/>
      <point x="388" y="0" type="line"/>
      <point x="425" y="182" type="line"/>
      <point x="455" y="182" type="line"/>
      <point x="500" y="0" type="line"/>
      <point x="683" y="0" type="line"/>
      <point x="518" y="553" type="line"/>
      <point x="290" y="553" type="line"/>
    </contour>
    <contour>
      <point x="300" y="306" type="line"/>
      <point x="328" y="349"/>
      <point x="363" y="404"/>
      <point x="388" y="449" type="curve"/>
      <point x="395" y="419"/>
      <point x="412" y="353"/>
      <point x="425" y="306" type="curve"/>
    </contour>
  </outline>
</glyph>
<glyph name="psilipneumatacomb-cy" format="2">
  <unicode hex="0486"/>
  <anchor x="-215" y="553" name="_top"/>
  <anchor x="-182" y="806" name="top"/>
  <outline>
    <contour>
      <point x="-287" y="588" type="line"/>
      <point x="-184" y="588"/>
      <point x="-82" y="634"/>
      <point x="-82" y="731" type="curve" smooth="yes"/>
      <point x="-82" y="778"/>
      <point x="-117" y="806"/>
      <point x="-164" y="806" type="curve" smooth="yes"/>
      <point x="-221" y="806"/>
      <point x="-252" y="780"/>
      <point x="-252" y="753" type="curve" smooth="yes"/>
      <point x="-252" y="728"/>
      <point x="-241" y="718"/>
      <point x="-218" y="711" type="curve" smooth="yes"/>
      <point x="-206" y="707"/>
      <point x="-193" y="700"/>
      <point x="-193" y="685" type="curve" smooth="yes"/>
      <point x="-193" y="655"/>
      <point x="-235" y="644"/>
      <point x="-287" y="639" type="curve"/>
    </contour>
  </outline>
</glyph>
<glyph name="uni0488" format="2">
  <advance width="985"/>
  <unicode hex="0488"/>
  <outline>
    <contour>
      <point x="652" y="456" type="curve"/>
      <point x="710" y="456" type="line"/>
      <point x="712" y="484"/>
      <point x="747" y="488"/>
      <point x="770" y="488" type="curve" smooth="yes"/>
      <point x="800" y="488"/>
      <point x="829" y="486"/>
      <point x="831" y="456" type="curve"/>
      <point x="887" y="456" type="line"/>
      <point x="884" y="517"/>
      <point x="839" y="557"/>
      <point x="770" y="557" type="curve" smooth="yes"/>
      <point x="705" y="557"/>
      <point x="655" y="515"/>
    </contour>
    <contour>
      <point x="82" y="-20" type="curve"/>
      <point x="140" y="-20" type="line"/>
      <point x="142" y="8"/>
      <point x="177" y="12"/>
      <point x="200" y="12" type="curve" smooth="yes"/>
      <point x="230" y="12"/>
      <point x="259" y="10"/>
      <point x="261" y="-20" type="curve"/>
      <point x="317" y="-20" type="line"/>
      <point x="314" y="41"/>
      <point x="269" y="81"/>
      <point x="200" y="81" type="curve" smooth="yes"/>
      <point x="135" y="81"/>
      <point x="85" y="39"/>
    </contour>
    <contour>
      <point x="363" y="-156" type="curve"/>
      <point x="421" y="-156" type="line"/>
      <point x="423" y="-128"/>
      <point x="458" y="-124"/>
      <point x="481" y="-124" type="curve" smooth="yes"/>
      <point x="511" y="-124"/>
      <point x="540" y="-126"/>
      <point x="542" y="-156" type="curve"/>
      <point x="598" y="-156" type="line"/>
      <point x="595" y="-95"/>
      <point x="550" y="-55"/>
      <point x="481" y="-55" type="curve" smooth="yes"/>
      <point x="416" y="-55"/>
      <point x="366" y="-97"/>
    </contour>
    <contour>
      <point x="10" y="221" type="curve"/>
      <point x="68" y="221" type="line"/>
      <point x="70" y="249"/>
      <point x="105" y="253"/>
      <point x="128" y="253" type="curve" smooth="yes"/>
      <point x="158" y="253"/>
      <point x="187" y="251"/>
      <point x="189" y="221" type="curve"/>
      <point x="245" y="221" type="line"/>
      <point x="242" y="282"/>
      <point x="197" y="322"/>
      <point x="128" y="322" type="curve" smooth="yes"/>
      <point x="63" y="322"/>
      <point x="13" y="280"/>
    </contour>
    <contour>
      <point x="82" y="456" type="curve"/>
      <point x="140" y="456" type="line"/>
      <point x="142" y="484"/>
      <point x="177" y="488"/>
      <point x="200" y="488" type="curve" smooth="yes"/>
      <point x="230" y="488"/>
      <point x="259" y="486"/>
      <point x="261" y="456" type="curve"/>
      <point x="317" y="456" type="line"/>
      <point x="314" y="517"/>
      <point x="269" y="557"/>
      <point x="200" y="557" type="curve" smooth="yes"/>
      <point x="135" y="557"/>
      <point x="85" y="515"/>
    </contour>
    <contour>
      <point x="652" y="-20" type="curve"/>
      <point x="710" y="-20" type="line"/>
      <point x="712" y="8"/>
      <point x="747" y="12"/>
      <point x="770" y="12" type="curve" smooth="yes"/>
      <point x="800" y="12"/>
      <point x="829" y="10"/>
      <point x="831" y="-20" type="curve"/>
      <point x="887" y="-20" type="line"/>
      <point x="884" y="41"/>
      <point x="839" y="81"/>
      <point x="770" y="81" type="curve" smooth="yes"/>
      <point x="705" y="81"/>
      <point x="655" y="39"/>
    </contour>
    <contour>
      <point x="724" y="221" type="curve"/>
      <point x="782" y="221" type="line"/>
      <point x="784" y="249"/>
      <point x="819" y="253"/>
      <point x="842" y="253" type="curve" smooth="yes"/>
      <point x="872" y="253"/>
      <point x="901" y="251"/>
      <point x="903" y="221" type="curve"/>
      <point x="959" y="221" type="line"/>
      <point x="956" y="282"/>
      <point x="911" y="322"/>
      <point x="842" y="322" type="curve" smooth="yes"/>
      <point x="777" y="322"/>
      <point x="727" y="280"/>
    </contour>
    <contour>
      <point x="363" y="595" type="curve"/>
      <point x="421" y="595" type="line"/>
      <point x="423" y="623"/>
      <point x="458" y="627"/>
      <point x="481" y="627" type="curve" smooth="yes"/>
      <point x="511" y="627"/>
      <point x="540" y="625"/>
      <point x="542" y="595" type="curve"/>
      <point x="598" y="595" type="line"/>
      <point x="595" y="656"/>
      <point x="550" y="696"/>
      <point x="481" y="696" type="curve" smooth="yes"/>
      <point x="416" y="696"/>
      <point x="366" y="654"/>
    </contour>
  </outline>
</glyph>
<glyph name="uni0489" format="2">
  <advance width="952"/>
  <unicode hex="0489"/>
  <outline>
    <contour>
      <point x="701" y="435" type="line"/>
      <point x="740" y="464"/>
      <point x="798" y="502"/>
      <point x="846" y="532" type="curve"/>
      <point x="785" y="593" type="line"/>
      <point x="732" y="573"/>
      <point x="671" y="546"/>
      <point x="626" y="520" type="curve"/>
      <point x="625" y="511" type="line"/>
    </contour>
    <contour>
      <point x="156" y="-74" type="line"/>
      <point x="208" y="-54"/>
      <point x="270" y="-26"/>
      <point x="314" y="0" type="curve"/>
      <point x="316" y="8" type="line"/>
      <point x="239" y="85" type="line"/>
      <point x="201" y="56"/>
      <point x="143" y="17"/>
      <point x="95" y="-12" type="curve"/>
    </contour>
    <contour>
      <point x="176" y="196" type="curve"/>
      <point x="183" y="201" type="line"/>
      <point x="183" y="309" type="line"/>
      <point x="135" y="316"/>
      <point x="67" y="330"/>
      <point x="12" y="343" type="curve"/>
      <point x="12" y="256" type="line"/>
      <point x="63" y="233"/>
      <point x="126" y="209"/>
    </contour>
    <contour>
      <point x="397" y="-188" type="curve"/>
      <point x="484" y="-188" type="line"/>
      <point x="507" y="-137"/>
      <point x="531" y="-74"/>
      <point x="544" y="-24" type="curve"/>
      <point x="539" y="-17" type="line"/>
      <point x="431" y="-17" type="line"/>
      <point x="424" y="-65"/>
      <point x="410" y="-133"/>
    </contour>
    <contour>
      <point x="742" y="-116" type="curve"/>
      <point x="803" y="-55" type="line"/>
      <point x="783" y="-2"/>
      <point x="756" y="59"/>
      <point x="730" y="104" type="curve"/>
      <point x="721" y="105" type="line"/>
      <point x="645" y="29" type="line"/>
      <point x="674" y="-10"/>
      <point x="712" y="-68"/>
    </contour>
    <contour>
      <point x="218" y="414" type="line"/>
      <point x="295" y="491" type="line"/>
      <point x="266" y="529"/>
      <point x="227" y="587"/>
      <point x="198" y="635" type="curve"/>
      <point x="136" y="574" type="line"/>
      <point x="156" y="522"/>
      <point x="184" y="460"/>
      <point x="210" y="416" type="curve"/>
    </contour>
    <contour>
      <point x="928" y="196" type="curve"/>
      <point x="928" y="283" type="line"/>
      <point x="877" y="306"/>
      <point x="814" y="330"/>
      <point x="764" y="343" type="curve"/>
      <point x="757" y="338" type="line"/>
      <point x="757" y="230" type="line"/>
      <point x="805" y="223"/>
      <point x="873" y="209"/>
    </contour>
    <contour>
      <point x="402" y="557" type="line"/>
      <point x="510" y="557" type="line"/>
      <point x="517" y="605"/>
      <point x="531" y="673"/>
      <point x="544" y="728" type="curve"/>
      <point x="457" y="728" type="line"/>
      <point x="434" y="677"/>
      <point x="410" y="614"/>
      <point x="397" y="564" type="curve"/>
    </contour>
  </outline>
</glyph>
<glyph name="uni048F" format="2">
  <advance width="607"/>
  <unicode hex="048F"/>
  <anchor x="194" y="-240" name="bottom"/>
  <anchor x="363" y="553" name="top"/>
  <anchor x="646" y="553" name="topright"/>
  <outline>
    <contour>
      <point x="431" y="-53" type="line"/>
      <point x="522" y="5" type="line"/>
      <point x="339" y="286" type="line"/>
      <point x="247" y="228" type="line"/>
    </contour>
    <component base="p"/>
  </outline>
</glyph>
<glyph name="uni04A3" format="2">
  <advance width="710"/>
  <unicode hex="04A3"/>
  <anchor x="253" y="-203" name="bottom"/>
  <anchor x="414" y="553" name="top"/>
  <outline>
    <contour>
      <point x="421" y="-203" type="line"/>
      <point x="595" y="-203" type="line"/>
      <point x="668" y="152" type="line"/>
      <point x="531" y="152" type="line"/>
      <point x="616" y="553" type="line"/>
      <point x="427" y="553" type="line"/>
      <point x="384" y="353" type="line"/>
      <point x="276" y="353" type="line"/>
      <point x="318" y="553" type="line"/>
      <point x="129" y="553" type="line"/>
      <point x="11" y="0" type="line"/>
      <point x="200" y="0" type="line"/>
      <point x="246" y="215" type="line"/>
      <point x="355" y="215" type="line"/>
      <point x="310" y="0" type="line"/>
      <point x="465" y="0" type="line"/>
    </contour>
  </outline>
</glyph>
<glyph name="uni04C8" format="2">
  <advance width="627"/>
  <unicode hex="04C8"/>
  <anchor x="204" y="-240" name="bottom"/>
  <anchor x="373" y="553" name="top"/>
  <outline>
    <contour>
      <point x="238" y="-240" type="curve" smooth="yes"/>
      <point x="389" y="-240"/>
      <point x="467" y="-160"/>
      <point x="498" y="-10" type="curve" smooth="yes"/>
      <point x="616" y="553" type="line"/>
      <point x="427" y="553" type="line"/>
      <point x="384" y="353" type="line"/>
      <point x="276" y="353" type="line"/>
      <point x="318" y="553" type="line"/>
      <point x="129" y="553" type="line"/>
      <point x="11" y="0" type="line"/>
      <point x="200" y="0" type="line"/>
      <point x="246" y="215" type="line"/>
      <point x="355" y="215" type="line"/>
      <point x="312" y="10" type="line" smooth="yes"/>
      <point x="296" y="-65"/>
      <point x="264" y="-88"/>
      <point x="204" y="-88" type="curve" smooth="yes"/>
      <point x="178" y="-88"/>
      <point x="144" y="-81"/>
      <point x="116" y="-69" type="curve"/>
      <point x="116" y="-217" type="line"/>
      <point x="150" y="-230"/>
      <point x="204" y="-240"/>
    </contour>
  </outline>
</glyph>
<glyph name="uni0512" format="2">
  <advance width="786"/>
  <unicode hex="0512"/>
  <anchor x="276" y="-275" name="bottom"/>
  <anchor x="486" y="714" name="top"/>
  <outline>
    <contour>
      <point x="460" y="-275" type="curve" smooth="yes"/>
      <point x="592" y="-275"/>
      <point x="669" y="-209"/>
      <point x="700" y="-53" type="curve" smooth="yes"/>
      <point x="741" y="149" type="line"/>
      <point x="596" y="149" type="line"/>
      <point x="714" y="714" type="line"/>
      <point x="245" y="714" type="line"/>
      <point x="186" y="486"/>
      <point x="140" y="332"/>
      <point x="109" y="254" type="curve" smooth="yes"/>
      <point x="66" y="146"/>
      <point x="34" y="142"/>
      <point x="5" y="142" type="curve" smooth="yes"/>
      <point x="-14" y="142"/>
      <point x="-25" y="145"/>
      <point x="-45" y="152" type="curve"/>
      <point x="-45" y="3" type="line"/>
      <point x="-19" y="-6"/>
      <point x="4" y="-10"/>
      <point x="31" y="-10" type="curve" smooth="yes"/>
      <point x="160" y="-10"/>
      <point x="221" y="42"/>
      <point x="289" y="210" type="curve" smooth="yes"/>
      <point x="314" y="271"/>
      <point x="365" y="454"/>
      <point x="394" y="562" type="curve"/>
      <point x="491" y="562" type="line"/>
      <point x="374" y="0" type="line"/>
      <point x="513" y="0" type="line"/>
      <point x="509" y="-21" type="line" smooth="yes"/>
      <point x="490" y="-109"/>
      <point x="455" y="-123"/>
      <point x="412" y="-123" type="curve" smooth="yes"/>
      <point x="393" y="-123"/>
      <point x="368" y="-118"/>
      <point x="351" y="-112" type="curve"/>
      <point x="351" y="-261" type="line"/>
      <point x="379" y="-270"/>
      <point x="422" y="-275"/>
    </contour>
  </outline>
</glyph>
<glyph name="uni052A" format="2">
  <advance width="1395"/>
  <unicode hex="052A"/>
  <anchor x="590" y="-223" name="bottom"/>
  <anchor x="789" y="714" name="top"/>
  <outline>
    <contour>
      <point x="617" y="291" type="line"/>
      <point x="866" y="291" type="line"/>
      <point x="901" y="449" type="line"/>
      <point x="651" y="449" type="line"/>
    </contour>
    <component base="afii10021"/>
    <component base="afii10028" xOffset="750"/>
  </outline>
</glyph>
<glyph name="uni1AB3" format="2">
  <unicode hex="1AB3"/>
  <anchor x="59" y="553" name="_top"/>
  <anchor x="95" y="859" name="top"/>
  <outline>
    <contour>
      <point x="51" y="569" type="curve"/>
      <point x="68" y="569" type="line"/>
      <point x="97" y="613"/>
      <point x="137" y="653"/>
      <point x="189" y="689" type="curve"/>
      <point x="203" y="752" type="line"/>
      <point x="175" y="743"/>
      <point x="149" y="725"/>
      <point x="127" y="711" type="curve"/>
      <point x="158" y="859" type="line"/>
      <point x="84" y="859" type="line"/>
      <point x="53" y="711" type="line"/>
      <point x="40" y="724"/>
      <point x="20" y="742"/>
      <point x="-3" y="752" type="curve"/>
      <point x="-17" y="689" type="line"/>
      <point x="17" y="653"/>
      <point x="42" y="613"/>
    </contour>
  </outline>
</glyph>
<glyph name="uni1AB8" format="2">
  <unicode hex="1AB8"/>
  <anchor x="-37" y="0" name="_bottom"/>
  <anchor x="-69" y="-294" name="bottom"/>
  <outline>
    <contour>
      <point x="73" y="-294" type="curve"/>
      <point x="91" y="-212" type="line"/>
      <point x="64" y="-204"/>
      <point x="48" y="-186"/>
      <point x="48" y="-156" type="curve" smooth="yes"/>
      <point x="48" y="-141"/>
      <point x="52" y="-120"/>
      <point x="57" y="-98" type="curve" smooth="yes"/>
      <point x="73" y="-25" type="line"/>
      <point x="-31" y="-25" type="line"/>
      <point x="-53" y="-127" type="line" smooth="yes"/>
      <point x="-58" y="-151"/>
      <point x="-62" y="-173"/>
      <point x="-61" y="-193" type="curve" smooth="yes"/>
      <point x="-59" y="-250"/>
      <point x="-23" y="-294"/>
    </contour>
    <contour>
      <point x="-99" y="-294" type="curve"/>
      <point x="-82" y="-212" type="line"/>
      <point x="-109" y="-204"/>
      <point x="-124" y="-186"/>
      <point x="-124" y="-156" type="curve" smooth="yes"/>
      <point x="-124" y="-141"/>
      <point x="-120" y="-119"/>
      <point x="-115" y="-96" type="curve" smooth="yes"/>
      <point x="-99" y="-25" type="line"/>
      <point x="-203" y="-25" type="line"/>
      <point x="-224" y="-127" type="line" smooth="yes"/>
      <point x="-231" y="-157"/>
      <point x="-234" y="-174"/>
      <point x="-234" y="-192" type="curve" smooth="yes"/>
      <point x="-232" y="-250"/>
      <point x="-195" y="-294"/>
    </contour>
  </outline>
</glyph>
<glyph name="uni1ABA" format="2">
  <unicode hex="1ABA"/>
  <anchor x="-26" y="0" name="_bottom"/>
  <anchor x="-47" y="-258" name="bottom"/>
  <outline>
    <contour>
      <point x="-143" y="-155" type="line"/>
      <point x="-35" y="-155" type="line"/>
      <point x="82" y="40" type="line"/>
      <point x="-26" y="40" type="line"/>
    </contour>
    <contour>
      <point x="-106" y="-258" type="curve" smooth="yes"/>
      <point x="-41" y="-258"/>
      <point x="0" y="-236"/>
      <point x="0" y="-161" type="curve" smooth="yes"/>
      <point x="0" y="-115"/>
      <point x="-31" y="-94"/>
      <point x="-76" y="-94" type="curve" smooth="yes"/>
      <point x="-132" y="-94"/>
      <point x="-180" y="-125"/>
      <point x="-180" y="-194" type="curve" smooth="yes"/>
      <point x="-180" y="-238"/>
      <point x="-150" y="-258"/>
    </contour>
  </outline>
</glyph>
<glyph name="uni1C81" format="2">
  <advance width="646"/>
  <unicode hex="1C81"/>
  <anchor x="213" y="-240" name="bottom"/>
  <anchor x="382" y="553" name="top"/>
  <outline>
    <contour>
      <point x="623" y="555" type="line"/>
      <point x="217" y="555" type="line"/>
      <point x="173" y="411"/>
      <point x="107" y="275"/>
      <point x="42" y="185" type="curve"/>
      <point x="-7" y="185" type="line"/>
      <point x="-97" y="-240" type="line"/>
      <point x="72" y="-240" type="line"/>
      <point x="132" y="40" type="line"/>
      <point x="416" y="40" type="line"/>
      <point x="356" y="-240" type="line"/>
      <point x="526" y="-240" type="line"/>
      <point x="616" y="185" type="line"/>
      <point x="544" y="185" type="line"/>
    </contour>
    <contour>
      <point x="408" y="410" type="line"/>
      <point x="360" y="185" type="line"/>
      <point x="229" y="185" type="line"/>
      <point x="280" y="278"/>
      <point x="305" y="332"/>
      <point x="332" y="410" type="curve"/>
    </contour>
  </outline>
</glyph>
<glyph name="uni1D00" format="2">
  <advance width="568"/>
  <unicode hex="1D00"/>
  <anchor x="225" y="0" name="bottom"/>
  <anchor x="343" y="553" name="top"/>
  <outline>
    <contour>
      <point x="-59" y="0" type="line"/>
      <point x="103" y="0" type="line"/>
      <point x="155" y="96" type="line"/>
      <point x="345" y="96" type="line"/>
      <point x="351" y="0" type="line"/>
      <point x="502" y="0" type="line"/>
      <point x="438" y="553" type="line"/>
      <point x="240" y="553" type="line"/>
    </contour>
    <contour>
      <point x="213" y="226" type="line"/>
      <point x="299" y="408" type="line" smooth="yes"/>
      <point x="309" y="427"/>
      <point x="316" y="442"/>
      <point x="321" y="455" type="curve"/>
      <point x="323" y="455" type="line"/>
      <point x="323" y="434"/>
      <point x="324" y="411"/>
      <point x="326" y="389" type="curve" smooth="yes"/>
      <point x="338" y="226" type="line"/>
    </contour>
  </outline>
</glyph>
<glyph name="uni1D03" format="2">
  <advance width="559"/>
  <unicode hex="1D03"/>
  <anchor x="220" y="0" name="bottom"/>
  <anchor x="338" y="553" name="top"/>
  <outline>
    <contour>
      <point x="-8" y="224" type="line"/>
      <point x="542" y="224" type="line"/>
      <point x="567" y="348" type="line"/>
      <point x="17" y="348" type="line"/>
    </contour>
    <component base="uni0299"/>
  </outline>
</glyph>
<glyph name="uni1D04" format="2">
  <advance width="544"/>
  <unicode hex="1D04"/>
  <anchor x="213" y="0" name="bottom"/>
  <anchor x="331" y="553" name="top"/>
  <outline>
    <contour>
      <point x="266" y="-6" type="curve" smooth="yes"/>
      <point x="347" y="-6"/>
      <point x="415" y="18"/>
      <point x="442" y="28" type="curve"/>
      <point x="441" y="161" type="line"/>
      <point x="392" y="140"/>
      <point x="343" y="125"/>
      <point x="298" y="125" type="curve" smooth="yes"/>
      <point x="220" y="125"/>
      <point x="194" y="153"/>
      <point x="194" y="230" type="curve" smooth="yes"/>
      <point x="194" y="310"/>
      <point x="239" y="433"/>
      <point x="352" y="433" type="curve" smooth="yes"/>
      <point x="404" y="433"/>
      <point x="445" y="414"/>
      <point x="489" y="388" type="curve"/>
      <point x="548" y="517" type="line"/>
      <point x="488" y="547"/>
      <point x="438" y="564"/>
      <point x="351" y="564" type="curve" smooth="yes"/>
      <point x="128" y="564"/>
      <point x="36" y="379"/>
      <point x="36" y="221" type="curve" smooth="yes"/>
      <point x="36" y="84"/>
      <point x="110" y="-6"/>
    </contour>
  </outline>
</glyph>
<glyph name="uni1D07" format="2">
  <advance width="496"/>
  <unicode hex="1D07"/>
  <anchor x="189" y="0" name="bottom"/>
  <anchor x="307" y="553" name="top"/>
  <outline>
    <contour>
      <point x="16" y="0" type="line"/>
      <point x="373" y="0" type="line"/>
      <point x="397" y="128" type="line"/>
      <point x="198" y="128" type="line"/>
      <point x="220" y="223" type="line"/>
      <point x="405" y="223" type="line"/>
      <point x="432" y="350" type="line"/>
      <point x="247" y="350" type="line"/>
      <point x="265" y="426" type="line"/>
      <point x="465" y="426" type="line"/>
      <point x="489" y="553" type="line"/>
      <point x="133" y="553" type="line"/>
    </contour>
  </outline>
</glyph>
<glyph name="uni1D0A" format="2">
  <advance width="429"/>
  <unicode hex="1D0A"/>
  <anchor x="173" y="-177" name="bottom"/>
  <anchor x="329" y="553" name="top"/>
  <outline>
    <contour>
      <point x="93" y="-10" type="curve" smooth="yes"/>
      <point x="230" y="-10"/>
      <point x="297" y="48"/>
      <point x="328" y="194" type="curve" smooth="yes"/>
      <point x="405" y="553" type="line"/>
      <point x="249" y="553" type="line"/>
      <point x="177" y="219" type="line" smooth="yes"/>
      <point x="163" y="153"/>
      <point x="134" y="122"/>
      <point x="78" y="122" type="curve" smooth="yes"/>
      <point x="47" y="122"/>
      <point x="26" y="126"/>
      <point x="9" y="129" type="curve"/>
      <point x="9" y="1" type="line"/>
      <point x="33" y="-4"/>
      <point x="53" y="-10"/>
    </contour>
  </outline>
</glyph>
<glyph name="uni1D0B" format="2">
  <advance width="560"/>
  <unicode hex="1D0B"/>
  <anchor x="221" y="0" name="bottom"/>
  <anchor x="339" y="553" name="top"/>
  <outline>
    <contour>
      <point x="16" y="0" type="line"/>
      <point x="173" y="0" type="line"/>
      <point x="209" y="177" type="line"/>
      <point x="249" y="185" type="line"/>
      <point x="323" y="0" type="line"/>
      <point x="497" y="0" type="line"/>
      <point x="385" y="269" type="line"/>
      <point x="615" y="553" type="line"/>
      <point x="431" y="553" type="line"/>
      <point x="279" y="353" type="line" smooth="yes"/>
      <point x="267" y="337"/>
      <point x="246" y="310"/>
      <point x="231" y="287" type="curve"/>
      <point x="289" y="553" type="line"/>
      <point x="133" y="553" type="line"/>
    </contour>
  </outline>
</glyph>
<glyph name="uni1D0D" format="2">
  <advance width="790"/>
  <unicode hex="1D0D"/>
  <anchor x="336" y="0" name="bottom"/>
  <anchor x="454" y="553" name="top"/>
  <outline>
    <contour>
      <point x="16" y="0" type="line"/>
      <point x="153" y="0" type="line"/>
      <point x="195" y="190" type="line" smooth="yes"/>
      <point x="211" y="263"/>
      <point x="224" y="344"/>
      <point x="228" y="378" type="curve"/>
      <point x="232" y="378" type="line"/>
      <point x="242" y="0" type="line"/>
      <point x="391" y="0" type="line"/>
      <point x="585" y="378" type="line"/>
      <point x="589" y="378" type="line"/>
      <point x="574" y="321"/>
      <point x="553" y="240"/>
      <point x="545" y="202" type="curve" smooth="yes"/>
      <point x="500" y="0" type="line"/>
      <point x="643" y="0" type="line"/>
      <point x="760" y="553" type="line"/>
      <point x="550" y="553" type="line"/>
      <point x="357" y="173" type="line"/>
      <point x="353" y="173" type="line"/>
      <point x="341" y="553" type="line"/>
      <point x="133" y="553" type="line"/>
    </contour>
  </outline>
</glyph>
<glyph name="uni1D0F" format="2">
  <advance width="631"/>
  <unicode hex="1D0F"/>
  <anchor x="257" y="0" name="bottom"/>
  <anchor x="375" y="553" name="top"/>
  <outline>
    <contour>
      <point x="264" y="-6" type="curve" smooth="yes"/>
      <point x="496" y="-6"/>
      <point x="584" y="190"/>
      <point x="584" y="357" type="curve" smooth="yes"/>
      <point x="584" y="479"/>
      <point x="512" y="563"/>
      <point x="357" y="563" type="curve" smooth="yes"/>
      <point x="122" y="563"/>
      <point x="35" y="362"/>
      <point x="35" y="208" type="curve" smooth="yes"/>
      <point x="35" y="81"/>
      <point x="114" y="-6"/>
    </contour>
    <contour>
      <point x="276" y="125" type="curve" smooth="yes"/>
      <point x="224" y="125"/>
      <point x="192" y="148"/>
      <point x="192" y="206" type="curve" smooth="yes"/>
      <point x="192" y="327"/>
      <point x="261" y="433"/>
      <point x="346" y="433" type="curve" smooth="yes"/>
      <point x="403" y="433"/>
      <point x="426" y="398"/>
      <point x="426" y="351" type="curve" smooth="yes"/>
      <point x="426" y="195"/>
      <point x="349" y="125"/>
    </contour>
  </outline>
</glyph>
<glyph name="uni1D18" format="2">
  <advance width="575"/>
  <unicode hex="1D18"/>
  <anchor x="229" y="0" name="bottom"/>
  <anchor x="347" y="553" name="top"/>
  <outline>
    <contour>
      <point x="16" y="0" type="line"/>
      <point x="173" y="0" type="line"/>
      <point x="211" y="179" type="line"/>
      <point x="281" y="179" type="line" smooth="yes"/>
      <point x="415" y="179"/>
      <point x="538" y="237"/>
      <point x="538" y="381" type="curve" smooth="yes"/>
      <point x="538" y="480"/>
      <point x="480" y="553"/>
      <point x="321" y="553" type="curve" smooth="yes"/>
      <point x="133" y="553" type="line"/>
    </contour>
    <contour>
      <point x="237" y="310" type="line"/>
      <point x="264" y="425" type="line"/>
      <point x="321" y="425" type="line" smooth="yes"/>
      <point x="361" y="425"/>
      <point x="382" y="405"/>
      <point x="382" y="377" type="curve" smooth="yes"/>
      <point x="382" y="329"/>
      <point x="339" y="310"/>
      <point x="288" y="310" type="curve" smooth="yes"/>
    </contour>
  </outline>
</glyph>
<glyph name="uni1D1A" format="2">
  <advance width="543"/>
  <unicode hex="1D1A"/>
  <anchor x="213" y="0" name="bottom"/>
  <anchor x="331" y="553" name="top"/>
  <outline>
    <contour>
      <point x="253" y="0" type="curve" smooth="yes"/>
      <point x="410" y="0" type="line"/>
      <point x="527" y="553" type="line"/>
      <point x="370" y="553" type="line"/>
      <point x="328" y="356" type="line"/>
      <point x="308" y="356" type="line"/>
      <point x="238" y="553" type="line"/>
      <point x="68" y="553" type="line"/>
      <point x="159" y="323" type="line"/>
      <point x="104" y="302"/>
      <point x="38" y="253"/>
      <point x="38" y="159" type="curve" smooth="yes"/>
      <point x="38" y="42"/>
      <point x="127" y="0"/>
    </contour>
    <contour>
      <point x="268" y="119" type="line" smooth="yes"/>
      <point x="224" y="119"/>
      <point x="207" y="144"/>
      <point x="207" y="172" type="curve" smooth="yes"/>
      <point x="207" y="227"/>
      <point x="245" y="238"/>
      <point x="292" y="238" type="curve" smooth="yes"/>
      <point x="304" y="238" type="line"/>
      <point x="279" y="119" type="line"/>
    </contour>
  </outline>
</glyph>
<glyph name="uni1D1B" format="2">
  <advance width="473"/>
  <unicode hex="1D1B"/>
  <anchor x="178" y="0" name="bottom"/>
  <anchor x="296" y="553" name="top"/>
  <outline>
    <contour>
      <point x="91" y="0" type="line"/>
      <point x="247" y="0" type="line"/>
      <point x="338" y="424" type="line"/>
      <point x="471" y="424" type="line"/>
      <point x="497" y="553" type="line"/>
      <point x="75" y="553" type="line"/>
      <point x="48" y="424" type="line"/>
      <point x="181" y="424" type="line"/>
    </contour>
  </outline>
</glyph>
<glyph name="uni1D1C" format="2">
  <advance width="614"/>
  <unicode hex="1D1C"/>
  <anchor x="248" y="0" name="bottom"/>
  <anchor x="366" y="553" name="top"/>
  <outline>
    <contour>
      <point x="240" y="-7" type="curve" smooth="yes"/>
      <point x="406" y="-7"/>
      <point x="488" y="86"/>
      <point x="512" y="201" type="curve" smooth="yes"/>
      <point x="587" y="553" type="line"/>
      <point x="430" y="553" type="line"/>
      <point x="359" y="217" type="line" smooth="yes"/>
      <point x="345" y="154"/>
      <point x="310" y="124"/>
      <point x="262" y="124" type="curve" smooth="yes"/>
      <point x="232" y="124"/>
      <point x="209" y="141"/>
      <point x="209" y="176" type="curve" smooth="yes"/>
      <point x="209" y="191"/>
      <point x="213" y="211"/>
      <point x="215" y="222" type="curve" smooth="yes"/>
      <point x="285" y="553" type="line"/>
      <point x="129" y="553" type="line"/>
      <point x="61" y="235" type="line" smooth="yes"/>
      <point x="56" y="211"/>
      <point x="53" y="186"/>
      <point x="52" y="162" type="curve" smooth="yes"/>
      <point x="48" y="71"/>
      <point x="119" y="-7"/>
    </contour>
  </outline>
</glyph>
<glyph name="uni1D24" format="2">
  <advance width="576"/>
  <unicode hex="1D24"/>
  <anchor x="230" y="0" name="bottom"/>
  <anchor x="392" y="760" name="top"/>
  <outline>
    <contour>
      <point x="250" y="-7" type="curve" smooth="yes"/>
      <point x="333" y="-7"/>
      <point x="398" y="12"/>
      <point x="487" y="61" type="curve"/>
      <point x="431" y="199" type="line"/>
      <point x="367" y="164"/>
      <point x="327" y="150"/>
      <point x="289" y="150" type="curve" smooth="yes"/>
      <point x="250" y="150"/>
      <point x="226" y="168"/>
      <point x="226" y="197" type="curve" smooth="yes"/>
      <point x="226" y="247"/>
      <point x="288" y="288"/>
      <point x="402" y="314" type="curve"/>
      <point x="412" y="359" type="line"/>
      <point x="528" y="404"/>
      <point x="605" y="471"/>
      <point x="605" y="585" type="curve" smooth="yes"/>
      <point x="605" y="701"/>
      <point x="520" y="765"/>
      <point x="392" y="765" type="curve" smooth="yes"/>
      <point x="309" y="765"/>
      <point x="244" y="746"/>
      <point x="155" y="697" type="curve"/>
      <point x="211" y="559" type="line"/>
      <point x="275" y="594"/>
      <point x="315" y="608"/>
      <point x="353" y="608" type="curve" smooth="yes"/>
      <point x="392" y="608"/>
      <point x="416" y="590"/>
      <point x="416" y="561" type="curve" smooth="yes"/>
      <point x="416" y="511"/>
      <point x="354" y="470"/>
      <point x="240" y="444" type="curve"/>
      <point x="230" y="399" type="line"/>
      <point x="119" y="356"/>
      <point x="37" y="288"/>
      <point x="37" y="175" type="curve" smooth="yes"/>
      <point x="37" y="58"/>
      <point x="121" y="-7"/>
    </contour>
  </outline>
</glyph>
<glyph name="uni1D3B" format="2">
  <advance width="514"/>
  <unicode hex="1D3B"/>
  <anchor x="268" y="287" name="bottom"/>
  <anchor x="373" y="715" name="top"/>
  <anchor x="614" y="715" name="topright"/>
  <outline>
    <contour>
      <point x="63" y="287" type="line"/>
      <point x="208" y="287" type="line"/>
      <point x="431" y="573" type="line"/>
      <point x="432" y="572" type="line"/>
      <point x="425" y="547"/>
      <point x="409" y="496"/>
      <point x="402" y="466" type="curve" smooth="yes"/>
      <point x="360" y="287" type="line"/>
      <point x="472" y="287" type="line"/>
      <point x="571" y="715" type="line"/>
      <point x="426" y="715" type="line"/>
      <point x="200" y="434" type="line"/>
      <point x="198" y="435" type="line"/>
      <point x="203" y="449"/>
      <point x="226" y="514"/>
      <point x="235" y="553" type="curve" smooth="yes"/>
      <point x="273" y="715" type="line"/>
      <point x="162" y="715" type="line"/>
    </contour>
  </outline>
</glyph>
<glyph name="uni1D70" format="2">
  <advance width="622"/>
  <unicode hex="1D70"/>
  <anchor x="256" y="0" name="bottom"/>
  <anchor x="376" y="553" name="top"/>
  <anchor x="661" y="553" name="topright"/>
  <outline>
    <contour>
      <point x="508" y="141" type="curve" smooth="yes"/>
      <point x="632" y="141"/>
      <point x="721" y="221"/>
      <point x="729" y="344" type="curve"/>
      <point x="628" y="344" type="line"/>
      <point x="620" y="299"/>
      <point x="589" y="275"/>
      <point x="533" y="275" type="curve" smooth="yes"/>
      <point x="413" y="275"/>
      <point x="238" y="353"/>
      <point x="101" y="353" type="curve" smooth="yes"/>
      <point x="-27" y="353"/>
      <point x="-106" y="273"/>
      <point x="-114" y="150" type="curve"/>
      <point x="-12" y="150" type="line"/>
      <point x="-8" y="189"/>
      <point x="16" y="216"/>
      <point x="70" y="216" type="curve" smooth="yes"/>
      <point x="186" y="216"/>
      <point x="373" y="141"/>
    </contour>
    <component base="n"/>
  </outline>
</glyph>
<glyph name="uni1D7A" format="2">
  <advance width="1023"/>
  <unicode hex="1D7A"/>
  <anchor x="198" y="0" name="bottom_1"/>
  <anchor x="660" y="0" name="bottom_2"/>
  <anchor x="218" y="277" name="center_1"/>
  <anchor x="771" y="277" name="center_2"/>
  <anchor x="312" y="664" name="top_1"/>
  <anchor x="666" y="760" name="top_2"/>
  <anchor x="519" y="664" name="topright_1"/>
  <anchor x="1066" y="760" name="topright_2"/>
  <outline>
    <contour>
      <point x="-3" y="-75" type="line"/>
      <point x="148" y="-75" type="line"/>
      <point x="973" y="760" type="line"/>
      <point x="821" y="760" type="line"/>
    </contour>
    <component base="t"/>
    <component base="h" xOffset="401"/>
  </outline>
</glyph>
<glyph name="uni1D7B" format="2">
  <advance width="362"/>
  <unicode hex="1D7B"/>
  <anchor x="120" y="0" name="bottom"/>
  <anchor x="238" y="553" name="top"/>
  <outline>
    <contour>
      <point x="-1" y="217" type="line"/>
      <point x="316" y="217" type="line"/>
      <point x="341" y="332" type="line"/>
      <point x="24" y="332" type="line"/>
    </contour>
    <component base="uni026A"/>
  </outline>
</glyph>
<glyph name="uni1D7D" format="2">
  <advance width="607"/>
  <unicode hex="1D7D"/>
  <anchor x="194" y="-240" name="bottom"/>
  <anchor x="363" y="553" name="top"/>
  <anchor x="646" y="553" name="topright"/>
  <outline>
    <contour>
      <point x="-11" y="219" type="line"/>
      <point x="599" y="219" type="line"/>
      <point x="624" y="332" type="line"/>
      <point x="14" y="332" type="line"/>
    </contour>
    <component base="p"/>
  </outline>
</glyph>
<glyph name="uni1D7F" format="2">
  <advance width="632"/>
  <unicode hex="1D7F"/>
  <anchor x="257" y="0" name="bottom"/>
  <anchor x="375" y="553" name="top"/>
  <outline>
    <contour>
      <point x="-15" y="210" type="line"/>
      <point x="638" y="210" type="line"/>
      <point x="663" y="324" type="line"/>
      <point x="10" y="324" type="line"/>
    </contour>
    <component base="uni028A"/>
  </outline>
</glyph>
<glyph name="uni1D85" format="2">
  <advance width="338"/>
  <unicode hex="1D85"/>
  <anchor x="57" y="-240" name="bottom"/>
  <anchor x="267" y="758" name="top"/>
  <outline>
    <contour>
      <point x="78" y="-240" type="curve" smooth="yes"/>
      <point x="174" y="-240"/>
      <point x="226" y="-192"/>
      <point x="256" y="-51" type="curve" smooth="yes"/>
      <point x="300" y="158" type="line"/>
      <point x="233" y="158" type="line"/>
      <point x="361" y="760" type="line"/>
      <point x="172" y="760" type="line"/>
      <point x="11" y="0" type="line"/>
      <point x="111" y="0" type="line"/>
      <point x="99" y="-59" type="line" smooth="yes"/>
      <point x="91" y="-99"/>
      <point x="73" y="-114"/>
      <point x="42" y="-114" type="curve" smooth="yes"/>
      <point x="23" y="-114"/>
      <point x="8" y="-110"/>
      <point x="-6" y="-105" type="curve"/>
      <point x="-5" y="-227" type="line"/>
      <point x="18" y="-236"/>
      <point x="44" y="-240"/>
    </contour>
  </outline>
</glyph>
<glyph name="acutemacron" format="2">
  <unicode hex="1DC7"/>
  <anchor x="56" y="553" name="_top"/>
  <anchor x="83" y="750" name="top"/>
  <outline>
    <contour>
      <point x="-26" y="583" type="line"/>
      <point x="92" y="647" type="line"/>
      <point x="234" y="647" type="line"/>
      <point x="233" y="750" type="line"/>
      <point x="70" y="750" type="line"/>
      <point x="-73" y="672" type="line"/>
    </contour>
  </outline>
</glyph>
<glyph name="ogonekabove" format="2">
  <unicode hex="1DCE"/>
  <anchor x="-144" y="553" name="_top"/>
  <anchor x="-121" y="816" name="top"/>
  <outline>
    <contour>
      <point x="-123" y="495" type="line"/>
      <point x="-44" y="553"/>
      <point x="11" y="619"/>
      <point x="11" y="698" type="curve" smooth="yes"/>
      <point x="11" y="787"/>
      <point x="-66" y="816"/>
      <point x="-129" y="816" type="curve" smooth="yes"/>
      <point x="-172" y="816"/>
      <point x="-204" y="810"/>
      <point x="-232" y="800" type="curve"/>
      <point x="-256" y="699" type="line"/>
      <point x="-237" y="706"/>
      <point x="-209" y="711"/>
      <point x="-183" y="711" type="curve" smooth="yes"/>
      <point x="-145" y="711"/>
      <point x="-120" y="690"/>
      <point x="-120" y="657" type="curve" smooth="yes"/>
      <point x="-120" y="606"/>
      <point x="-144" y="577"/>
      <point x="-201" y="523" type="curve"/>
    </contour>
  </outline>
</glyph>
<glyph name="uni1DFC" format="2">
  <unicode hex="1DFC"/>
  <anchor x="-54" y="21" name="_bottom"/>
  <outline>
    <contour>
      <point x="-407" y="-217" type="curve"/>
      <point x="-304" y="-217" type="line"/>
      <point x="-281" y="-164"/>
      <point x="-201" y="-155"/>
      <point x="-91" y="-155" type="curve" smooth="yes"/>
      <point x="5" y="-155"/>
      <point x="93" y="-164"/>
      <point x="94" y="-217" type="curve"/>
      <point x="196" y="-217" type="line"/>
      <point x="196" y="-99"/>
      <point x="96" y="-39"/>
      <point x="-93" y="-39" type="curve" smooth="yes"/>
      <point x="-257" y="-39"/>
      <point x="-372" y="-87"/>
    </contour>
  </outline>
</glyph>
<glyph name="arrowheadrightheaddownbelow" format="2">
  <unicode hex="1DFF"/>
  <anchor x="-41" y="0" name="_bottom"/>
  <anchor x="-69" y="-240" name="bottom"/>
  <outline>
    <contour>
      <point x="-17" y="-237" type="curve"/>
      <point x="51" y="-237" type="line"/>
      <point x="65" y="-191"/>
      <point x="99" y="-103"/>
      <point x="119" y="-65" type="curve"/>
      <point x="119" y="-53" type="line"/>
      <point x="68" y="-53" type="line"/>
      <point x="51" y="-80"/>
      <point x="34" y="-128"/>
      <point x="19" y="-165" type="curve"/>
      <point x="6" y="-128"/>
      <point x="-14" y="-77"/>
      <point x="-31" y="-53" type="curve"/>
      <point x="-82" y="-53" type="line"/>
      <point x="-82" y="-65" type="line"/>
      <point x="-60" y="-103"/>
      <point x="-28" y="-191"/>
    </contour>
    <contour>
      <point x="-260" y="-240" type="line"/>
      <point x="-249" y="-240" type="line"/>
      <point x="-210" y="-219"/>
      <point x="-143" y="-187"/>
      <point x="-96" y="-175" type="curve"/>
      <point x="-96" y="-107" type="line"/>
      <point x="-143" y="-93"/>
      <point x="-210" y="-60"/>
      <point x="-249" y="-40" type="curve"/>
      <point x="-260" y="-40" type="line"/>
      <point x="-260" y="-90" type="line"/>
      <point x="-233" y="-107"/>
      <point x="-205" y="-122"/>
      <point x="-168" y="-140" type="curve"/>
      <point x="-205" y="-158"/>
      <point x="-236" y="-173"/>
      <point x="-260" y="-189" type="curve"/>
    </contour>
  </outline>
</glyph>
<glyph name="uni1E10" format="2">
  <advance width="684"/>
  <unicode hex="1E10"/>
  <anchor x="230" y="-240" name="bottom"/>
  <anchor x="425" y="714" name="top"/>
  <anchor x="384" y="357" name="center"/>
  <anchor x="757" y="714" name="topright"/>
  <outline>
    <contour>
      <point x="238" y="-240" type="curve" smooth="yes"/>
      <point x="336" y="-240"/>
      <point x="392" y="-194"/>
      <point x="392" y="-115" type="curve" smooth="yes"/>
      <point x="392" y="-57"/>
      <point x="356" y="-31"/>
      <point x="305" y="-20" type="curve"/>
      <point x="327" y="16" type="line"/>
      <point x="227" y="16" type="line"/>
      <point x="180" y="-66" type="line"/>
      <point x="240" y="-78"/>
      <point x="251" y="-97"/>
      <point x="251" y="-115" type="curve" smooth="yes"/>
      <point x="251" y="-133"/>
      <point x="239" y="-139"/>
      <point x="218" y="-139" type="curve" smooth="yes"/>
      <point x="206" y="-139"/>
      <point x="166" y="-133"/>
      <point x="144" y="-126" type="curve"/>
      <point x="144" y="-226" type="line"/>
      <point x="168" y="-235"/>
      <point x="198" y="-240"/>
    </contour>
    <component base="D"/>
  </outline>
</glyph>
<glyph name="longsdiagonalstroke" format="2">
  <advance width="367"/>
  <unicode hex="1E9C"/>
  <anchor x="74" y="-240" name="bottom"/>
  <anchor x="288" y="765" name="top"/>
  <outline>
    <contour>
      <point x="25" y="184" type="line"/>
      <point x="430" y="386" type="line"/>
      <point x="377" y="496" type="line"/>
      <point x="-28" y="294" type="line"/>
    </contour>
    <component base="longs"/>
  </outline>
</glyph>
<glyph name="LL-middleWelsh" format="2">
  <advance width="854"/>
  <unicode hex="1EFA"/>
  <anchor x="561" y="0" name="bottom"/>
  <anchor x="615" y="714" name="top"/>
  <anchor x="633" y="357" name="center"/>
  <anchor x="837" y="714" name="topright"/>
  <outline>
    <contour>
      <point x="16" y="0" type="line"/>
      <point x="207" y="0" type="line"/>
      <point x="358" y="714" type="line"/>
      <point x="167" y="714" type="line"/>
    </contour>
    <component base="L" xOffset="327"/>
  </outline>
</glyph>
<glyph name="ll-middleWelsh" format="2">
  <advance width="650"/>
  <unicode hex="1EFB"/>
  <anchor x="429" y="0" name="bottom"/>
  <anchor x="592" y="760" name="top"/>
  <anchor x="547" y="277" name="center_1"/>
  <anchor x="222" y="277" name="center_2"/>
  <anchor x="704" y="760" name="topright_1"/>
  <anchor x="379" y="760" name="topright_2"/>
  <outline>
    <contour>
      <point x="49" y="570" type="line"/>
      <point x="726" y="570" type="line"/>
      <point x="752" y="688" type="line"/>
      <point x="74" y="688" type="line"/>
    </contour>
    <component base="l" xOffset="325"/>
    <component base="l"/>
  </outline>
</glyph>
<glyph name="uni1FBD" format="2">
  <advance width="263"/>
  <unicode hex="1FBD"/>
  <anchor x="193" y="553" name="_top"/>
  <outline>
    <contour>
      <point x="138" y="589" type="line"/>
      <point x="236" y="589"/>
      <point x="299" y="640"/>
      <point x="299" y="722" type="curve" smooth="yes"/>
      <point x="299" y="766"/>
      <point x="276" y="799"/>
      <point x="222" y="799" type="curve"/>
      <point x="185" y="799"/>
      <point x="155" y="777"/>
      <point x="155" y="736" type="curve" smooth="yes"/>
      <point x="155" y="702"/>
      <point x="181" y="683"/>
      <point x="213" y="679" type="curve"/>
      <point x="208" y="661"/>
      <point x="188" y="649"/>
      <point x="149" y="645" type="curve"/>
    </contour>
  </outline>
</glyph>
<glyph name="uni1FC1" format="2">
  <advance width="600"/>
  <unicode hex="1FC1"/>
  <anchor x="375" y="553" name="_top"/>
  <outline>
    <contour>
      <point x="191" y="761" type="curve"/>
      <point x="283" y="761" type="line"/>
      <point x="287" y="791"/>
      <point x="310" y="810"/>
      <point x="330" y="810" type="curve" smooth="yes"/>
      <point x="374" y="810"/>
      <point x="413" y="762"/>
      <point x="476" y="762" type="curve" smooth="yes"/>
      <point x="554" y="762"/>
      <point x="608" y="806"/>
      <point x="633" y="919" type="curve"/>
      <point x="540" y="919" type="line"/>
      <point x="528" y="886"/>
      <point x="507" y="870"/>
      <point x="484" y="870" type="curve" smooth="yes"/>
      <point x="439" y="870"/>
      <point x="401" y="918"/>
      <point x="344" y="918" type="curve" smooth="yes"/>
      <point x="268" y="918"/>
      <point x="213" y="872"/>
    </contour>
    <contour>
      <point x="272" y="609" type="curve" smooth="yes"/>
      <point x="331" y="609"/>
      <point x="352" y="640"/>
      <point x="352" y="685" type="curve" smooth="yes"/>
      <point x="352" y="727"/>
      <point x="317" y="735"/>
      <point x="284" y="735" type="curve" smooth="yes"/>
      <point x="233" y="735"/>
      <point x="204" y="713"/>
      <point x="204" y="660" type="curve" smooth="yes"/>
      <point x="204" y="620"/>
      <point x="232" y="609"/>
    </contour>
    <contour>
      <point x="487" y="609" type="curve" smooth="yes"/>
      <point x="546" y="609"/>
      <point x="566" y="640"/>
      <point x="566" y="685" type="curve" smooth="yes"/>
      <point x="566" y="727"/>
      <point x="532" y="735"/>
      <point x="499" y="735" type="curve" smooth="yes"/>
      <point x="448" y="735"/>
      <point x="419" y="713"/>
      <point x="419" y="660" type="curve" smooth="yes"/>
      <point x="419" y="620"/>
      <point x="447" y="609"/>
    </contour>
  </outline>
</glyph>
<glyph name="uni1FCD" format="2">
  <advance width="600"/>
  <unicode hex="1FCD"/>
  <anchor x="363" y="553" name="_top"/>
  <anchor x="373" y="785" name="top"/>
  <outline>
    <contour>
      <point x="195" y="588" type="line"/>
      <point x="287" y="588"/>
      <point x="370" y="630"/>
      <point x="370" y="714" type="curve" smooth="yes"/>
      <point x="370" y="760"/>
      <point x="336" y="785"/>
      <point x="296" y="785" type="curve" smooth="yes"/>
      <point x="250" y="785"/>
      <point x="224" y="759"/>
      <point x="224" y="726" type="curve" smooth="yes"/>
      <point x="224" y="689"/>
      <point x="252" y="680"/>
      <point x="278" y="675" type="curve"/>
      <point x="271" y="650"/>
      <point x="244" y="637"/>
      <point x="204" y="635" type="curve"/>
    </contour>
    <contour>
      <point x="459" y="597" type="curve"/>
      <point x="546" y="597" type="line"/>
      <point x="546" y="610" type="line"/>
      <point x="541" y="644"/>
      <point x="533" y="735"/>
      <point x="534" y="776" type="curve"/>
      <point x="383" y="776" type="line"/>
      <point x="383" y="761" type="line"/>
      <point x="395" y="711"/>
      <point x="434" y="635"/>
    </contour>
  </outline>
</glyph>
<glyph name="uni1FCE" format="2">
  <advance width="600"/>
  <unicode hex="1FCE"/>
  <anchor x="347" y="553" name="_top"/>
  <anchor x="392" y="785" name="top"/>
  <outline>
    <contour>
      <point x="365" y="590" type="line"/>
      <point x="457" y="590" type="line"/>
      <point x="497" y="632"/>
      <point x="558" y="715"/>
      <point x="582" y="762" type="curve"/>
      <point x="582" y="776" type="line"/>
      <point x="428" y="776" type="line"/>
      <point x="416" y="733"/>
      <point x="386" y="642"/>
      <point x="365" y="603" type="curve"/>
    </contour>
    <contour>
      <point x="197" y="588" type="line"/>
      <point x="289" y="588"/>
      <point x="372" y="630"/>
      <point x="372" y="714" type="curve" smooth="yes"/>
      <point x="372" y="760"/>
      <point x="338" y="785"/>
      <point x="298" y="785" type="curve" smooth="yes"/>
      <point x="252" y="785"/>
      <point x="226" y="759"/>
      <point x="226" y="726" type="curve" smooth="yes"/>
      <point x="226" y="689"/>
      <point x="254" y="680"/>
      <point x="280" y="675" type="curve"/>
      <point x="273" y="650"/>
      <point x="246" y="637"/>
      <point x="206" y="635" type="curve"/>
    </contour>
  </outline>
</glyph>
<glyph name="uni1FCF" format="2">
  <advance width="600"/>
  <unicode hex="1FCF"/>
  <outline>
    <contour>
      <point x="220" y="762" type="curve"/>
      <point x="297" y="762" type="line"/>
      <point x="302" y="786"/>
      <point x="316" y="805"/>
      <point x="339" y="805" type="curve" smooth="yes"/>
      <point x="375" y="805"/>
      <point x="423" y="762"/>
      <point x="483" y="762" type="curve" smooth="yes"/>
      <point x="543" y="762"/>
      <point x="583" y="796"/>
      <point x="598" y="885" type="curve"/>
      <point x="523" y="885" type="line"/>
      <point x="516" y="860"/>
      <point x="505" y="842"/>
      <point x="475" y="842" type="curve" smooth="yes"/>
      <point x="446" y="842"/>
      <point x="404" y="885"/>
      <point x="341" y="885" type="curve" smooth="yes"/>
      <point x="275" y="885"/>
      <point x="232" y="846"/>
    </contour>
    <contour>
      <point x="307" y="630" type="curve"/>
      <point x="298" y="586" type="line"/>
      <point x="385" y="586"/>
      <point x="450" y="619"/>
      <point x="450" y="693" type="curve" smooth="yes"/>
      <point x="450" y="730"/>
      <point x="423" y="752"/>
      <point x="386" y="752" type="curve" smooth="yes"/>
      <point x="344" y="752"/>
      <point x="322" y="729"/>
      <point x="322" y="700" type="curve" smooth="yes"/>
      <point x="322" y="669"/>
      <point x="345" y="659"/>
      <point x="367" y="656" type="curve"/>
      <point x="361" y="638"/>
      <point x="340" y="630"/>
    </contour>
  </outline>
</glyph>
<glyph name="uni1FDD" format="2">
  <advance width="600"/>
  <unicode hex="1FDD"/>
  <anchor x="355" y="553" name="_top"/>
  <anchor x="357" y="785" name="top"/>
  <outline>
    <contour>
      <point x="317" y="590" type="curve"/>
      <point x="328" y="636" type="line"/>
      <point x="292" y="636"/>
      <point x="266" y="649"/>
      <point x="266" y="667" type="curve" smooth="yes"/>
      <point x="265" y="668"/>
      <point x="266" y="670"/>
      <point x="266" y="672" type="curve"/>
      <point x="303" y="674"/>
      <point x="347" y="681"/>
      <point x="347" y="729" type="curve" smooth="yes"/>
      <point x="347" y="766"/>
      <point x="318" y="785"/>
      <point x="281" y="785" type="curve"/>
      <point x="226" y="785"/>
      <point x="190" y="741"/>
      <point x="190" y="689" type="curve" smooth="yes"/>
      <point x="190" y="629"/>
      <point x="224" y="594"/>
    </contour>
    <contour>
      <point x="433" y="597" type="curve"/>
      <point x="520" y="597" type="line"/>
      <point x="520" y="610" type="line"/>
      <point x="515" y="644"/>
      <point x="507" y="735"/>
      <point x="508" y="776" type="curve"/>
      <point x="357" y="776" type="line"/>
      <point x="357" y="761" type="line"/>
      <point x="369" y="711"/>
      <point x="408" y="635"/>
    </contour>
  </outline>
</glyph>
<glyph name="uni1FDE" format="2">
  <advance width="600"/>
  <unicode hex="1FDE"/>
  <anchor x="348" y="553" name="_top"/>
  <anchor x="403" y="785" name="top"/>
  <outline>
    <contour>
      <point x="367" y="590" type="line"/>
      <point x="459" y="590" type="line"/>
      <point x="499" y="632"/>
      <point x="560" y="715"/>
      <point x="584" y="762" type="curve"/>
      <point x="584" y="776" type="line"/>
      <point x="430" y="776" type="line"/>
      <point x="418" y="733"/>
      <point x="388" y="642"/>
      <point x="367" y="603" type="curve"/>
    </contour>
    <contour>
      <point x="345" y="590" type="curve"/>
      <point x="356" y="636" type="line"/>
      <point x="320" y="636"/>
      <point x="294" y="649"/>
      <point x="294" y="667" type="curve" smooth="yes"/>
      <point x="293" y="668"/>
      <point x="294" y="670"/>
      <point x="294" y="672" type="curve"/>
      <point x="331" y="674"/>
      <point x="375" y="681"/>
      <point x="375" y="729" type="curve" smooth="yes"/>
      <point x="375" y="766"/>
      <point x="346" y="785"/>
      <point x="309" y="785" type="curve"/>
      <point x="254" y="785"/>
      <point x="218" y="741"/>
      <point x="218" y="689" type="curve" smooth="yes"/>
      <point x="218" y="629"/>
      <point x="252" y="594"/>
    </contour>
  </outline>
</glyph>
<glyph name="uni1FDF" format="2">
  <advance width="600"/>
  <unicode hex="1FDF"/>
  <outline>
    <contour>
      <point x="220" y="762" type="curve"/>
      <point x="297" y="762" type="line"/>
      <point x="302" y="786"/>
      <point x="316" y="805"/>
      <point x="339" y="805" type="curve" smooth="yes"/>
      <point x="375" y="805"/>
      <point x="419" y="762"/>
      <point x="483" y="762" type="curve" smooth="yes"/>
      <point x="543" y="762"/>
      <point x="583" y="796"/>
      <point x="598" y="885" type="curve"/>
      <point x="523" y="885" type="line"/>
      <point x="516" y="860"/>
      <point x="505" y="842"/>
      <point x="475" y="842" type="curve" smooth="yes"/>
      <point x="446" y="842"/>
      <point x="404" y="885"/>
      <point x="341" y="885" type="curve" smooth="yes"/>
      <point x="275" y="885"/>
      <point x="232" y="846"/>
    </contour>
    <contour>
      <point x="427" y="584" type="curve"/>
      <point x="438" y="628" type="line"/>
      <point x="406" y="628"/>
      <point x="388" y="638"/>
      <point x="388" y="653" type="curve" smooth="yes"/>
      <point x="387" y="653"/>
      <point x="388" y="655"/>
      <point x="388" y="656" type="curve"/>
      <point x="417" y="660"/>
      <point x="452" y="671"/>
      <point x="452" y="708" type="curve" smooth="yes"/>
      <point x="452" y="737"/>
      <point x="427" y="752"/>
      <point x="394" y="752" type="curve" smooth="yes"/>
      <point x="349" y="752"/>
      <point x="316" y="720"/>
      <point x="316" y="671" type="curve" smooth="yes"/>
      <point x="316" y="624"/>
      <point x="347" y="587"/>
    </contour>
  </outline>
</glyph>
<glyph name="uni1FED" format="2">
  <advance width="554"/>
  <unicode hex="1FED"/>
  <outline>
    <contour>
      <point x="341" y="620" type="curve"/>
      <point x="429" y="620" type="line"/>
      <point x="432" y="633" type="line"/>
      <point x="423" y="673"/>
      <point x="416" y="732"/>
      <point x="416" y="780" type="curve"/>
      <point x="279" y="780" type="line"/>
      <point x="277" y="770" type="line"/>
      <point x="286" y="725"/>
      <point x="312" y="664"/>
    </contour>
    <contour>
      <point x="183" y="613" type="curve" smooth="yes"/>
      <point x="249" y="613"/>
      <point x="272" y="647"/>
      <point x="272" y="697" type="curve" smooth="yes"/>
      <point x="272" y="743"/>
      <point x="233" y="752"/>
      <point x="196" y="752" type="curve" smooth="yes"/>
      <point x="140" y="752"/>
      <point x="108" y="727"/>
      <point x="108" y="669" type="curve" smooth="yes"/>
      <point x="108" y="625"/>
      <point x="139" y="613"/>
    </contour>
    <contour>
      <point x="528" y="613" type="curve" smooth="yes"/>
      <point x="595" y="613"/>
      <point x="616" y="647"/>
      <point x="616" y="697" type="curve" smooth="yes"/>
      <point x="616" y="743"/>
      <point x="578" y="752"/>
      <point x="542" y="752" type="curve" smooth="yes"/>
      <point x="486" y="752"/>
      <point x="453" y="727"/>
      <point x="453" y="669" type="curve" smooth="yes"/>
      <point x="453" y="625"/>
      <point x="485" y="613"/>
    </contour>
  </outline>
</glyph>
<glyph name="uni1FEE" format="2">
  <advance width="600"/>
  <unicode hex="1FEE"/>
  <anchor x="360" y="553" name="_top"/>
  <outline>
    <contour>
      <point x="309" y="620" type="line"/>
      <point x="397" y="620" type="line"/>
      <point x="432" y="660"/>
      <point x="472" y="723"/>
      <point x="494" y="768" type="curve"/>
      <point x="494" y="780" type="line"/>
      <point x="357" y="780" type="line"/>
      <point x="346" y="732"/>
      <point x="325" y="673"/>
      <point x="306" y="633" type="curve"/>
    </contour>
    <contour>
      <point x="208" y="613" type="curve" smooth="yes"/>
      <point x="274" y="613"/>
      <point x="297" y="647"/>
      <point x="297" y="697" type="curve" smooth="yes"/>
      <point x="297" y="743"/>
      <point x="258" y="752"/>
      <point x="221" y="752" type="curve" smooth="yes"/>
      <point x="165" y="752"/>
      <point x="133" y="727"/>
      <point x="133" y="669" type="curve" smooth="yes"/>
      <point x="133" y="625"/>
      <point x="164" y="613"/>
    </contour>
    <contour>
      <point x="553" y="613" type="curve" smooth="yes"/>
      <point x="620" y="613"/>
      <point x="641" y="647"/>
      <point x="641" y="697" type="curve" smooth="yes"/>
      <point x="641" y="743"/>
      <point x="603" y="752"/>
      <point x="567" y="752" type="curve" smooth="yes"/>
      <point x="511" y="752"/>
      <point x="478" y="727"/>
      <point x="478" y="669" type="curve" smooth="yes"/>
      <point x="478" y="625"/>
      <point x="510" y="613"/>
    </contour>
  </outline>
</glyph>
<glyph name="uni1FEF" format="2">
  <advance width="600"/>
  <unicode hex="1FEF"/>
  <anchor x="366" y="553" name="_top"/>
  <outline>
    <contour>
      <point x="327" y="606" type="curve"/>
      <point x="432" y="606" type="line"/>
      <point x="435" y="618" type="line"/>
      <point x="425" y="663"/>
      <point x="418" y="743"/>
      <point x="418" y="796" type="curve"/>
      <point x="251" y="796" type="line"/>
      <point x="248" y="784" type="line"/>
      <point x="267" y="724"/>
      <point x="289" y="671"/>
    </contour>
  </outline>
</glyph>
<glyph name="uni1FFD" format="2">
  <advance width="600"/>
  <unicode hex="1FFD"/>
  <anchor x="355" y="553" name="_top"/>
  <outline>
    <contour>
      <point x="286" y="618" type="curve"/>
      <point x="286" y="606" type="line"/>
      <point x="399" y="606" type="line"/>
      <point x="452" y="672"/>
      <point x="486" y="725"/>
      <point x="523" y="784" type="curve"/>
      <point x="523" y="796" type="line"/>
      <point x="353" y="796" type="line"/>
      <point x="338" y="744"/>
      <point x="308" y="664"/>
    </contour>
  </outline>
</glyph>
<glyph name="uni1FFE" format="2">
  <advance width="249"/>
  <unicode hex="1FFE"/>
  <anchor x="185" y="553" name="_top"/>
  <anchor x="218" y="799" name="top"/>
  <outline>
    <contour>
      <point x="263" y="585" type="curve"/>
      <point x="276" y="641" type="line"/>
      <point x="240" y="641"/>
      <point x="220" y="654"/>
      <point x="220" y="672" type="curve" smooth="yes"/>
      <point x="219" y="673"/>
      <point x="220" y="675"/>
      <point x="220" y="677" type="curve"/>
      <point x="253" y="681"/>
      <point x="291" y="695"/>
      <point x="291" y="743" type="curve" smooth="yes"/>
      <point x="291" y="780"/>
      <point x="264" y="799"/>
      <point x="227" y="799" type="curve"/>
      <point x="177" y="799"/>
      <point x="141" y="758"/>
      <point x="141" y="696" type="curve" smooth="yes"/>
      <point x="141" y="636"/>
      <point x="175" y="589"/>
    </contour>
  </outline>
</glyph>
<glyph name="uni2012" format="2">
  <advance width="537"/>
  <unicode hex="2012"/>
  <outline>
    <contour>
      <point x="36" y="282" type="line"/>
      <point x="505" y="282" type="line"/>
      <point x="536" y="427" type="line"/>
      <point x="67" y="427" type="line"/>
    </contour>
  </outline>
</glyph>
<glyph name="endash" format="2">
  <advance width="480"/>
  <unicode hex="2013"/>
  <outline>
    <contour>
      <point x="16" y="203" type="line"/>
      <point x="440" y="203" type="line"/>
      <point x="469" y="337" type="line"/>
      <point x="44" y="337" type="line"/>
    </contour>
  </outline>
</glyph>
<glyph name="quoteright" format="2">
  <advance width="244"/>
  <unicode hex="2019"/>
  <outline>
    <contour>
      <point x="46" y="469" type="curve"/>
      <point x="187" y="469" type="line"/>
      <point x="233" y="544"/>
      <point x="282" y="635"/>
      <point x="312" y="703" type="curve"/>
      <point x="308" y="714" type="line"/>
      <point x="138" y="714" type="line"/>
      <point x="114" y="645"/>
      <point x="79" y="548"/>
    </contour>
  </outline>
</glyph>
<glyph name="quotesinglbase" format="2">
  <advance width="303"/>
  <unicode hex="201A"/>
  <outline>
    <contour>
      <point x="-51" y="-129" type="curve"/>
      <point x="90" y="-129" type="line"/>
      <point x="137" y="-54"/>
      <point x="186" y="37"/>
      <point x="215" y="105" type="curve"/>
      <point x="211" y="116" type="line"/>
      <point x="41" y="116" type="line"/>
      <point x="16" y="47"/>
      <point x="-17" y="-50"/>
    </contour>
  </outline>
</glyph>
<glyph name="uni2023" format="2">
  <advance width="506"/>
  <unicode hex="2023"/>
  <outline>
    <contour>
      <point x="37" y="138" type="line"/>
      <point x="454" y="343" type="line"/>
      <point x="137" y="607" type="line"/>
    </contour>
  </outline>
</glyph>
<glyph name="minute" format="2">
  <advance width="267"/>
  <unicode hex="2032"/>
  <outline>
    <contour>
      <point x="39" y="456" type="line"/>
      <point x="178" y="456" type="line"/>
      <point x="365" y="714" type="line"/>
      <point x="184" y="714" type="line"/>
    </contour>
  </outline>
</glyph>
<glyph name="primeReversed" format="2">
  <advance width="355"/>
  <unicode hex="2035"/>
  <outline>
    <contour>
      <point x="259" y="456" type="line"/>
      <point x="373" y="456" type="line"/>
      <point x="265" y="714" type="line"/>
      <point x="114" y="714" type="line"/>
    </contour>
  </outline>
</glyph>
<glyph name="caret" format="2">
  <advance width="409"/>
  <unicode hex="2038"/>
  <outline>
    <contour>
      <point x="-73" y="-240" type="line"/>
      <point x="24" y="-240" type="line"/>
      <point x="132" y="-43" type="line"/>
      <point x="171" y="-240" type="line"/>
      <point x="262" y="-240" type="line"/>
      <point x="178" y="86" type="line"/>
      <point x="124" y="86" type="line"/>
    </contour>
  </outline>
</glyph>
<glyph name="hyphenbullet" format="2">
  <advance width="399"/>
  <unicode hex="2043"/>
  <outline>
    <contour>
      <point x="50" y="189" type="line"/>
      <point x="320" y="189" type="line"/>
      <point x="350" y="343" type="line"/>
      <point x="80" y="343" type="line"/>
    </contour>
  </outline>
</glyph>
<glyph name="bracketleftwithquill" format="2">
  <advance width="360"/>
  <unicode hex="2045"/>
  <outline>
    <contour>
      <point x="80" y="236" type="line"/>
      <point x="314" y="236" type="line"/>
      <point x="340" y="360" type="line"/>
      <point x="106" y="360" type="line"/>
    </contour>
    <component base="bracketleft"/>
  </outline>
</glyph>
<glyph name="tironiansignet" format="2">
  <advance width="600"/>
  <unicode hex="204A"/>
  <outline>
    <contour>
      <point x="401" y="0" type="line"/>
      <point x="528" y="0" type="line"/>
      <point x="528" y="553" type="line"/>
      <point x="43" y="553" type="line"/>
      <point x="43" y="426" type="line"/>
      <point x="401" y="426" type="line"/>
    </contour>
  </outline>
</glyph>
<glyph name="blackleftbullet" format="2">
  <advance width="643"/>
  <unicode hex="204C"/>
  <outline>
    <contour>
      <point x="270" y="43" type="curve" smooth="yes"/>
      <point x="579" y="43" type="line"/>
      <point x="579" y="553" type="line" smooth="yes"/>
      <point x="270" y="553" type="line" smooth="yes"/>
      <point x="139" y="553"/>
      <point x="50" y="478"/>
      <point x="50" y="300" type="curve" smooth="yes"/>
      <point x="50" y="96"/>
      <point x="139" y="43"/>
    </contour>
    <contour>
      <point x="409" y="155" type="line"/>
      <point x="409" y="441" type="line"/>
      <point x="486" y="441" type="line"/>
      <point x="486" y="155" type="line"/>
    </contour>
  </outline>
</glyph>
<glyph name="minussuperior" format="2">
  <advance width="386"/>
  <unicode hex="207B"/>
  <outline>
    <contour>
      <point x="77" y="408" type="line"/>
      <point x="386" y="408" type="line"/>
      <point x="386" y="508" type="line"/>
      <point x="77" y="508" type="line"/>
    </contour>
  </outline>
</glyph>
<glyph name="equalsuperior" format="2">
  <advance width="386"/>
  <unicode hex="207C"/>
  <outline>
    <contour>
      <point x="64" y="478" type="line"/>
      <point x="397" y="478" type="line"/>
      <point x="397" y="565" type="line"/>
      <point x="64" y="565" type="line"/>
    </contour>
    <contour>
      <point x="64" y="343" type="line"/>
      <point x="397" y="343" type="line"/>
      <point x="397" y="430" type="line"/>
      <point x="64" y="430" type="line"/>
    </contour>
  </outline>
</glyph>
<glyph name="parenleftsuperior" format="2">
  <advance width="279"/>
  <unicode hex="207D"/>
  <outline>
    <contour>
      <point x="135" y="214" type="curve"/>
      <point x="235" y="214" type="line"/>
      <point x="207" y="276"/>
      <point x="190" y="345"/>
      <point x="190" y="406" type="curve" smooth="yes"/>
      <point x="190" y="559"/>
      <point x="259" y="676"/>
      <point x="354" y="772" type="curve"/>
      <point x="245" y="772" type="line"/>
      <point x="136" y="667"/>
      <point x="80" y="553"/>
      <point x="80" y="414" type="curve" smooth="yes"/>
      <point x="80" y="342"/>
      <point x="97" y="274"/>
    </contour>
  </outline>
</glyph>
<glyph name="parenrightsuperior" format="2">
  <advance width="279"/>
  <unicode hex="207E"/>
  <outline>
    <contour>
      <point x="7" y="214" type="curve"/>
      <point x="117" y="214" type="line"/>
      <point x="225" y="319"/>
      <point x="282" y="433"/>
      <point x="282" y="573" type="curve" smooth="yes"/>
      <point x="282" y="644"/>
      <point x="264" y="712"/>
      <point x="226" y="772" type="curve"/>
      <point x="127" y="772" type="line"/>
      <point x="154" y="710"/>
      <point x="171" y="641"/>
      <point x="171" y="580" type="curve" smooth="yes"/>
      <point x="171" y="427"/>
      <point x="102" y="310"/>
    </contour>
  </outline>
</glyph>
<glyph name="uni20A5" format="2">
  <advance width="926"/>
  <unicode hex="20A5"/>
  <anchor x="413" y="0" name="bottom"/>
  <anchor x="539" y="553" name="top"/>
  <anchor x="965" y="553" name="topright"/>
  <outline>
    <contour>
      <point x="170" y="-110" type="line"/>
      <point x="285" y="-110" type="line"/>
      <point x="753" y="666" type="line"/>
      <point x="639" y="666" type="line"/>
    </contour>
    <component base="m"/>
  </outline>
</glyph>
<glyph name="response" format="2">
  <advance width="650"/>
  <unicode hex="211F"/>
  <anchor x="276" y="0" name="bottom"/>
  <anchor x="414" y="714" name="top"/>
  <anchor x="723" y="714" name="topright"/>
  <outline>
    <contour>
      <point x="231" y="-145" type="line"/>
      <point x="303" y="-145" type="line"/>
      <point x="449" y="805" type="line"/>
      <point x="123" y="875" type="line"/>
      <point x="107" y="806" type="line"/>
      <point x="369" y="754" type="line"/>
    </contour>
    <component base="R"/>
  </outline>
</glyph>
<glyph name="versicle" format="2">
  <advance width="617"/>
  <unicode hex="2123"/>
  <anchor x="228" y="0" name="bottom"/>
  <anchor x="375" y="714" name="top"/>
  <anchor x="690" y="714" name="topright"/>
  <outline>
    <contour>
      <point x="26" y="-146" type="line"/>
      <point x="95" y="-146" type="line"/>
      <point x="450" y="786" type="line"/>
      <point x="173" y="879" type="line"/>
      <point x="149" y="812" type="line"/>
      <point x="365" y="744" type="line"/>
    </contour>
    <component base="V"/>
  </outline>
</glyph>
<glyph name="daletsymbol" format="2">
  <advance width="511"/>
  <unicode hex="2138"/>
  <outline>
    <contour>
      <point x="290" y="0" type="line"/>
      <point x="432" y="0" type="line"/>
      <point x="432" y="464" type="line"/>
      <point x="509" y="464" type="line"/>
      <point x="509" y="585" type="line"/>
      <point x="2" y="585" type="line"/>
      <point x="2" y="464" type="line"/>
      <point x="290" y="464" type="line"/>
    </contour>
  </outline>
</glyph>
<glyph name="reversedSansSerifL" format="2">
  <advance width="527"/>
  <unicode hex="2143"/>
  <outline>
    <contour>
      <point x="-31" y="0" type="line"/>
      <point x="394" y="0" type="line"/>
      <point x="546" y="714" type="line"/>
      <point x="355" y="714" type="line"/>
      <point x="236" y="155" type="line"/>
      <point x="2" y="155" type="line"/>
    </contour>
  </outline>
</glyph>
<glyph name="uni214E" format="2">
  <advance width="480"/>
  <unicode hex="214E"/>
  <outline>
    <contour>
      <point x="-28" y="0" type="line"/>
      <point x="361" y="0" type="line"/>
      <point x="478" y="552" type="line"/>
      <point x="296" y="552" type="line"/>
      <point x="261" y="385" type="line"/>
      <point x="76" y="385" type="line"/>
      <point x="46" y="243" type="line"/>
      <point x="231" y="243" type="line"/>
      <point x="209" y="142" type="line"/>
      <point x="2" y="142" type="line"/>
    </contour>
  </outline>
</glyph>
<glyph name="uni2C61" format="2">
  <advance width="323"/>
  <unicode hex="2C61"/>
  <anchor x="103" y="0" name="bottom"/>
  <anchor x="265" y="760" name="top"/>
  <outline>
    <contour>
      <point x="11" y="0" type="line"/>
      <point x="200" y="0" type="line"/>
      <point x="250" y="236" type="line"/>
      <point x="318" y="236" type="line"/>
      <point x="339" y="334" type="line"/>
      <point x="271" y="334" type="line"/>
      <point x="283" y="393" type="line"/>
      <point x="351" y="393" type="line"/>
      <point x="372" y="491" type="line"/>
      <point x="304" y="491" type="line"/>
      <point x="361" y="760" type="line"/>
      <point x="172" y="760" type="line"/>
      <point x="115" y="491" type="line"/>
      <point x="48" y="491" type="line"/>
      <point x="27" y="393" type="line"/>
      <point x="94" y="393" type="line"/>
      <point x="82" y="334" type="line"/>
      <point x="15" y="334" type="line"/>
      <point x="-6" y="236" type="line"/>
      <point x="61" y="236" type="line"/>
    </contour>
  </outline>
</glyph>
<glyph name="uni2C65" format="2">
  <advance width="607"/>
  <unicode hex="2C65"/>
  <anchor x="201" y="-208" name="bottom"/>
  <anchor x="407" y="760" name="top"/>
  <anchor x="646" y="553" name="topright"/>
  <outline>
    <contour>
      <point x="2" y="-208" type="line"/>
      <point x="99" y="-208" type="line"/>
      <point x="598" y="760" type="line"/>
      <point x="501" y="760" type="line"/>
    </contour>
    <component base="a"/>
  </outline>
</glyph>
<glyph name="uni2C76" format="2">
  <advance width="508"/>
  <unicode hex="2C76"/>
  <anchor x="195" y="0" name="bottom"/>
  <anchor x="313" y="553" name="top"/>
  <outline>
    <contour>
      <point x="11" y="0" type="line"/>
      <point x="200" y="0" type="line"/>
      <point x="246" y="215" type="line"/>
      <point x="471" y="215" type="line"/>
      <point x="500" y="353" type="line"/>
      <point x="276" y="353" type="line"/>
      <point x="318" y="553" type="line"/>
      <point x="129" y="553" type="line"/>
    </contour>
  </outline>
</glyph>
<glyph name="enotch" format="2">
  <advance width="708"/>
  <unicode hex="2C78"/>
  <anchor x="260" y="0" name="bottom"/>
  <anchor x="352" y="553" name="top"/>
  <anchor x="618" y="553" name="topright"/>
  <outline>
    <contour>
      <point x="535" y="-11" type="curve" smooth="yes"/>
      <point x="629" y="-11"/>
      <point x="683" y="57"/>
      <point x="683" y="168" type="curve" smooth="yes"/>
      <point x="683" y="177"/>
      <point x="682" y="193"/>
      <point x="681" y="200" type="curve"/>
      <point x="567" y="200" type="line"/>
      <point x="568" y="192"/>
      <point x="570" y="181"/>
      <point x="570" y="173" type="curve" smooth="yes"/>
      <point x="570" y="140"/>
      <point x="550" y="116"/>
      <point x="519" y="116" type="curve" smooth="yes"/>
      <point x="485" y="116"/>
      <point x="471" y="143"/>
      <point x="471" y="174" type="curve"/>
      <point x="430" y="32" type="line"/>
      <point x="451" y="7"/>
      <point x="491" y="-11"/>
    </contour>
    <component base="e"/>
  </outline>
</glyph>
<glyph name="uni2DF5" format="2">
  <unicode hex="2DF5"/>
  <anchor x="59" y="553" name="_top"/>
  <anchor x="117" y="841" name="top"/>
  <anchor x="328" y="841" name="topright"/>
  <outline>
    <contour>
      <point x="-17" y="616" type="curve" smooth="yes"/>
      <point x="18" y="616"/>
      <point x="42" y="622"/>
      <point x="66" y="634" type="curve"/>
      <point x="66" y="694" type="line"/>
      <point x="43" y="683"/>
      <point x="25" y="677"/>
      <point x="3" y="677" type="curve" smooth="yes"/>
      <point x="-14" y="677"/>
      <point x="-24" y="685"/>
      <point x="-24" y="711" type="curve" smooth="yes"/>
      <point x="-24" y="740"/>
      <point x="-7" y="786"/>
      <point x="45" y="786" type="curve" smooth="yes"/>
      <point x="144" y="786" type="line"/>
      <point x="105" y="620" type="line"/>
      <point x="186" y="620" type="line"/>
      <point x="226" y="786" type="line"/>
      <point x="297" y="786" type="line"/>
      <point x="311" y="840" type="line"/>
      <point x="33" y="840" type="line" smooth="yes"/>
      <point x="-57" y="840"/>
      <point x="-110" y="781"/>
      <point x="-110" y="706" type="curve" smooth="yes"/>
      <point x="-110" y="642"/>
      <point x="-67" y="616"/>
    </contour>
  </outline>
</glyph>
<glyph name="forkedparagraphos" format="2">
  <advance width="1000"/>
  <unicode hex="2E10"/>
  <outline>
    <contour>
      <point x="38" y="-359" type="line"/>
      <point x="372" y="-158" type="line"/>
      <point x="1000" y="-158" type="line"/>
      <point x="1000" y="-86" type="line"/>
      <point x="0" y="-86" type="line"/>
      <point x="0" y="-158" type="line"/>
      <point x="228" y="-158" type="line"/>
      <point x="2" y="-296" type="line"/>
    </contour>
  </outline>
</glyph>
<glyph name="threeemdash" format="2">
  <advance width="2880"/>
  <unicode hex="2E3B"/>
  <outline>
    <contour>
      <point x="16" y="203" type="line"/>
      <point x="2840" y="203" type="line"/>
      <point x="2869" y="337" type="line"/>
      <point x="44" y="337" type="line"/>
    </contour>
  </outline>
</glyph>
<glyph name="uniA643" format="2">
  <advance width="485"/>
  <unicode hex="A643"/>
  <outline>
    <contour>
      <point x="36" y="223" type="line"/>
      <point x="432" y="223" type="line"/>
      <point x="457" y="335" type="line"/>
      <point x="60" y="335" type="line"/>
    </contour>
    <component base="uniA641"/>
  </outline>
</glyph>
<glyph name="uniA64E" format="2">
  <advance width="636"/>
  <unicode hex="A64E"/>
  <outline>
    <contour>
      <point x="43" y="0" type="line"/>
      <point x="295" y="0" type="line" smooth="yes"/>
      <point x="489" y="0"/>
      <point x="586" y="100"/>
      <point x="586" y="246" type="curve" smooth="yes"/>
      <point x="586" y="362"/>
      <point x="508" y="449"/>
      <point x="343" y="449" type="curve" smooth="yes"/>
      <point x="329" y="449" type="line"/>
      <point x="349" y="534" type="line" smooth="yes"/>
      <point x="354" y="554"/>
      <point x="358" y="580"/>
      <point x="358" y="602" type="curve" smooth="yes"/>
      <point x="358" y="682"/>
      <point x="313" y="726"/>
      <point x="211" y="726" type="curve" smooth="yes"/>
      <point x="145" y="726"/>
      <point x="82" y="712"/>
      <point x="53" y="699" type="curve"/>
      <point x="72" y="567" type="line"/>
      <point x="90" y="574"/>
      <point x="109" y="582"/>
      <point x="129" y="582" type="curve" smooth="yes"/>
      <point x="148" y="582"/>
      <point x="158" y="569"/>
      <point x="158" y="554" type="curve" smooth="yes"/>
      <point x="158" y="543"/>
      <point x="156" y="532"/>
      <point x="153" y="518" type="curve" smooth="yes"/>
    </contour>
    <contour>
      <point x="267" y="149" type="line"/>
      <point x="297" y="300" type="line"/>
      <point x="330" y="300" type="line" smooth="yes"/>
      <point x="373" y="300"/>
      <point x="394" y="269"/>
      <point x="394" y="236" type="curve" smooth="yes"/>
      <point x="394" y="182"/>
      <point x="362" y="149"/>
      <point x="305" y="149" type="curve" smooth="yes"/>
    </contour>
  </outline>
</glyph>
<glyph name="uniA650" format="2">
  <advance width="1041"/>
  <unicode hex="A650"/>
  <anchor x="511" y="0" name="bottom"/>
  <anchor x="649" y="714" name="top"/>
  <outline>
    <contour>
      <point x="231" y="556" type="line"/>
      <point x="454" y="714" type="line"/>
      <point x="110" y="714" type="line"/>
      <point x="76" y="556" type="line"/>
    </contour>
    <component base="afii10045" xOffset="98"/>
  </outline>
</glyph>
<glyph name="uniA651" format="2">
  <advance width="991"/>
  <unicode hex="A651"/>
  <anchor x="487" y="0" name="bottom"/>
  <anchor x="590" y="553" name="top"/>
  <outline>
    <contour>
      <point x="192" y="415" type="line"/>
      <point x="411" y="553" type="line"/>
      <point x="68" y="553" type="line"/>
      <point x="38" y="415" type="line"/>
    </contour>
    <component base="afii10093" xOffset="101"/>
  </outline>
</glyph>
<glyph name="uniA65C" format="2">
  <advance width="1002"/>
  <unicode hex="A65C"/>
  <outline>
    <contour>
      <point x="466" y="0" type="line"/>
      <point x="780" y="0" type="line"/>
      <point x="810" y="139" type="line"/>
      <point x="496" y="139" type="line"/>
    </contour>
    <component base="uniA656"/>
  </outline>
</glyph>
<glyph name="uniA660" format="2">
  <advance width="741"/>
  <unicode hex="A660"/>
  <outline>
    <contour>
      <point x="-105" y="-223" type="line"/>
      <point x="81" y="-223" type="line"/>
      <point x="128" y="0" type="line"/>
      <point x="595" y="0" type="line"/>
      <point x="746" y="714" type="line"/>
      <point x="555" y="714" type="line"/>
      <point x="438" y="158" type="line"/>
      <point x="269" y="158" type="line"/>
      <point x="385" y="714" type="line"/>
      <point x="194" y="714" type="line"/>
      <point x="76" y="158" type="line"/>
      <point x="-26" y="158" type="line"/>
    </contour>
  </outline>
</glyph>
<glyph name="uniA662" format="2">
  <advance width="916"/>
  <unicode hex="A662"/>
  <anchor x="282" y="-216" name="bottom"/>
  <anchor x="490" y="714" name="top"/>
  <outline>
    <contour>
      <point x="404" y="0" type="line"/>
      <point x="595" y="0" type="line"/>
      <point x="713" y="558" type="line"/>
      <point x="943" y="558" type="line"/>
      <point x="976" y="714" type="line"/>
      <point x="555" y="714" type="line"/>
    </contour>
    <component base="afii10021"/>
  </outline>
</glyph>
<glyph name="uniA664" format="2">
  <advance width="880"/>
  <unicode hex="A664"/>
  <anchor x="296" y="0" name="bottom"/>
  <anchor x="448" y="714" name="top"/>
  <outline>
    <contour>
      <point x="677" y="558" type="line"/>
      <point x="907" y="558" type="line"/>
      <point x="940" y="714" type="line"/>
      <point x="519" y="714" type="line"/>
    </contour>
    <component base="afii10029"/>
  </outline>
</glyph>
<glyph name="uniA665" format="2">
  <advance width="818"/>
  <unicode hex="A665"/>
  <anchor x="275" y="0" name="bottom"/>
  <anchor x="393" y="553" name="top"/>
  <outline>
    <contour>
      <point x="352" y="0" type="line"/>
      <point x="541" y="0" type="line"/>
      <point x="629" y="413" type="line"/>
      <point x="818" y="413" type="line"/>
      <point x="847" y="552" type="line"/>
      <point x="469" y="552" type="line"/>
    </contour>
    <component base="afii10077"/>
  </outline>
</glyph>
<glyph name="uniA667" format="2">
  <advance width="1010"/>
  <unicode hex="A667"/>
  <anchor x="373" y="0" name="bottom"/>
  <anchor x="491" y="553" name="top"/>
  <outline>
    <contour>
      <point x="821" y="413" type="line"/>
      <point x="1010" y="413" type="line"/>
      <point x="1039" y="552" type="line"/>
      <point x="661" y="552" type="line"/>
    </contour>
    <component base="afii10078"/>
  </outline>
</glyph>
<glyph name="uniA680" format="2">
  <advance width="794"/>
  <unicode hex="A680"/>
  <anchor x="282" y="-216" name="bottom"/>
  <anchor x="490" y="714" name="top"/>
  <outline>
    <contour>
      <point x="298" y="668" type="line"/>
      <point x="461" y="668" type="line"/>
      <point x="515" y="920" type="line"/>
      <point x="352" y="920" type="line"/>
    </contour>
    <component base="afii10021"/>
  </outline>
</glyph>
<glyph name="uniA684" format="2">
  <advance width="1285"/>
  <unicode hex="A684"/>
  <anchor x="249" y="0" name="bottom_1"/>
  <anchor x="904" y="0" name="bottom_2"/>
  <anchor x="401" y="714" name="top_1"/>
  <anchor x="1069" y="714" name="top_2"/>
  <outline>
    <contour>
      <point x="352" y="291" type="line"/>
      <point x="792" y="291" type="line"/>
      <point x="827" y="449" type="line"/>
      <point x="386" y="449" type="line"/>
    </contour>
    <component base="afii10025"/>
    <component base="afii10028" xOffset="640"/>
  </outline>
</glyph>
<glyph name="uniA685" format="2">
  <advance width="1183"/>
  <unicode hex="A685"/>
  <anchor x="232" y="0" name="bottom_1"/>
  <anchor x="812" y="0" name="bottom_2"/>
  <anchor x="350" y="553" name="top_1"/>
  <anchor x="936" y="553" name="top_2"/>
  <outline>
    <contour>
      <point x="364" y="215" type="line"/>
      <point x="673" y="215" type="line"/>
      <point x="702" y="353" type="line"/>
      <point x="394" y="353" type="line"/>
    </contour>
    <component base="afii10073"/>
    <component base="afii10076" xOffset="559"/>
  </outline>
</glyph>
<glyph name="uniA687" format="2">
  <advance width="869"/>
  <unicode hex="A687"/>
  <outline>
    <contour>
      <point x="552" y="0" type="line"/>
      <point x="741" y="0" type="line"/>
      <point x="858" y="553" type="line"/>
      <point x="669" y="553" type="line"/>
      <point x="647" y="448" type="line"/>
      <point x="629" y="344"/>
      <point x="615" y="305"/>
      <point x="577" y="305" type="curve" smooth="yes"/>
      <point x="557" y="305"/>
      <point x="540" y="319"/>
      <point x="540" y="347" type="curve" smooth="yes"/>
      <point x="540" y="370"/>
      <point x="545" y="399"/>
      <point x="549" y="416" type="curve" smooth="yes"/>
      <point x="577" y="553" type="line"/>
      <point x="388" y="553" type="line"/>
      <point x="357" y="398" type="line" smooth="yes"/>
      <point x="344" y="331"/>
      <point x="327" y="305"/>
      <point x="296" y="305" type="curve" smooth="yes"/>
      <point x="276" y="305"/>
      <point x="259" y="319"/>
      <point x="259" y="347" type="curve" smooth="yes"/>
      <point x="259" y="370"/>
      <point x="264" y="399"/>
      <point x="268" y="416" type="curve" smooth="yes"/>
      <point x="296" y="553" type="line"/>
      <point x="107" y="553" type="line"/>
      <point x="80" y="423" type="line" smooth="yes"/>
      <point x="73" y="388"/>
      <point x="68" y="348"/>
      <point x="68" y="297" type="curve" smooth="yes"/>
      <point x="68" y="226"/>
      <point x="111" y="154"/>
      <point x="211" y="154" type="curve" smooth="yes"/>
      <point x="276" y="154"/>
      <point x="321" y="194"/>
      <point x="352" y="244" type="curve"/>
      <point x="357" y="244" type="line"/>
      <point x="373" y="194"/>
      <point x="413" y="154"/>
      <point x="476" y="154" type="curve" smooth="yes"/>
      <point x="524" y="154"/>
      <point x="564" y="175"/>
      <point x="589" y="201" type="curve"/>
      <point x="594" y="201" type="line"/>
      <point x="591" y="185"/>
      <point x="587" y="170"/>
      <point x="584" y="154" type="curve"/>
    </contour>
  </outline>
</glyph>
<glyph name="uniA68D" format="2">
  <advance width="554"/>
  <unicode hex="A68D"/>
  <outline>
    <contour>
      <point x="297" y="-10" type="curve" smooth="yes"/>
      <point x="371" y="-10"/>
      <point x="422" y="3"/>
      <point x="463" y="23" type="curve"/>
      <point x="463" y="165" type="line"/>
      <point x="431" y="152"/>
      <point x="399" y="142"/>
      <point x="374" y="142" type="curve" smooth="yes"/>
      <point x="356" y="142"/>
      <point x="343" y="151"/>
      <point x="343" y="173" type="curve" smooth="yes"/>
      <point x="343" y="184"/>
      <point x="347" y="205"/>
      <point x="351" y="224" type="curve" smooth="yes"/>
      <point x="392" y="413" type="line"/>
      <point x="552" y="413" type="line"/>
      <point x="582" y="552" type="line"/>
      <point x="71" y="552" type="line"/>
      <point x="41" y="413" type="line"/>
      <point x="202" y="413" type="line"/>
      <point x="160" y="215" type="line" smooth="yes"/>
      <point x="154" y="188"/>
      <point x="148" y="150"/>
      <point x="148" y="123" type="curve" smooth="yes"/>
      <point x="148" y="29"/>
      <point x="199" y="-10"/>
    </contour>
  </outline>
</glyph>
<glyph name="uniA69A" format="2">
  <advance width="737"/>
  <unicode hex="A69A"/>
  <anchor x="310" y="0" name="bottom"/>
  <anchor x="462" y="714" name="top"/>
  <outline>
    <contour>
      <point x="255" y="29" type="line"/>
      <point x="363" y="29" type="line"/>
      <point x="497" y="661" type="line"/>
      <point x="389" y="661" type="line"/>
    </contour>
    <component base="uni04E8"/>
  </outline>
</glyph>
<glyph name="uniA69E" format="2">
  <unicode hex="A69E"/>
  <anchor x="-46" y="58" name="_top"/>
  <outline>
    <contour>
      <point x="-94" y="118" type="line"/>
      <point x="31" y="118" type="line"/>
      <point x="61" y="266" type="line"/>
      <point x="262" y="295"/>
      <point x="292" y="410"/>
      <point x="292" y="471" type="curve" smooth="yes"/>
      <point x="292" y="548"/>
      <point x="241" y="612"/>
      <point x="138" y="626" type="curve"/>
      <point x="165" y="758" type="line"/>
      <point x="42" y="758" type="line"/>
      <point x="15" y="627" type="line"/>
      <point x="-132" y="618"/>
      <point x="-220" y="538"/>
      <point x="-220" y="428" type="curve" smooth="yes"/>
      <point x="-220" y="348"/>
      <point x="-165" y="283"/>
      <point x="-60" y="272" type="curve"/>
    </contour>
    <contour>
      <point x="-43" y="368" type="line"/>
      <point x="-78" y="374"/>
      <point x="-90" y="402"/>
      <point x="-90" y="428" type="curve" smooth="yes"/>
      <point x="-90" y="451"/>
      <point x="-76" y="526"/>
      <point x="-4" y="531" type="curve"/>
    </contour>
    <contour>
      <point x="80" y="368" type="curve"/>
      <point x="118" y="530" type="line"/>
      <point x="150" y="521"/>
      <point x="163" y="494"/>
      <point x="163" y="475" type="curve" smooth="yes"/>
      <point x="163" y="449"/>
      <point x="151" y="384"/>
    </contour>
  </outline>
</glyph>
<glyph name="uniA724" format="2">
  <advance width="386"/>
  <unicode hex="A724"/>
  <outline>
    <contour>
      <point x="297" y="263" type="curve" smooth="yes"/>
      <point x="314" y="263" type="line"/>
      <point x="334" y="345" type="line"/>
      <point x="320" y="345" type="line" smooth="yes"/>
      <point x="263" y="345"/>
      <point x="230" y="377"/>
      <point x="230" y="435" type="curve" smooth="yes"/>
      <point x="230" y="504"/>
      <point x="274" y="556"/>
      <point x="375" y="556" type="curve" smooth="yes"/>
      <point x="409" y="556" type="line"/>
      <point x="443" y="711" type="line"/>
      <point x="368" y="711" type="line" smooth="yes"/>
      <point x="170" y="711"/>
      <point x="77" y="603"/>
      <point x="77" y="449" type="curve" smooth="yes"/>
      <point x="77" y="362"/>
      <point x="129" y="263"/>
    </contour>
  </outline>
</glyph>
<glyph name="uniA725" format="2">
  <advance width="347"/>
  <unicode hex="A725"/>
  <outline>
    <contour>
      <point x="228" y="151" type="curve" smooth="yes"/>
      <point x="252" y="151" type="line"/>
      <point x="270" y="229" type="line"/>
      <point x="258" y="229" type="line" smooth="yes"/>
      <point x="215" y="229"/>
      <point x="186" y="259"/>
      <point x="186" y="305" type="curve" smooth="yes"/>
      <point x="186" y="362"/>
      <point x="225" y="406"/>
      <point x="308" y="406" type="curve" smooth="yes"/>
      <point x="337" y="406" type="line"/>
      <point x="370" y="551" type="line"/>
      <point x="312" y="551" type="line" smooth="yes"/>
      <point x="128" y="551"/>
      <point x="40" y="447"/>
      <point x="40" y="318" type="curve" smooth="yes"/>
      <point x="40" y="217"/>
      <point x="111" y="151"/>
    </contour>
  </outline>
</glyph>
<glyph name="uniA730" format="2">
  <advance width="504"/>
  <unicode hex="A730"/>
  <outline>
    <contour>
      <point x="16" y="0" type="line"/>
      <point x="173" y="0" type="line"/>
      <point x="217" y="204" type="line"/>
      <point x="399" y="204" type="line"/>
      <point x="425" y="332" type="line"/>
      <point x="245" y="332" type="line"/>
      <point x="265" y="426" type="line"/>
      <point x="462" y="426" type="line"/>
      <point x="487" y="553" type="line"/>
      <point x="133" y="553" type="line"/>
    </contour>
  </outline>
</glyph>
<glyph name="uniA731" format="2">
  <advance width="470"/>
  <unicode hex="A731"/>
  <outline>
    <contour>
      <point x="185" y="-8" type="curve" smooth="yes"/>
      <point x="332" y="-8"/>
      <point x="399" y="61"/>
      <point x="399" y="173" type="curve" smooth="yes"/>
      <point x="399" y="235"/>
      <point x="371" y="279"/>
      <point x="308" y="323" type="curve" smooth="yes"/>
      <point x="265" y="351"/>
      <point x="239" y="367"/>
      <point x="239" y="395" type="curve" smooth="yes"/>
      <point x="239" y="418"/>
      <point x="252" y="433"/>
      <point x="291" y="433" type="curve" smooth="yes"/>
      <point x="324" y="433"/>
      <point x="358" y="429"/>
      <point x="410" y="407" type="curve"/>
      <point x="463" y="522" type="line"/>
      <point x="409" y="552"/>
      <point x="352" y="564"/>
      <point x="289" y="564" type="curve" smooth="yes"/>
      <point x="153" y="564"/>
      <point x="77" y="485"/>
      <point x="77" y="390" type="curve" smooth="yes"/>
      <point x="77" y="308"/>
      <point x="136" y="260"/>
      <point x="181" y="227" type="curve" smooth="yes"/>
      <point x="221" y="197"/>
      <point x="239" y="183"/>
      <point x="239" y="160" type="curve" smooth="yes"/>
      <point x="239" y="132"/>
      <point x="221" y="120"/>
      <point x="185" y="120" type="curve" smooth="yes"/>
      <point x="129" y="120"/>
      <point x="74" y="136"/>
      <point x="14" y="169" type="curve"/>
      <point x="12" y="30" type="line"/>
      <point x="49" y="8"/>
      <point x="127" y="-8"/>
    </contour>
  </outline>
</glyph>
<glyph name="uniA734" format="2">
  <advance width="1102"/>
  <unicode hex="A734"/>
  <anchor x="691" y="0" name="bottom"/>
  <anchor x="776" y="357" name="center"/>
  <anchor x="820" y="714" name="top"/>
  <anchor x="1175" y="714" name="topright"/>
  <outline>
    <contour>
      <point x="-59" y="0" type="line"/>
      <point x="139" y="0" type="line"/>
      <point x="200" y="134" type="line"/>
      <point x="599" y="134" type="line"/>
      <point x="550" y="714" type="line"/>
      <point x="304" y="714" type="line"/>
    </contour>
    <contour>
      <point x="270" y="286" type="line"/>
      <point x="367" y="495" type="line" smooth="yes"/>
      <point x="381" y="525"/>
      <point x="392" y="553"/>
      <point x="402" y="583" type="curve"/>
      <point x="405" y="583" type="line"/>
      <point x="404" y="555"/>
      <point x="405" y="523"/>
      <point x="406" y="491" type="curve" smooth="yes"/>
      <point x="413" y="286" type="line"/>
    </contour>
    <component base="O" xOffset="365"/>
  </outline>
</glyph>
<glyph name="uniA73B" format="2">
  <advance width="909"/>
  <unicode hex="A73B"/>
  <anchor x="381" y="4" name="bottom"/>
  <anchor x="497" y="553" name="top"/>
  <outline>
    <contour>
      <point x="430" y="296" type="line"/>
      <point x="662" y="296" type="line"/>
      <point x="683" y="394" type="line"/>
      <point x="451" y="394" type="line"/>
    </contour>
    <component base="uniA739"/>
  </outline>
</glyph>
<glyph name="uniA740" format="2">
  <advance width="669"/>
  <unicode hex="A740"/>
  <anchor x="292" y="0" name="bottom"/>
  <anchor x="438" y="714" name="top"/>
  <anchor x="742" y="714" name="topright"/>
  <outline>
    <contour>
      <point x="77" y="540" type="line"/>
      <point x="374" y="540" type="line"/>
      <point x="396" y="653" type="line"/>
      <point x="99" y="653" type="line"/>
    </contour>
    <component base="K"/>
  </outline>
</glyph>
